<?xml version="1.0" encoding="utf-8"?>
<!-- Generator: Adobe Illustrator 16.0.0, SVG Export Plug-In . SVG Version: 6.00 Build 0)  -->
<!DOCTYPE svg PUBLIC "-//W3C//DTD SVG 1.1//EN" "http://www.w3.org/Graphics/SVG/1.1/DTD/svg11.dtd">
<svg version="1.1" id="圖層_1" xmlns="http://www.w3.org/2000/svg" xmlns:xlink="http://www.w3.org/1999/xlink" x="0px" y="0px"
	 width="512px" height="128px" viewBox="0 0 512 128" enable-background="new 0 0 512 128" xml:space="preserve">
<g>
	<g>
		<path fill="#004889" d="M56.63,26.736h8.83l3.259,26.7h0.105l3.89-26.7h8.199l4.205,26.7h0.105l3.154-26.7h8.514l-6.518,37.527
			h-9.776l-3.837-26.647h-0.105l-3.627,26.647h-9.776L56.63,26.736z"/>
		<path fill="#004889" d="M98.254,26.736h8.83v37.527h-8.83V26.736z"/>
		<path fill="#004889" d="M118.172,52.806v1.313c0,2.839,0.789,4.993,3.837,4.993c3.102,0,3.995-2.313,3.995-4.467
			c0-8.094-16.136-3.574-16.136-17.608c0-5.992,3.206-11.038,12.299-11.038c8.831,0,11.984,4.467,11.984,10.25v0.894h-8.515
			c0-1.788-0.21-3.101-0.736-3.942c-0.525-0.894-1.366-1.314-2.68-1.314c-2.208,0-3.522,1.314-3.522,4.047
			c0,7.832,16.136,3.89,16.136,17.136c0,8.514-4.73,11.931-12.825,11.931c-6.412,0-12.351-1.945-12.351-9.776v-2.418H118.172z"/>
		<path fill="#004889" d="M137.249,26.736h21.708v7.147h-12.877V41.4h12.089v7.148h-12.089v8.568h13.456v7.147h-22.286V26.736z"/>
		<path fill="#004889" d="M160.742,45.5h15.873v7.147h-15.873V45.5z"/>
		<path fill="#004889" d="M179.293,26.736h13.666c9.303,0,11.09,6.728,11.09,11.405c0,6.728-3.206,11.458-12.036,11.458h-3.89
			v14.665h-8.83V26.736z M188.123,43.083h2.417c3.522,0,4.363-2.208,4.363-4.731c0-2.891-0.946-5.098-4.52-5.098h-2.261V43.083z"/>
		<path fill="#004889" d="M204.205,44.554c0.053-3.89,1.209-6.254,3.206-7.621c1.998-1.367,4.415-1.84,7.937-1.84
			c6.991,0,10.091,2.418,10.091,8.41v14.612c0,2.154,0,4.889,0.999,6.149h-8.199c-0.315-0.998-0.42-2.154-0.473-3.259h-0.105
			c-1.156,2.522-3.837,3.995-6.675,3.995c-4.783,0-7.569-2.523-7.569-8.673c0-3.312,1.366-6.097,3.469-7.253
			s5.256-1.683,7.621-2.313c2.576-0.683,3.049-1.104,3.049-3.259c0-1.734-0.788-2.838-2.681-2.838c-2.366,0-3.049,1.419-3.101,3.89
			H204.205z M214.087,59.112c1.787,0,3.416-1.051,3.416-3.889c0-2.365,0.053-3.837,0.053-4.993
			c-2.681,1.419-3.837,1.471-4.625,2.103c-0.895,0.683-1.314,1.576-1.314,3.153C211.616,57.746,212.509,59.112,214.087,59.112z"/>
		<path fill="#004889" d="M228.644,44.554c0.053-3.89,1.209-6.254,3.206-7.621c1.998-1.367,4.415-1.84,7.937-1.84
			c6.991,0,10.091,2.418,10.091,8.41v14.612c0,2.154,0,4.889,0.999,6.149h-8.199c-0.315-0.998-0.42-2.154-0.474-3.259h-0.105
			c-1.156,2.522-3.837,3.995-6.674,3.995c-4.783,0-7.569-2.523-7.569-8.673c0-3.312,1.366-6.097,3.469-7.253
			s5.257-1.683,7.621-2.313c2.576-0.683,3.049-1.104,3.049-3.259c0-1.734-0.788-2.838-2.681-2.838c-2.365,0-3.049,1.419-3.101,3.89
			H228.644z M238.525,59.112c1.786,0,3.416-1.051,3.416-3.889c0-2.365,0.053-3.837,0.053-4.993
			c-2.681,1.419-3.837,1.471-4.625,2.103c-0.895,0.683-1.314,1.576-1.314,3.153C236.055,57.746,236.948,59.112,238.525,59.112z"/>
		<path fill="#004889" d="M260.913,52.806v1.313c0,2.839,0.789,4.993,3.837,4.993c3.102,0,3.995-2.313,3.995-4.467
			c0-8.094-16.136-3.574-16.136-17.608c0-5.992,3.206-11.038,12.299-11.038c8.83,0,11.984,4.467,11.984,10.25v0.894h-8.516
			c0-1.788-0.21-3.101-0.736-3.942c-0.524-0.894-1.366-1.314-2.68-1.314c-2.207,0-3.521,1.314-3.521,4.047
			c0,7.832,16.136,3.89,16.136,17.136c0,8.514-4.729,11.931-12.825,11.931c-6.411,0-12.351-1.945-12.351-9.776v-2.418H260.913z"/>
		<path fill="#004889" d="M288.82,26h7.148l-11.984,39h-7.147L288.82,26z"/>
		<path fill="#008BD5" d="M303.64,26.736h21.708v7.147h-12.877V41.4h12.089v7.148h-12.089v8.568h13.455v7.147H303.64V26.736z"/>
		<path fill="#008BD5" d="M328.236,35.829h8.199v3.364h0.105c1.209-2.522,3.679-4.1,6.832-4.1c4.836,0,7.411,2.418,7.411,7.885
			v21.286h-8.515V44.869c0-2.049-0.894-3.259-2.47-3.259c-1.63,0-3.049,1.262-3.049,4.047v18.606h-8.515V35.829z"/>
		<path fill="#008BD5" d="M361.872,52.806v1.313c0,2.839,0.789,4.993,3.837,4.993c3.102,0,3.995-2.313,3.995-4.467
			c0-8.094-16.136-3.574-16.136-17.608c0-5.992,3.206-11.038,12.299-11.038c8.83,0,11.984,4.467,11.984,10.25v0.894h-8.516
			c0-1.788-0.21-3.101-0.736-3.942c-0.524-0.894-1.366-1.314-2.68-1.314c-2.207,0-3.521,1.314-3.521,4.047
			c0,7.832,16.137,3.89,16.137,17.136c0,8.514-4.73,11.931-12.826,11.931c-6.411,0-12.351-1.945-12.351-9.776v-2.418H361.872z"/>
		<path fill="#008BD5" d="M380.948,44.554c0.054-3.89,1.21-6.254,3.206-7.621c1.998-1.367,4.415-1.84,7.938-1.84
			c6.99,0,10.092,2.418,10.092,8.41v14.612c0,2.154,0,4.889,0.998,6.149h-8.199c-0.315-0.998-0.42-2.154-0.474-3.259h-0.104
			c-1.156,2.522-3.837,3.995-6.675,3.995c-4.783,0-7.569-2.523-7.569-8.673c0-3.312,1.367-6.097,3.469-7.253
			c2.103-1.156,5.257-1.683,7.621-2.313c2.576-0.683,3.049-1.104,3.049-3.259c0-1.734-0.788-2.838-2.681-2.838
			c-2.365,0-3.049,1.419-3.101,3.89H380.948z M390.83,59.112c1.787,0,3.416-1.051,3.416-3.889c0-2.365,0.053-3.837,0.053-4.993
			c-2.681,1.419-3.837,1.471-4.625,2.103c-0.895,0.683-1.314,1.576-1.314,3.153C388.359,57.746,389.253,59.112,390.83,59.112z"/>
		<path fill="#008BD5" d="M405.912,44.554c0.053-3.89,1.209-6.254,3.206-7.621c1.997-1.367,4.415-1.84,7.937-1.84
			c6.991,0,10.092,2.418,10.092,8.41v14.612c0,2.154,0,4.889,0.999,6.149h-8.199c-0.315-0.998-0.421-2.154-0.474-3.259h-0.104
			c-1.156,2.522-3.837,3.995-6.675,3.995c-4.783,0-7.569-2.523-7.569-8.673c0-3.312,1.366-6.097,3.469-7.253
			s5.257-1.683,7.621-2.313c2.576-0.683,3.049-1.104,3.049-3.259c0-1.734-0.788-2.838-2.681-2.838c-2.365,0-3.049,1.419-3.101,3.89
			H405.912z M415.794,59.112c1.786,0,3.416-1.051,3.416-3.889c0-2.365,0.053-3.837,0.053-4.993
			c-2.681,1.419-3.837,1.471-4.625,2.103c-0.895,0.683-1.314,1.576-1.314,3.153C413.323,57.746,414.217,59.112,415.794,59.112z"/>
		<path fill="#008BD5" d="M438.708,52.806v1.313c0,2.839,0.789,4.993,3.837,4.993c3.102,0,3.995-2.313,3.995-4.467
			c0-8.094-16.136-3.574-16.136-17.608c0-5.992,3.205-11.038,12.299-11.038c8.83,0,11.984,4.467,11.984,10.25v0.894h-8.516
			c0-1.788-0.21-3.101-0.736-3.942c-0.525-0.894-1.366-1.314-2.68-1.314c-2.207,0-3.521,1.314-3.521,4.047
			c0,7.832,16.136,3.89,16.136,17.136c0,8.514-4.73,11.931-12.825,11.931c-6.412,0-12.352-1.945-12.352-9.776v-2.418H438.708z"/>
	</g>
</g>
<g>
	<path fill="#79849A" d="M152.829,102.005V76.977h4.985l5.924,17.721c0.546,1.65,0.944,2.885,1.195,3.705
		c0.285-0.911,0.729-2.248,1.332-4.012l5.992-17.414h4.456v25.028h-3.193V81.057l-7.272,20.948h-2.988l-7.239-21.307v21.307H152.829
		z"/>
	<path fill="#79849A" d="M193.496,99.769c-1.139,0.967-2.234,1.65-3.287,2.048c-1.053,0.398-2.183,0.598-3.389,0.598
		c-1.992,0-3.522-0.486-4.592-1.459s-1.605-2.217-1.605-3.73c0-0.888,0.202-1.699,0.606-2.433c0.404-0.734,0.933-1.323,1.587-1.767
		s1.392-0.78,2.211-1.007c0.603-0.159,1.514-0.313,2.731-0.461c2.481-0.296,4.308-0.649,5.48-1.059
		c0.011-0.421,0.017-0.688,0.017-0.802c0-1.252-0.29-2.134-0.871-2.646c-0.786-0.694-1.952-1.042-3.5-1.042
		c-1.445,0-2.513,0.253-3.201,0.76c-0.688,0.507-1.198,1.403-1.528,2.689l-3.005-0.41c0.273-1.286,0.723-2.325,1.349-3.116
		s1.531-1.4,2.715-1.827c1.184-0.427,2.555-0.64,4.114-0.64c1.548,0,2.806,0.182,3.773,0.546c0.967,0.365,1.679,0.823,2.134,1.375
		c0.455,0.552,0.774,1.25,0.956,2.091c0.103,0.524,0.154,1.468,0.154,2.834v4.098c0,2.857,0.065,4.664,0.196,5.42
		c0.13,0.757,0.39,1.482,0.777,2.177h-3.21C193.791,101.368,193.586,100.622,193.496,99.769z M193.239,92.905
		c-1.116,0.456-2.789,0.842-5.019,1.161c-1.264,0.182-2.157,0.387-2.681,0.614c-0.523,0.228-0.928,0.561-1.212,0.999
		c-0.285,0.438-0.427,0.925-0.427,1.459c0,0.819,0.31,1.502,0.93,2.049c0.62,0.546,1.528,0.819,2.723,0.819
		c1.184,0,2.236-0.259,3.158-0.777c0.922-0.518,1.599-1.226,2.032-2.125c0.33-0.694,0.495-1.718,0.495-3.073V92.905z"/>
	<path fill="#79849A" d="M201.11,102.005V83.874h2.766v2.578c1.332-1.991,3.255-2.987,5.771-2.987c1.093,0,2.097,0.196,3.014,0.589
		c0.916,0.393,1.602,0.908,2.057,1.545c0.455,0.638,0.774,1.395,0.956,2.271c0.114,0.569,0.171,1.565,0.171,2.988v11.148h-3.073
		V90.976c0-1.252-0.12-2.188-0.358-2.809c-0.239-0.62-0.663-1.115-1.272-1.485c-0.609-0.37-1.323-0.555-2.143-0.555
		c-1.309,0-2.439,0.416-3.389,1.246c-0.95,0.831-1.425,2.407-1.425,4.729v9.902H201.11z"/>
	<path fill="#79849A" d="M232.387,99.769c-1.139,0.967-2.234,1.65-3.287,2.048c-1.053,0.398-2.183,0.598-3.389,0.598
		c-1.992,0-3.522-0.486-4.592-1.459s-1.605-2.217-1.605-3.73c0-0.888,0.202-1.699,0.606-2.433c0.404-0.734,0.933-1.323,1.587-1.767
		s1.392-0.78,2.211-1.007c0.603-0.159,1.514-0.313,2.731-0.461c2.481-0.296,4.308-0.649,5.48-1.059
		c0.011-0.421,0.017-0.688,0.017-0.802c0-1.252-0.29-2.134-0.871-2.646c-0.786-0.694-1.952-1.042-3.5-1.042
		c-1.445,0-2.513,0.253-3.201,0.76c-0.688,0.507-1.198,1.403-1.528,2.689l-3.005-0.41c0.273-1.286,0.723-2.325,1.349-3.116
		s1.531-1.4,2.715-1.827c1.184-0.427,2.555-0.64,4.114-0.64c1.548,0,2.806,0.182,3.773,0.546c0.967,0.365,1.679,0.823,2.134,1.375
		c0.455,0.552,0.774,1.25,0.956,2.091c0.103,0.524,0.154,1.468,0.154,2.834v4.098c0,2.857,0.065,4.664,0.196,5.42
		c0.13,0.757,0.39,1.482,0.777,2.177h-3.21C232.682,101.368,232.478,100.622,232.387,99.769z M232.13,92.905
		c-1.116,0.456-2.789,0.842-5.019,1.161c-1.264,0.182-2.157,0.387-2.681,0.614c-0.523,0.228-0.928,0.561-1.212,0.999
		c-0.285,0.438-0.427,0.925-0.427,1.459c0,0.819,0.31,1.502,0.93,2.049c0.62,0.546,1.528,0.819,2.723,0.819
		c1.184,0,2.236-0.259,3.158-0.777c0.922-0.518,1.599-1.226,2.032-2.125c0.33-0.694,0.495-1.718,0.495-3.073V92.905z"/>
	<path fill="#79849A" d="M239.438,103.507l2.988,0.444c0.125,0.922,0.472,1.593,1.042,2.015c0.762,0.569,1.804,0.854,3.124,0.854
		c1.423,0,2.521-0.285,3.295-0.854c0.773-0.569,1.297-1.366,1.57-2.39c0.159-0.626,0.233-1.94,0.222-3.944
		c-1.343,1.582-3.016,2.373-5.02,2.373c-2.492,0-4.421-0.899-5.788-2.697c-1.366-1.798-2.048-3.955-2.048-6.471
		c0-1.73,0.313-3.326,0.939-4.789c0.625-1.462,1.533-2.592,2.723-3.389c1.189-0.796,2.586-1.195,4.191-1.195
		c2.14,0,3.904,0.865,5.292,2.595v-2.185h2.834v15.672c0,2.823-0.288,4.823-0.862,6.001c-0.575,1.178-1.485,2.108-2.732,2.792
		c-1.246,0.683-2.78,1.024-4.601,1.024c-2.163,0-3.909-0.487-5.241-1.46C240.035,106.93,239.392,105.465,239.438,103.507z
		 M241.981,92.615c0,2.379,0.472,4.114,1.417,5.207c0.945,1.092,2.128,1.639,3.551,1.639c1.411,0,2.595-0.543,3.551-1.63
		s1.434-2.791,1.434-5.113c0-2.219-0.492-3.893-1.477-5.019c-0.985-1.127-2.171-1.69-3.56-1.69c-1.366,0-2.527,0.555-3.483,1.665
		C242.459,88.782,241.981,90.43,241.981,92.615z"/>
	<path fill="#79849A" d="M271.858,96.166l3.176,0.393c-0.501,1.855-1.429,3.295-2.783,4.319c-1.355,1.024-3.085,1.537-5.19,1.537
		c-2.652,0-4.754-0.816-6.308-2.45s-2.331-3.924-2.331-6.872c0-3.05,0.786-5.418,2.356-7.103c1.571-1.684,3.608-2.526,6.112-2.526
		c2.424,0,4.405,0.825,5.941,2.475c1.537,1.651,2.305,3.973,2.305,6.966c0,0.182-0.006,0.456-0.017,0.819h-13.521
		c0.113,1.992,0.677,3.517,1.69,4.576s2.276,1.587,3.79,1.587c1.127,0,2.088-0.295,2.885-0.888
		C270.76,98.409,271.391,97.463,271.858,96.166z M261.768,91.198h10.124c-0.136-1.525-0.523-2.669-1.161-3.432
		c-0.979-1.184-2.248-1.776-3.807-1.776c-1.412,0-2.598,0.473-3.56,1.417C262.403,88.353,261.871,89.616,261.768,91.198z"/>
	<path fill="#79849A" d="M278.892,102.005V83.874h2.749v2.543c0.569-0.888,1.326-1.602,2.271-2.143
		c0.944-0.54,2.02-0.811,3.227-0.811c1.343,0,2.444,0.279,3.304,0.836c0.859,0.558,1.465,1.337,1.818,2.339
		c1.434-2.117,3.301-3.175,5.6-3.175c1.798,0,3.181,0.498,4.148,1.494c0.967,0.996,1.451,2.53,1.451,4.601v12.446h-3.056V90.583
		c0-1.229-0.1-2.114-0.298-2.655c-0.2-0.541-0.561-0.976-1.084-1.306s-1.138-0.495-1.844-0.495c-1.275,0-2.333,0.424-3.175,1.272
		c-0.843,0.848-1.264,2.205-1.264,4.072v10.534h-3.073v-11.78c0-1.366-0.25-2.39-0.751-3.073s-1.32-1.024-2.458-1.024
		c-0.865,0-1.665,0.228-2.398,0.683c-0.734,0.455-1.266,1.121-1.596,1.997c-0.331,0.877-0.495,2.14-0.495,3.791v9.407H278.892z"/>
	<path fill="#79849A" d="M320.429,96.166l3.176,0.393c-0.501,1.855-1.429,3.295-2.783,4.319c-1.355,1.024-3.085,1.537-5.19,1.537
		c-2.652,0-4.754-0.816-6.308-2.45s-2.331-3.924-2.331-6.872c0-3.05,0.786-5.418,2.356-7.103c1.571-1.684,3.608-2.526,6.112-2.526
		c2.424,0,4.405,0.825,5.941,2.475c1.537,1.651,2.305,3.973,2.305,6.966c0,0.182-0.006,0.456-0.017,0.819h-13.521
		c0.113,1.992,0.677,3.517,1.69,4.576s2.276,1.587,3.79,1.587c1.127,0,2.088-0.295,2.885-0.888
		C319.331,98.409,319.962,97.463,320.429,96.166z M310.339,91.198h10.124c-0.136-1.525-0.523-2.669-1.161-3.432
		c-0.979-1.184-2.248-1.776-3.807-1.776c-1.412,0-2.598,0.473-3.56,1.417C310.974,88.353,310.442,89.616,310.339,91.198z"/>
	<path fill="#79849A" d="M327.463,102.005V83.874h2.766v2.578c1.332-1.991,3.255-2.987,5.771-2.987c1.093,0,2.097,0.196,3.014,0.589
		c0.916,0.393,1.602,0.908,2.057,1.545c0.455,0.638,0.774,1.395,0.956,2.271c0.114,0.569,0.171,1.565,0.171,2.988v11.148h-3.073
		V90.976c0-1.252-0.12-2.188-0.358-2.809c-0.239-0.62-0.663-1.115-1.272-1.485c-0.609-0.37-1.323-0.555-2.143-0.555
		c-1.309,0-2.439,0.416-3.389,1.246c-0.95,0.831-1.425,2.407-1.425,4.729v9.902H327.463z"/>
	<path fill="#79849A" d="M353.618,99.256l0.444,2.714c-0.865,0.182-1.639,0.273-2.322,0.273c-1.116,0-1.98-0.177-2.595-0.529
		c-0.615-0.353-1.047-0.817-1.298-1.392s-0.375-1.784-0.375-3.628V86.264h-2.253v-2.39h2.253v-4.49l3.056-1.844v6.334h3.09v2.39
		h-3.09v10.602c0,0.876,0.054,1.44,0.162,1.69c0.108,0.25,0.284,0.45,0.529,0.598c0.245,0.148,0.594,0.222,1.05,0.222
		C352.611,99.375,353.061,99.336,353.618,99.256z"/>
	<path fill="#79849A" d="M366.729,102.005V76.977h9.441c1.662,0,2.931,0.08,3.807,0.239c1.229,0.205,2.259,0.595,3.09,1.169
		c0.831,0.575,1.5,1.38,2.006,2.416c0.506,1.036,0.76,2.174,0.76,3.415c0,2.128-0.678,3.93-2.032,5.403
		c-1.354,1.474-3.802,2.211-7.341,2.211h-6.419v10.175H366.729z M370.042,88.876h6.471c2.14,0,3.659-0.398,4.559-1.195
		c0.899-0.796,1.349-1.918,1.349-3.363c0-1.047-0.265-1.943-0.794-2.689c-0.529-0.745-1.227-1.238-2.091-1.477
		c-0.558-0.148-1.588-0.222-3.09-0.222h-6.402V88.876z"/>
	<path fill="#79849A" d="M388.515,92.939c0-3.357,0.933-5.844,2.8-7.461c1.559-1.343,3.46-2.014,5.702-2.014
		c2.493,0,4.53,0.816,6.112,2.45s2.373,3.89,2.373,6.769c0,2.333-0.35,4.169-1.05,5.506c-0.7,1.338-1.719,2.376-3.056,3.116
		c-1.337,0.74-2.797,1.11-4.379,1.11c-2.538,0-4.59-0.813-6.155-2.441C389.297,98.346,388.515,96.001,388.515,92.939z
		 M391.673,92.939c0,2.322,0.506,4.061,1.52,5.216c1.013,1.155,2.288,1.732,3.824,1.732c1.525,0,2.794-0.58,3.807-1.741
		c1.013-1.161,1.52-2.931,1.52-5.31c0-2.242-0.51-3.941-1.528-5.096c-1.019-1.155-2.285-1.733-3.798-1.733
		c-1.537,0-2.812,0.575-3.824,1.725C392.179,88.882,391.673,90.618,391.673,92.939z"/>
	<path fill="#79849A" d="M409.069,102.005V83.874h2.766v2.749c0.706-1.286,1.357-2.134,1.955-2.544s1.255-0.614,1.972-0.614
		c1.036,0,2.088,0.33,3.159,0.99l-1.059,2.851c-0.751-0.444-1.502-0.666-2.253-0.666c-0.672,0-1.275,0.202-1.81,0.606
		c-0.535,0.404-0.916,0.965-1.144,1.682c-0.341,1.093-0.512,2.288-0.512,3.585v9.492H409.069z"/>
	<path fill="#79849A" d="M427.457,99.256l0.444,2.714c-0.865,0.182-1.639,0.273-2.322,0.273c-1.116,0-1.98-0.177-2.595-0.529
		c-0.615-0.353-1.047-0.817-1.298-1.392s-0.375-1.784-0.375-3.628V86.264h-2.253v-2.39h2.253v-4.49l3.056-1.844v6.334h3.09v2.39
		h-3.09v10.602c0,0.876,0.054,1.44,0.162,1.69c0.108,0.25,0.284,0.45,0.529,0.598c0.245,0.148,0.594,0.222,1.05,0.222
		C426.449,99.375,426.899,99.336,427.457,99.256z"/>
	<path fill="#79849A" d="M442.293,99.769c-1.139,0.967-2.234,1.65-3.287,2.048c-1.053,0.398-2.183,0.598-3.389,0.598
		c-1.992,0-3.522-0.486-4.592-1.459s-1.605-2.217-1.605-3.73c0-0.888,0.202-1.699,0.606-2.433c0.404-0.734,0.933-1.323,1.587-1.767
		s1.392-0.78,2.211-1.007c0.603-0.159,1.514-0.313,2.731-0.461c2.481-0.296,4.308-0.649,5.48-1.059
		c0.011-0.421,0.017-0.688,0.017-0.802c0-1.252-0.29-2.134-0.871-2.646c-0.786-0.694-1.952-1.042-3.5-1.042
		c-1.445,0-2.513,0.253-3.201,0.76c-0.688,0.507-1.198,1.403-1.528,2.689l-3.005-0.41c0.273-1.286,0.723-2.325,1.349-3.116
		s1.531-1.4,2.715-1.827c1.184-0.427,2.555-0.64,4.114-0.64c1.548,0,2.806,0.182,3.773,0.546c0.967,0.365,1.679,0.823,2.134,1.375
		c0.455,0.552,0.774,1.25,0.956,2.091c0.103,0.524,0.154,1.468,0.154,2.834v4.098c0,2.857,0.065,4.664,0.196,5.42
		c0.13,0.757,0.39,1.482,0.777,2.177h-3.21C442.588,101.368,442.384,100.622,442.293,99.769z M442.037,92.905
		c-1.116,0.456-2.789,0.842-5.019,1.161c-1.264,0.182-2.157,0.387-2.681,0.614c-0.523,0.228-0.928,0.561-1.212,0.999
		c-0.285,0.438-0.427,0.925-0.427,1.459c0,0.819,0.31,1.502,0.93,2.049c0.62,0.546,1.528,0.819,2.723,0.819
		c1.184,0,2.236-0.259,3.158-0.777c0.922-0.518,1.599-1.226,2.032-2.125c0.33-0.694,0.495-1.718,0.495-3.073V92.905z"/>
	<path fill="#79849A" d="M449.838,102.005V76.977h3.073v25.028H449.838z"/>
</g>
</svg>
