<?xml version="1.0" encoding="utf-8"?>
<!-- Generator: Adobe Illustrator 16.0.0, SVG Export Plug-In . SVG Version: 6.00 Build 0)  -->
<!DOCTYPE svg PUBLIC "-//W3C//DTD SVG 1.1//EN" "http://www.w3.org/Graphics/SVG/1.1/DTD/svg11.dtd">
<svg version="1.1" id="圖層_1" xmlns="http://www.w3.org/2000/svg" xmlns:xlink="http://www.w3.org/1999/xlink" x="0px" y="0px"
	 width="512px" height="128px" viewBox="0 0 512 128" enable-background="new 0 0 512 128" xml:space="preserve">
<path fill="none" d="M256,64"/>
<g>
	<path fill="none" d="M193.361,51.757"/>
	<path fill="#004889" d="M25.939,26.736h8.83l3.258,26.7h0.105l3.891-26.7h8.199l4.205,26.7h0.104l3.154-26.7h8.516l-6.52,37.527
		h-9.775L46.07,37.616h-0.105l-3.627,26.647h-9.775L25.939,26.736z"/>
	<path fill="#004889" d="M67.563,26.736h8.83v37.527h-8.83V26.736z"/>
	<path fill="#004889" d="M87.482,52.806v1.313c0,2.839,0.789,4.994,3.836,4.994c3.104,0,3.996-2.313,3.996-4.467
		c0-8.094-16.137-3.574-16.137-17.608C79.178,31.045,82.385,26,91.477,26c8.83,0,11.984,4.467,11.984,10.25v0.894h-8.516
		c0-1.788-0.209-3.101-0.734-3.942c-0.525-0.894-1.367-1.314-2.682-1.314c-2.207,0-3.521,1.314-3.521,4.047
		c0,7.832,16.137,3.89,16.137,17.135c0,8.514-4.73,11.931-12.826,11.931c-6.41,0-12.35-1.945-12.35-9.776v-2.418H87.482z"/>
	<path fill="#004889" d="M106.559,26.736h21.707v7.147h-12.877V41.4h12.09v7.148h-12.09v8.568h13.455v7.147h-22.285V26.736z"/>
	<path fill="#004889" d="M130.051,45.5h15.873v7.148h-15.873V45.5z"/>
	<path fill="#004889" d="M148.602,26.736h13.666c9.303,0,11.09,6.728,11.09,11.405c0,6.728-3.205,11.458-12.035,11.458h-3.891
		v14.665h-8.83V26.736z M157.432,43.083h2.418c3.521,0,4.363-2.208,4.363-4.731c0-2.891-0.947-5.098-4.52-5.098h-2.262V43.083z"/>
	<path fill="#004889" d="M173.514,44.554c0.053-3.89,1.211-6.254,3.207-7.621c1.996-1.367,4.414-1.84,7.938-1.84
		c6.99,0,10.09,2.418,10.09,8.41v14.612c0,2.155,0,4.888,1,6.149h-8.199c-0.316-0.998-0.422-2.154-0.475-3.259h-0.104
		c-1.156,2.523-3.838,3.995-6.676,3.995c-4.783,0-7.568-2.523-7.568-8.673c0-3.311,1.365-6.096,3.469-7.253
		c2.102-1.156,5.256-1.682,7.621-2.313c2.576-0.683,3.049-1.104,3.049-3.259c0-1.734-0.789-2.838-2.682-2.838
		c-2.365,0-3.049,1.419-3.1,3.89H173.514z M183.396,59.113c1.785,0,3.416-1.051,3.416-3.889c0-2.366,0.053-3.837,0.053-4.993
		c-2.682,1.419-3.838,1.471-4.625,2.103c-0.895,0.683-1.314,1.576-1.314,3.153C180.926,57.746,181.818,59.113,183.396,59.113z"/>
	<path fill="#004889" d="M197.953,44.554c0.053-3.89,1.209-6.254,3.205-7.621c1.998-1.367,4.416-1.84,7.938-1.84
		c6.99,0,10.092,2.418,10.092,8.41v14.612c0,2.155,0,4.888,0.998,6.149h-8.199c-0.314-0.998-0.42-2.154-0.473-3.259h-0.105
		c-1.156,2.523-3.836,3.995-6.674,3.995c-4.783,0-7.57-2.523-7.57-8.673c0-3.311,1.367-6.096,3.469-7.253
		c2.104-1.156,5.258-1.682,7.621-2.313c2.576-0.683,3.049-1.104,3.049-3.259c0-1.734-0.787-2.838-2.68-2.838
		c-2.365,0-3.049,1.419-3.102,3.89H197.953z M207.834,59.113c1.787,0,3.416-1.051,3.416-3.889c0-2.366,0.053-3.837,0.053-4.993
		c-2.68,1.419-3.836,1.471-4.625,2.103c-0.895,0.683-1.314,1.576-1.314,3.153C205.363,57.746,206.258,59.113,207.834,59.113z"/>
	<path fill="#004889" d="M230.221,52.806v1.313c0,2.839,0.789,4.994,3.838,4.994c3.102,0,3.994-2.313,3.994-4.467
		c0-8.094-16.135-3.574-16.135-17.608c0-5.992,3.205-11.038,12.299-11.038c8.83,0,11.984,4.467,11.984,10.25v0.894h-8.516
		c0-1.788-0.211-3.101-0.736-3.942c-0.525-0.894-1.367-1.314-2.68-1.314c-2.207,0-3.521,1.314-3.521,4.047
		c0,7.832,16.137,3.89,16.137,17.135c0,8.514-4.73,11.931-12.826,11.931c-6.412,0-12.352-1.945-12.352-9.776v-2.418H230.221z"/>
	<path fill="#004889" d="M258.129,26h7.148l-11.984,39h-7.148L258.129,26z"/>
	<path fill="#008BD5" d="M267.691,26.736h13.088c8.725,0,12.457,4.52,12.457,17.554c0,13.614-1.734,19.973-13.35,19.973h-12.195
		V26.736z M276.521,57.746h2.365c4.102,0,5.52-1.629,5.52-12.877c0-9.145-0.736-11.616-5.414-11.616h-2.471V57.746z"/>
	<path fill="#008BD5" d="M296.02,44.554c0.053-3.89,1.209-6.254,3.205-7.621c1.998-1.367,4.416-1.84,7.938-1.84
		c6.99,0,10.092,2.418,10.092,8.41v14.612c0,2.155,0,4.888,0.998,6.149h-8.199c-0.314-0.998-0.42-2.154-0.473-3.259h-0.105
		c-1.156,2.523-3.836,3.995-6.674,3.995c-4.783,0-7.57-2.523-7.57-8.673c0-3.311,1.367-6.096,3.469-7.253
		c2.104-1.156,5.258-1.682,7.621-2.313c2.576-0.683,3.049-1.104,3.049-3.259c0-1.734-0.787-2.838-2.68-2.838
		c-2.365,0-3.049,1.419-3.102,3.89H296.02z M305.9,59.113c1.787,0,3.416-1.051,3.416-3.889c0-2.366,0.053-3.837,0.053-4.993
		c-2.68,1.419-3.836,1.471-4.625,2.103c-0.895,0.683-1.314,1.576-1.314,3.153C303.43,57.746,304.324,59.113,305.9,59.113z"/>
	<path fill="#008BD5" d="M327.658,55.224c0.053,1.261,0.158,2.365,0.578,3.206c0.473,0.789,1.262,1.314,2.629,1.314
		c1.996,0,3.047-1.261,3.047-2.891c0-1.314-0.629-2.576-3.258-3.469c-6.99-2.365-10.354-3.732-10.354-9.723
		c0-5.677,3.994-8.568,10.826-8.568c7.99,0,10.303,3.89,10.303,7.99v0.945h-7.568v-0.525c0-2.471-1-3.154-2.787-3.154
		c-2.26,0-2.891,1.104-2.891,2.629c0,5.045,13.613,1.681,13.613,12.719c0,5.729-3.836,9.303-10.881,9.303
		c-7.621,0-10.826-2.839-10.826-8.515v-1.261H327.658z"/>
	<path fill="#008BD5" d="M344.16,26.736h8.514v12.193h0.105c1.367-2.786,3.627-3.837,6.518-3.837c4.836,0,7.412,2.418,7.412,7.885
		v21.286h-8.516V44.869c0-2.049-0.895-3.259-2.471-3.259c-1.629,0-3.049,1.262-3.049,4.047v18.606h-8.514V26.736z"/>
	<path fill="#008BD5" d="M370.123,26.736h8.514v12.193h0.105c1.418-3.048,3.994-3.837,6.359-3.837c6.99,0,8.252,6.361,8.252,15.191
		c0,10.617-3.049,14.717-8.777,14.717c-3.783,0-5.52-2.261-6.15-4.205h-0.104v3.469h-8.199V26.736z M381.527,58.797
		c3.207,0,3.313-4.362,3.313-8.935c0-5.15-0.158-8.567-3.26-8.567c-2.891,0-3.102,3.889-3.102,8.936
		C378.479,55.749,379.004,58.797,381.527,58.797z"/>
	<path fill="#008BD5" d="M395.139,50.125c0-8.515,1.891-15.033,11.721-15.033c10.406,0,11.721,6.361,11.721,14.875
		c0,8.515-1.893,15.033-11.721,15.033C396.451,65,395.139,58.64,395.139,50.125z M406.91,40.664c-2.521,0-3.258,2.47-3.258,9.356
		c0,6.938,0.736,9.409,3.258,9.409c2.629,0,3.154-2.366,3.154-9.356C410.064,43.029,409.539,40.664,406.91,40.664z"/>
	<path fill="#008BD5" d="M420.891,44.554c0.053-3.89,1.209-6.254,3.205-7.621c1.998-1.367,4.416-1.84,7.938-1.84
		c6.99,0,10.092,2.418,10.092,8.41v14.612c0,2.155,0,4.888,0.998,6.149h-8.199c-0.314-0.998-0.42-2.154-0.473-3.259h-0.105
		C433.189,63.528,430.508,65,427.67,65c-4.783,0-7.568-2.523-7.568-8.673c0-3.311,1.367-6.096,3.469-7.253
		c2.104-1.156,5.256-1.682,7.621-2.313c2.576-0.683,3.049-1.104,3.049-3.259c0-1.734-0.787-2.838-2.68-2.838
		c-2.367,0-3.049,1.419-3.102,3.89H420.891z M430.771,59.113c1.787,0,3.416-1.051,3.416-3.889c0-2.366,0.053-3.837,0.053-4.993
		c-2.68,1.419-3.836,1.471-4.625,2.103c-0.895,0.683-1.314,1.576-1.314,3.153C428.301,57.746,429.193,59.113,430.771,59.113z"/>
	<path fill="#008BD5" d="M446.012,35.829h8.199v3.995h0.105c1.104-2.524,3.258-4.731,6.832-4.731c0.42,0,0.842,0,1.367,0.106v7.989
		c-0.842-0.158-1.525-0.21-2.365-0.21c-3.416,0-5.625,1.418-5.625,5.15v16.136h-8.514V35.829z"/>
	<path fill="#008BD5" d="M477.861,60.795h-0.104c-0.633,1.944-2.367,4.205-6.15,4.205c-5.729,0-8.777-4.1-8.777-14.717
		c0-8.83,1.262-15.191,8.252-15.191c2.365,0,4.941,0.789,6.359,3.837h0.105V26.736h8.514v37.527h-8.199V60.795z M474.604,41.295
		c-3.102,0-3.26,3.417-3.26,8.567c0,4.573,0.105,8.935,3.313,8.935c2.523,0,3.047-3.049,3.047-8.567
		C477.703,45.184,477.494,41.295,474.604,41.295z"/>
</g>
<g>
	<path fill="#79849A" d="M222.137,80.511v-3.534h3.074v3.534H222.137z M222.137,102.005V83.874h3.074v18.131H222.137z"/>
	<path fill="#79849A" d="M229.889,102.005V83.874h2.766v2.577c1.332-1.99,3.255-2.986,5.77-2.986c1.094,0,2.098,0.195,3.014,0.588
		s1.602,0.908,2.058,1.545c0.455,0.639,0.774,1.395,0.956,2.271c0.113,0.568,0.171,1.564,0.171,2.987v11.148h-3.073V90.977
		c0-1.252-0.119-2.188-0.358-2.809c-0.239-0.621-0.663-1.115-1.272-1.486c-0.608-0.369-1.322-0.555-2.143-0.555
		c-1.309,0-2.438,0.416-3.389,1.246c-0.95,0.832-1.426,2.408-1.426,4.73v9.901H229.889z"/>
	<path fill="#79849A" d="M261.097,102.005v-2.288c-1.149,1.799-2.84,2.697-5.071,2.697c-1.445,0-2.773-0.398-3.986-1.194
		c-1.211-0.797-2.15-1.909-2.816-3.338s-0.998-3.069-0.998-4.925c0-1.811,0.301-3.451,0.904-4.926s1.508-2.604,2.715-3.389
		c1.205-0.785,2.555-1.178,4.046-1.178c1.093,0,2.065,0.23,2.919,0.691s1.548,1.061,2.083,1.801v-8.98h3.056v25.028H261.097z
		 M251.383,92.957c0,2.321,0.488,4.057,1.468,5.207c0.979,1.149,2.134,1.724,3.466,1.724c1.343,0,2.484-0.549,3.423-1.647
		c0.938-1.098,1.409-2.773,1.409-5.027c0-2.481-0.479-4.303-1.435-5.463c-0.956-1.162-2.134-1.742-3.534-1.742
		c-1.365,0-2.507,0.559-3.423,1.674C251.84,88.797,251.383,90.555,251.383,92.957z"/>
	<path fill="#79849A" d="M267.636,92.939c0-3.357,0.933-5.844,2.8-7.461c1.559-1.343,3.46-2.014,5.702-2.014
		c2.493,0,4.53,0.816,6.112,2.449s2.373,3.89,2.373,6.77c0,2.333-0.351,4.168-1.051,5.506c-0.699,1.338-1.719,2.376-3.056,3.115
		c-1.337,0.74-2.797,1.109-4.379,1.109c-2.538,0-4.59-0.813-6.155-2.441C268.418,98.346,267.636,96.002,267.636,92.939z
		 M270.794,92.939c0,2.322,0.507,4.061,1.52,5.216s2.288,1.732,3.824,1.732c1.524,0,2.794-0.58,3.808-1.741
		c1.012-1.161,1.52-2.931,1.52-5.31c0-2.242-0.51-3.94-1.529-5.097c-1.018-1.154-2.284-1.732-3.798-1.732
		c-1.536,0-2.812,0.575-3.824,1.725S270.794,90.617,270.794,92.939z"/>
	<path fill="#79849A" d="M287.081,92.939c0-3.357,0.933-5.844,2.8-7.461c1.559-1.343,3.46-2.014,5.702-2.014
		c2.493,0,4.53,0.816,6.112,2.449s2.373,3.89,2.373,6.77c0,2.333-0.351,4.168-1.051,5.506c-0.699,1.338-1.719,2.376-3.056,3.115
		c-1.337,0.74-2.797,1.109-4.379,1.109c-2.538,0-4.59-0.813-6.155-2.441C287.863,98.346,287.081,96.002,287.081,92.939z
		 M290.239,92.939c0,2.322,0.507,4.061,1.52,5.216s2.288,1.732,3.824,1.732c1.524,0,2.794-0.58,3.808-1.741
		c1.012-1.161,1.52-2.931,1.52-5.31c0-2.242-0.51-3.94-1.529-5.097c-1.018-1.154-2.284-1.732-3.798-1.732
		c-1.536,0-2.812,0.575-3.824,1.725S290.239,90.617,290.239,92.939z"/>
	<path fill="#79849A" d="M307.637,102.005V83.874h2.766v2.749c0.705-1.287,1.357-2.135,1.955-2.545
		c0.598-0.409,1.254-0.613,1.971-0.613c1.036,0,2.089,0.33,3.159,0.99l-1.059,2.851c-0.751-0.444-1.503-0.666-2.253-0.666
		c-0.672,0-1.275,0.202-1.811,0.606s-0.916,0.965-1.144,1.682c-0.341,1.092-0.513,2.287-0.513,3.585v9.492H307.637z"/>
	<path fill="#79849A" d="M324.742,102.005l9.612-25.028h3.568l10.243,25.028h-3.773l-2.919-7.58h-10.466l-2.748,7.58H324.742z
		 M331.965,91.727h8.484l-2.611-6.931c-0.797-2.105-1.389-3.835-1.775-5.19c-0.319,1.605-0.77,3.199-1.35,4.781L331.965,91.727z"/>
	<path fill="#79849A" d="M350.438,80.511v-3.534h3.072v3.534H350.438z M350.438,102.005V83.874h3.072v18.131H350.438z"/>
	<path fill="#79849A" d="M358.153,102.005V83.874h2.767v2.749c0.705-1.287,1.356-2.135,1.954-2.545
		c0.598-0.409,1.255-0.613,1.972-0.613c1.035,0,2.088,0.33,3.158,0.99l-1.059,2.851c-0.75-0.444-1.502-0.666-2.253-0.666
		c-0.672,0-1.274,0.202-1.81,0.606s-0.916,0.965-1.145,1.682c-0.341,1.092-0.512,2.287-0.512,3.585v9.492H358.153z"/>
	<path fill="#79849A" d="M398.906,99.324c1.536,1.059,2.953,1.833,4.25,2.322l-0.973,2.305c-1.799-0.648-3.592-1.674-5.378-3.073
		c-1.854,1.036-3.903,1.554-6.146,1.554c-2.266,0-4.32-0.547-6.164-1.639c-1.844-1.093-3.264-2.629-4.26-4.609
		s-1.493-4.211-1.493-6.693c0-2.469,0.501-4.717,1.503-6.743c1.001-2.026,2.426-3.567,4.275-4.626s3.919-1.588,6.207-1.588
		c2.311,0,4.393,0.549,6.248,1.646c1.855,1.1,3.27,2.636,4.242,4.61c0.974,1.975,1.46,4.202,1.46,6.684
		c0,2.06-0.313,3.913-0.938,5.558C401.113,96.676,400.169,98.107,398.906,99.324z M391.615,95.09
		c1.912,0.535,3.488,1.332,4.729,2.391c1.946-1.775,2.919-4.444,2.919-8.007c0-2.026-0.344-3.796-1.032-5.31
		s-1.696-2.689-3.022-3.525s-2.814-1.255-4.464-1.255c-2.47,0-4.519,0.845-6.146,2.535c-1.629,1.69-2.441,4.214-2.441,7.571
		c0,3.256,0.805,5.754,2.415,7.495s3.668,2.612,6.172,2.612c1.184,0,2.299-0.223,3.347-0.666c-1.036-0.672-2.129-1.149-3.278-1.434
		L391.615,95.09z"/>
	<path fill="#79849A" d="M418.624,102.005v-2.663c-1.411,2.049-3.329,3.072-5.753,3.072c-1.07,0-2.068-0.204-2.996-0.614
		c-0.928-0.409-1.617-0.925-2.066-1.545s-0.766-1.38-0.947-2.279c-0.125-0.603-0.188-1.56-0.188-2.868V83.874h3.072V93.93
		c0,1.604,0.063,2.686,0.188,3.244c0.193,0.808,0.603,1.442,1.229,1.903c0.625,0.461,1.399,0.691,2.321,0.691
		s1.786-0.236,2.595-0.708c0.809-0.473,1.381-1.116,1.717-1.93c0.335-0.814,0.503-1.994,0.503-3.543v-9.714h3.073v18.131H418.624z"
		/>
	<path fill="#79849A" d="M438.02,99.769c-1.139,0.968-2.234,1.65-3.287,2.048c-1.053,0.398-2.183,0.598-3.389,0.598
		c-1.992,0-3.523-0.486-4.593-1.459s-1.604-2.217-1.604-3.73c0-0.888,0.201-1.699,0.605-2.433c0.404-0.734,0.934-1.323,1.588-1.767
		c0.654-0.444,1.392-0.78,2.211-1.008c0.604-0.159,1.514-0.313,2.731-0.461c2.481-0.296,4.308-0.648,5.48-1.059
		c0.011-0.421,0.017-0.688,0.017-0.803c0-1.252-0.289-2.134-0.87-2.646c-0.786-0.693-1.952-1.041-3.5-1.041
		c-1.445,0-2.513,0.254-3.201,0.76c-0.688,0.507-1.198,1.402-1.528,2.689l-3.004-0.41c0.273-1.286,0.723-2.324,1.348-3.115
		c0.627-0.791,1.531-1.4,2.715-1.827s2.555-0.64,4.115-0.64c1.547,0,2.805,0.182,3.772,0.545c0.968,0.365,1.679,0.823,2.134,1.375
		c0.455,0.553,0.774,1.25,0.957,2.092c0.102,0.523,0.153,1.468,0.153,2.834v4.098c0,2.856,0.065,4.663,0.196,5.42
		s0.39,1.482,0.777,2.177h-3.211C438.314,101.367,438.109,100.622,438.02,99.769z M437.763,92.905
		c-1.116,0.456-2.788,0.843-5.019,1.161c-1.264,0.182-2.158,0.387-2.682,0.614s-0.928,0.562-1.211,0.999
		c-0.285,0.438-0.428,0.925-0.428,1.459c0,0.82,0.311,1.503,0.931,2.049c0.62,0.547,1.528,0.82,2.724,0.82
		c1.184,0,2.236-0.26,3.158-0.777s1.599-1.227,2.031-2.125c0.33-0.694,0.495-1.719,0.495-3.073V92.905z"/>
	<path fill="#79849A" d="M445.564,102.005V76.977h3.073v25.028H445.564z"/>
	<path fill="#79849A" d="M453.418,80.511v-3.534h3.073v3.534H453.418z M453.418,102.005V83.874h3.073v18.131H453.418z"/>
	<path fill="#79849A" d="M467.879,99.256l0.443,2.715c-0.865,0.182-1.639,0.273-2.322,0.273c-1.115,0-1.98-0.177-2.594-0.529
		c-0.615-0.354-1.048-0.816-1.299-1.392c-0.25-0.575-0.375-1.784-0.375-3.628V86.264h-2.254v-2.39h2.254v-4.49l3.057-1.844v6.334
		h3.09v2.39h-3.09v10.603c0,0.876,0.053,1.44,0.162,1.69c0.107,0.25,0.283,0.449,0.529,0.598c0.244,0.147,0.594,0.221,1.049,0.221
		C466.871,99.375,467.32,99.336,467.879,99.256z"/>
	<path fill="#79849A" d="M470.746,108.987l-0.342-2.886c0.672,0.183,1.258,0.273,1.76,0.273c0.682,0,1.229-0.113,1.639-0.341
		c0.409-0.228,0.745-0.546,1.007-0.956c0.193-0.308,0.507-1.07,0.938-2.288c0.057-0.171,0.148-0.421,0.273-0.751l-6.88-18.165h3.312
		l3.773,10.499c0.489,1.332,0.928,2.732,1.314,4.2c0.354-1.411,0.773-2.788,1.264-4.132l3.875-10.567h3.073l-6.897,18.438
		c-0.74,1.991-1.314,3.363-1.725,4.114c-0.546,1.013-1.172,1.755-1.877,2.228c-0.706,0.473-1.549,0.709-2.527,0.709
		C472.135,109.363,471.475,109.238,470.746,108.987z"/>
</g>
</svg>
