<?xml version="1.0" encoding="utf-8"?>
<!-- Generator: Adobe Illustrator 16.0.0, SVG Export Plug-In . SVG Version: 6.00 Build 0)  -->
<!DOCTYPE svg PUBLIC "-//W3C//DTD SVG 1.1//EN" "http://www.w3.org/Graphics/SVG/1.1/DTD/svg11.dtd">
<svg version="1.1" id="圖層_1" xmlns="http://www.w3.org/2000/svg" xmlns:xlink="http://www.w3.org/1999/xlink" x="0px" y="0px"
	 width="512px" height="128px" viewBox="0 0 512 128" enable-background="new 0 0 512 128" xml:space="preserve">
<g>
	<g>
		<g>
			<path fill="#004889" d="M93.895,26.874h8.799l3.246,26.604h0.105l3.875-26.604h8.17l4.189,26.604h0.105l3.143-26.604h8.482
				l-6.494,37.393h-9.74l-3.822-26.552h-0.105l-3.613,26.552h-9.74L93.895,26.874z"/>
			<path fill="#004889" d="M135.369,26.874h8.799v37.393h-8.799V26.874z"/>
			<path fill="#004889" d="M155.217,52.85v1.309c0,2.828,0.785,4.975,3.822,4.975c3.09,0,3.98-2.304,3.98-4.451
				c0-8.065-16.078-3.561-16.078-17.544c0-5.971,3.195-10.998,12.256-10.998c8.799,0,11.939,4.451,11.939,10.212v0.89h-8.484
				c0-1.781-0.209-3.09-0.732-3.928c-0.523-0.891-1.361-1.31-2.67-1.31c-2.199,0-3.51,1.31-3.51,4.032
				c0,7.804,16.078,3.876,16.078,17.074c0,8.484-4.713,11.888-12.779,11.888c-6.389,0-12.307-1.938-12.307-9.741V52.85H155.217z"/>
			<path fill="#004889" d="M174.225,26.874h21.629v7.122h-12.832v7.489h12.047v7.122h-12.047v8.538h13.408v7.122h-22.205V26.874z"/>
			<path fill="#004889" d="M197.631,45.57h15.816v7.122h-15.816V45.57z"/>
			<path fill="#004889" d="M216.115,26.874h13.617c9.27,0,11.051,6.704,11.051,11.364c0,6.704-3.195,11.417-11.994,11.417h-3.875
				v14.612h-8.799V26.874z M224.914,43.161h2.408c3.51,0,4.348-2.199,4.348-4.714c0-2.88-0.943-5.08-4.504-5.08h-2.252V43.161z"/>
			<path fill="#004889" d="M240.938,44.627c0.055-3.876,1.205-6.232,3.195-7.594c1.99-1.362,4.398-1.833,7.908-1.833
				c6.965,0,10.055,2.41,10.055,8.38v14.559c0,2.147,0,4.871,0.996,6.127h-8.17c-0.314-0.995-0.42-2.147-0.473-3.247h-0.104
				c-1.152,2.514-3.824,3.98-6.65,3.98c-4.766,0-7.543-2.515-7.543-8.642c0-3.299,1.361-6.075,3.457-7.227
				c2.096-1.152,5.238-1.676,7.594-2.304c2.566-0.681,3.037-1.101,3.037-3.247c0-1.729-0.785-2.829-2.67-2.829
				c-2.357,0-3.039,1.414-3.09,3.876H240.938z M250.785,59.134c1.779,0,3.402-1.047,3.402-3.875c0-2.357,0.053-3.823,0.053-4.976
				c-2.67,1.415-3.822,1.466-4.607,2.095c-0.891,0.681-1.311,1.571-1.311,3.143C248.322,57.772,249.213,59.134,250.785,59.134z"/>
			<path fill="#004889" d="M265.289,44.627c0.053-3.876,1.205-6.232,3.193-7.594c1.99-1.362,4.4-1.833,7.91-1.833
				c6.965,0,10.055,2.41,10.055,8.38v14.559c0,2.147,0,4.871,0.994,6.127h-8.17c-0.313-0.995-0.418-2.147-0.471-3.247h-0.105
				c-1.152,2.514-3.822,3.98-6.65,3.98c-4.766,0-7.541-2.515-7.541-8.642c0-3.299,1.361-6.075,3.457-7.227
				c2.094-1.152,5.236-1.676,7.592-2.304c2.566-0.681,3.039-1.101,3.039-3.247c0-1.729-0.785-2.829-2.672-2.829
				c-2.357,0-3.037,1.414-3.09,3.876H265.289z M275.135,59.134c1.779,0,3.404-1.047,3.404-3.875c0-2.357,0.053-3.823,0.053-4.976
				c-2.672,1.415-3.824,1.466-4.609,2.095c-0.891,0.681-1.309,1.571-1.309,3.143C272.674,57.772,273.563,59.134,275.135,59.134z"/>
			<path fill="#004889" d="M297.441,52.85v1.309c0,2.828,0.787,4.975,3.822,4.975c3.092,0,3.982-2.304,3.982-4.451
				c0-8.065-16.078-3.561-16.078-17.544c0-5.971,3.193-10.998,12.254-10.998c8.799,0,11.941,4.451,11.941,10.212v0.89h-8.484
				c0-1.781-0.209-3.09-0.734-3.928c-0.523-0.891-1.361-1.31-2.67-1.31c-2.199,0-3.51,1.31-3.51,4.032
				c0,7.804,16.078,3.876,16.078,17.074c0,8.484-4.713,11.888-12.779,11.888c-6.389,0-12.307-1.938-12.307-9.741V52.85H297.441z"/>
			<path fill="#004889" d="M325.248,26.141h7.123L320.43,65h-7.123L325.248,26.141z"/>
			<path fill="#008BD5" d="M335.039,26.874h12.883l4.609,24.562h0.104l4.451-24.562h12.727v37.393h-8.17V35.148h-0.104
				l-5.709,29.118h-6.809L343,35.148h-0.105v29.118h-7.855V26.874z"/>
			<path fill="#008BD5" d="M373.539,38.756v-1.244c0-7.675,4.107-11.512,12.324-11.512c9.297,0,11.836,4.703,11.836,10.702
				c0,5.729-1.297,7.89-6.053,12.431c-3.73,3.567-6.541,5.945-7.459,8.107h13.566v7.026h-24.432c0-9.026,5.461-14.377,8.648-17.242
				c6.541-5.837,6.648-7.404,6.648-10.269c0-3.026-0.594-5.026-3.189-5.026c-3.459,0-3.459,4.107-3.459,7.026H373.539z"/>
			<path fill="#008BD5" d="M404.846,26.874h8.799v37.393h-8.799V26.874z"/>
		</g>
	</g>
	<rect x="400.385" y="26.867" fill="#008BD5" width="17.707" height="7.501"/>
	<rect x="400.408" y="57.193" fill="#008BD5" width="17.697" height="7.069"/>
</g>
<g>
	<path fill="#79849A" d="M362.91,93.229l3.313,0.837c-0.695,2.72-1.943,4.794-3.748,6.223c-1.804,1.429-4.01,2.143-6.615,2.143
		c-2.697,0-4.891-0.549-6.582-1.647c-1.689-1.098-2.977-2.689-3.857-4.772c-0.883-2.083-1.324-4.319-1.324-6.709
		c0-2.606,0.498-4.879,1.494-6.82c0.996-1.94,2.413-3.415,4.252-4.422c1.838-1.007,3.86-1.511,6.068-1.511
		c2.504,0,4.609,0.638,6.317,1.912c1.707,1.275,2.896,3.067,3.567,5.378l-3.26,0.768c-0.581-1.821-1.424-3.147-2.527-3.978
		c-1.104-0.831-2.492-1.247-4.166-1.247c-1.924,0-3.531,0.461-4.822,1.383c-1.292,0.922-2.199,2.16-2.723,3.713
		c-0.524,1.554-0.786,3.156-0.786,4.806c0,2.129,0.31,3.987,0.931,5.574c0.62,1.588,1.585,2.774,2.894,3.56
		c1.31,0.786,2.726,1.178,4.251,1.178c1.855,0,3.426-0.535,4.713-1.605C361.584,96.923,362.455,95.335,362.91,93.229z"/>
	<path fill="#79849A" d="M370.268,102.005V76.977h3.398l13.146,19.65v-19.65h3.175v25.028h-3.396l-13.146-19.667v19.667H370.268z"/>
	<path fill="#79849A" d="M413.41,93.229l3.313,0.837c-0.694,2.72-1.943,4.794-3.747,6.223c-1.804,1.429-4.01,2.143-6.616,2.143
		c-2.697,0-4.891-0.549-6.581-1.647c-1.69-1.098-2.977-2.689-3.858-4.772c-0.883-2.083-1.323-4.319-1.323-6.709
		c0-2.606,0.498-4.879,1.494-6.82c0.995-1.94,2.413-3.415,4.251-4.422s3.861-1.511,6.069-1.511c2.504,0,4.609,0.638,6.317,1.912
		c1.707,1.275,2.896,3.067,3.567,5.378l-3.261,0.768c-0.58-1.821-1.423-3.147-2.527-3.978c-1.104-0.831-2.492-1.247-4.165-1.247
		c-1.924,0-3.531,0.461-4.823,1.383c-1.291,0.922-2.199,2.16-2.723,3.713s-0.785,3.156-0.785,4.806c0,2.129,0.31,3.987,0.93,5.574
		c0.621,1.588,1.586,2.774,2.895,3.56c1.309,0.786,2.726,1.178,4.25,1.178c1.855,0,3.426-0.535,4.713-1.605
		C412.084,96.923,412.955,95.335,413.41,93.229z"/>
</g>
</svg>
