<?xml version="1.0" encoding="utf-8"?>
<!-- Generator: Adobe Illustrator 16.0.0, SVG Export Plug-In . SVG Version: 6.00 Build 0)  -->
<!DOCTYPE svg PUBLIC "-//W3C//DTD SVG 1.1//EN" "http://www.w3.org/Graphics/SVG/1.1/DTD/svg11.dtd">
<svg version="1.1" id="圖層_1" xmlns="http://www.w3.org/2000/svg" xmlns:xlink="http://www.w3.org/1999/xlink" x="0px" y="0px"
	 width="512px" height="128px" viewBox="0 0 512 128" enable-background="new 0 0 512 128" xml:space="preserve">
<g>
	<g>
		<g>
			<path fill="#004889" d="M93.895,26.874h8.799l3.246,26.604h0.105l3.875-26.604h8.17l4.189,26.604h0.105l3.143-26.604h8.482
				l-6.494,37.393h-9.74l-3.822-26.552h-0.105l-3.613,26.552h-9.74L93.895,26.874z"/>
			<path fill="#004889" d="M135.369,26.874h8.799v37.393h-8.799V26.874z"/>
			<path fill="#004889" d="M155.217,52.85v1.309c0,2.828,0.785,4.975,3.822,4.975c3.09,0,3.98-2.304,3.98-4.451
				c0-8.065-16.078-3.561-16.078-17.544c0-5.971,3.195-10.998,12.256-10.998c8.799,0,11.939,4.451,11.939,10.212v0.89h-8.484
				c0-1.781-0.209-3.09-0.732-3.928c-0.523-0.891-1.361-1.31-2.67-1.31c-2.199,0-3.51,1.31-3.51,4.032
				c0,7.804,16.078,3.876,16.078,17.074c0,8.484-4.713,11.888-12.779,11.888c-6.389,0-12.307-1.938-12.307-9.741V52.85H155.217z"/>
			<path fill="#004889" d="M174.225,26.874h21.629v7.122h-12.832v7.489h12.047v7.122h-12.047v8.538h13.408v7.122h-22.205V26.874z"/>
			<path fill="#004889" d="M197.631,45.57h15.816v7.122h-15.816V45.57z"/>
			<path fill="#004889" d="M216.115,26.874h13.617c9.27,0,11.051,6.704,11.051,11.364c0,6.704-3.195,11.417-11.994,11.417h-3.875
				v14.612h-8.799V26.874z M224.914,43.161h2.408c3.51,0,4.348-2.199,4.348-4.714c0-2.88-0.943-5.08-4.504-5.08h-2.252V43.161z"/>
			<path fill="#004889" d="M240.938,44.627c0.055-3.876,1.205-6.232,3.195-7.594c1.99-1.362,4.398-1.833,7.908-1.833
				c6.965,0,10.055,2.41,10.055,8.38v14.559c0,2.147,0,4.871,0.996,6.127h-8.17c-0.314-0.995-0.42-2.147-0.473-3.247h-0.104
				c-1.152,2.514-3.824,3.98-6.65,3.98c-4.766,0-7.543-2.515-7.543-8.642c0-3.299,1.361-6.075,3.457-7.227
				c2.096-1.152,5.238-1.676,7.594-2.304c2.566-0.681,3.037-1.101,3.037-3.247c0-1.729-0.785-2.829-2.67-2.829
				c-2.357,0-3.039,1.414-3.09,3.876H240.938z M250.785,59.134c1.779,0,3.402-1.047,3.402-3.875c0-2.357,0.053-3.823,0.053-4.976
				c-2.67,1.415-3.822,1.466-4.607,2.095c-0.891,0.681-1.311,1.571-1.311,3.143C248.322,57.772,249.213,59.134,250.785,59.134z"/>
			<path fill="#004889" d="M265.289,44.627c0.053-3.876,1.205-6.232,3.193-7.594c1.99-1.362,4.4-1.833,7.91-1.833
				c6.965,0,10.055,2.41,10.055,8.38v14.559c0,2.147,0,4.871,0.994,6.127h-8.17c-0.313-0.995-0.418-2.147-0.471-3.247h-0.105
				c-1.152,2.514-3.822,3.98-6.65,3.98c-4.766,0-7.541-2.515-7.541-8.642c0-3.299,1.361-6.075,3.457-7.227
				c2.094-1.152,5.236-1.676,7.592-2.304c2.566-0.681,3.039-1.101,3.039-3.247c0-1.729-0.785-2.829-2.672-2.829
				c-2.357,0-3.037,1.414-3.09,3.876H265.289z M275.135,59.134c1.779,0,3.404-1.047,3.404-3.875c0-2.357,0.053-3.823,0.053-4.976
				c-2.672,1.415-3.824,1.466-4.609,2.095c-0.891,0.681-1.309,1.571-1.309,3.143C272.674,57.772,273.563,59.134,275.135,59.134z"/>
			<path fill="#004889" d="M297.441,52.85v1.309c0,2.828,0.787,4.975,3.822,4.975c3.092,0,3.982-2.304,3.982-4.451
				c0-8.065-16.078-3.561-16.078-17.544c0-5.971,3.193-10.998,12.254-10.998c8.799,0,11.941,4.451,11.941,10.212v0.89h-8.484
				c0-1.781-0.209-3.09-0.734-3.928c-0.523-0.891-1.361-1.31-2.67-1.31c-2.199,0-3.51,1.31-3.51,4.032
				c0,7.804,16.078,3.876,16.078,17.074c0,8.484-4.713,11.888-12.779,11.888c-6.389,0-12.307-1.938-12.307-9.741V52.85H297.441z"/>
			<path fill="#004889" d="M325.248,26.141h7.123L320.43,65h-7.123L325.248,26.141z"/>
			<path fill="#008BD5" d="M335.039,26.874h12.883l4.609,24.562h0.104l4.451-24.562h12.727v37.393h-8.17V35.148h-0.104
				l-5.709,29.118h-6.809L343,35.148h-0.105v29.118h-7.855V26.874z"/>
			<path fill="#008BD5" d="M373.539,38.756v-1.244c0-7.675,4.107-11.512,12.324-11.512c9.297,0,11.836,4.703,11.836,10.702
				c0,5.729-1.297,7.89-6.053,12.431c-3.73,3.567-6.541,5.945-7.459,8.107h13.566v7.026h-24.432c0-9.026,5.461-14.377,8.648-17.242
				c6.541-5.837,6.648-7.404,6.648-10.269c0-3.026-0.594-5.026-3.189-5.026c-3.459,0-3.459,4.107-3.459,7.026H373.539z"/>
			<path fill="#008BD5" d="M404.846,26.874h8.799v37.393h-8.799V26.874z"/>
		</g>
	</g>
	<rect x="400.385" y="26.867" fill="#008BD5" width="17.707" height="7.501"/>
	<rect x="400.408" y="57.193" fill="#008BD5" width="17.697" height="7.069"/>
</g>
<g>
	<path fill="#79849A" d="M275.123,102.005V76.977h18.098v2.954h-14.785v7.666h13.846v2.937h-13.846v8.519h15.365v2.954H275.123z"/>
	<path fill="#79849A" d="M297.915,102.005V76.977h3.073v25.028H297.915z"/>
	<path fill="#79849A" d="M318.163,96.166l3.176,0.393c-0.501,1.855-1.429,3.295-2.782,4.319c-1.355,1.024-3.086,1.537-5.191,1.537
		c-2.651,0-4.754-0.816-6.308-2.45s-2.331-3.924-2.331-6.872c0-3.05,0.786-5.418,2.356-7.103c1.571-1.684,3.608-2.526,6.112-2.526
		c2.424,0,4.404,0.825,5.941,2.475c1.536,1.651,2.305,3.973,2.305,6.966c0,0.182-0.006,0.456-0.018,0.819h-13.521
		c0.113,1.992,0.678,3.517,1.69,4.576s2.276,1.587,3.79,1.587c1.127,0,2.088-0.295,2.885-0.888
		C317.064,98.409,317.696,97.463,318.163,96.166z M308.073,91.198h10.124c-0.137-1.525-0.523-2.669-1.16-3.432
		c-0.979-1.184-2.248-1.776-3.808-1.776c-1.411,0-2.599,0.473-3.56,1.417C308.708,88.353,308.176,89.616,308.073,91.198z"/>
	<path fill="#79849A" d="M330.234,102.005l-6.898-18.131h3.244l3.893,10.858c0.421,1.172,0.809,2.39,1.161,3.654
		c0.272-0.956,0.654-2.106,1.144-3.449l4.029-11.063h3.158l-6.863,18.131H330.234z"/>
	<path fill="#79849A" d="M354.511,99.769c-1.139,0.967-2.233,1.65-3.286,2.048c-1.053,0.398-2.184,0.598-3.39,0.598
		c-1.991,0-3.522-0.486-4.593-1.459c-1.069-0.973-1.604-2.217-1.604-3.73c0-0.888,0.202-1.699,0.606-2.433
		c0.404-0.734,0.934-1.323,1.588-1.767s1.391-0.78,2.211-1.007c0.603-0.159,1.514-0.313,2.73-0.461
		c2.482-0.296,4.309-0.649,5.48-1.059c0.012-0.421,0.018-0.688,0.018-0.802c0-1.252-0.29-2.134-0.871-2.646
		c-0.785-0.694-1.951-1.042-3.5-1.042c-1.445,0-2.512,0.253-3.201,0.76c-0.688,0.507-1.197,1.403-1.527,2.689l-3.005-0.41
		c0.273-1.286,0.723-2.325,1.349-3.116s1.531-1.4,2.715-1.827s2.555-0.64,4.114-0.64c1.548,0,2.806,0.182,3.772,0.546
		c0.968,0.365,1.68,0.823,2.135,1.375c0.455,0.552,0.773,1.25,0.956,2.091c0.103,0.524,0.153,1.468,0.153,2.834v4.098
		c0,2.857,0.065,4.664,0.197,5.42c0.13,0.757,0.389,1.482,0.776,2.177h-3.21C354.807,101.368,354.602,100.622,354.511,99.769z
		 M354.254,92.905c-1.115,0.456-2.788,0.842-5.019,1.161c-1.264,0.182-2.157,0.387-2.681,0.614
		c-0.523,0.228-0.928,0.561-1.212,0.999s-0.427,0.925-0.427,1.459c0,0.819,0.31,1.502,0.93,2.049
		c0.621,0.546,1.528,0.819,2.724,0.819c1.184,0,2.236-0.259,3.158-0.777c0.922-0.518,1.599-1.226,2.032-2.125
		c0.33-0.694,0.494-1.718,0.494-3.073V92.905z"/>
	<path fill="#79849A" d="M368.834,99.256l0.444,2.714c-0.864,0.182-1.639,0.273-2.321,0.273c-1.116,0-1.98-0.177-2.596-0.529
		c-0.614-0.353-1.047-0.817-1.297-1.392c-0.251-0.575-0.376-1.784-0.376-3.628V86.264h-2.253v-2.39h2.253v-4.49l3.056-1.844v6.334
		h3.09v2.39h-3.09v10.602c0,0.876,0.055,1.44,0.162,1.69c0.108,0.25,0.285,0.45,0.529,0.598c0.245,0.148,0.595,0.222,1.051,0.222
		C367.827,99.375,368.277,99.336,368.834,99.256z"/>
	<path fill="#79849A" d="M370.695,92.939c0-3.357,0.934-5.844,2.8-7.461c1.56-1.343,3.46-2.014,5.702-2.014
		c2.492,0,4.529,0.816,6.111,2.45s2.373,3.89,2.373,6.769c0,2.333-0.35,4.169-1.049,5.506c-0.701,1.338-1.719,2.376-3.057,3.116
		c-1.338,0.74-2.797,1.11-4.379,1.11c-2.538,0-4.59-0.813-6.154-2.441C371.478,98.346,370.695,96.001,370.695,92.939z
		 M373.854,92.939c0,2.322,0.506,4.061,1.52,5.216c1.013,1.155,2.287,1.732,3.824,1.732c1.525,0,2.794-0.58,3.807-1.741
		c1.014-1.161,1.52-2.931,1.52-5.31c0-2.242-0.51-3.941-1.527-5.096c-1.02-1.155-2.285-1.733-3.799-1.733
		c-1.537,0-2.812,0.575-3.824,1.725C374.359,88.882,373.854,90.618,373.854,92.939z"/>
	<path fill="#79849A" d="M391.25,102.005V83.874h2.767v2.749c0.706-1.286,1.356-2.134,1.954-2.544s1.256-0.614,1.973-0.614
		c1.035,0,2.088,0.33,3.158,0.99l-1.059,2.851c-0.751-0.444-1.502-0.666-2.254-0.666c-0.672,0-1.274,0.202-1.81,0.606
		c-0.534,0.404-0.916,0.965-1.144,1.682c-0.342,1.093-0.512,2.288-0.512,3.585v9.492H391.25z"/>
	<path fill="#79849A" d="M401.699,96.593l3.039-0.478c0.17,1.218,0.646,2.151,1.426,2.8c0.779,0.649,1.869,0.973,3.27,0.973
		c1.41,0,2.458-0.287,3.141-0.862c0.684-0.575,1.024-1.249,1.024-2.023c0-0.694-0.302-1.24-0.905-1.639
		c-0.421-0.273-1.468-0.62-3.141-1.042c-2.254-0.569-3.816-1.061-4.687-1.477c-0.871-0.416-1.531-0.99-1.98-1.725
		c-0.45-0.734-0.675-1.545-0.675-2.433c0-0.808,0.186-1.556,0.555-2.245c0.37-0.688,0.874-1.26,1.512-1.716
		c0.478-0.353,1.129-0.651,1.955-0.896c0.824-0.245,1.709-0.367,2.654-0.367c1.422,0,2.672,0.205,3.747,0.614
		s1.87,0.965,2.382,1.665c0.512,0.7,0.865,1.637,1.059,2.809l-3.005,0.41c-0.137-0.933-0.532-1.662-1.187-2.185
		s-1.579-0.786-2.774-0.786c-1.411,0-2.419,0.233-3.021,0.7c-0.604,0.467-0.905,1.013-0.905,1.639c0,0.399,0.125,0.757,0.376,1.076
		c0.25,0.331,0.643,0.604,1.178,0.82c0.308,0.114,1.212,0.375,2.715,0.785c2.174,0.581,3.69,1.056,4.55,1.425
		c0.859,0.37,1.533,0.908,2.023,1.614c0.488,0.706,0.733,1.582,0.733,2.629c0,1.024-0.298,1.989-0.896,2.894
		c-0.598,0.905-1.461,1.604-2.587,2.1c-1.127,0.495-2.401,0.743-3.824,0.743c-2.356,0-4.151-0.489-5.387-1.468
		C402.828,99.968,402.041,98.517,401.699,96.593z"/>
</g>
</svg>
