<?xml version="1.0" encoding="utf-8"?>
<!-- Generator: Adobe Illustrator 16.0.0, SVG Export Plug-In . SVG Version: 6.00 Build 0)  -->
<!DOCTYPE svg PUBLIC "-//W3C//DTD SVG 1.1//EN" "http://www.w3.org/Graphics/SVG/1.1/DTD/svg11.dtd">
<svg version="1.1" id="圖層_1" xmlns="http://www.w3.org/2000/svg" xmlns:xlink="http://www.w3.org/1999/xlink" x="0px" y="0px"
	 width="512px" height="128px" viewBox="0 0 512 128" enable-background="new 0 0 512 128" xml:space="preserve">
<g>
	<g>
		<path fill="#004889" d="M14.718,26.736h8.831l3.259,26.7h0.105l3.89-26.7h8.199l4.205,26.7h0.105l3.154-26.7h8.514l-6.518,37.527
			h-9.775L34.85,37.616h-0.105l-3.627,26.647h-9.777L14.718,26.736z"/>
		<path fill="#004889" d="M56.342,26.736h8.831v37.527h-8.831V26.736z"/>
		<path fill="#004889" d="M76.261,52.806v1.313c0,2.839,0.789,4.994,3.837,4.994c3.102,0,3.995-2.313,3.995-4.467
			c0-8.094-16.136-3.574-16.136-17.608C67.957,31.045,71.163,26,80.256,26c8.83,0,11.984,4.467,11.984,10.25v0.894h-8.515
			c0-1.788-0.21-3.101-0.736-3.942c-0.525-0.894-1.367-1.314-2.68-1.314c-2.208,0-3.521,1.314-3.521,4.047
			c0,7.832,16.136,3.89,16.136,17.135c0,8.514-4.73,11.931-12.825,11.931c-6.412,0-12.351-1.945-12.351-9.776v-2.418H76.261z"/>
		<path fill="#004889" d="M95.337,26.736h21.708v7.147h-12.877V41.4h12.089v7.148h-12.089v8.568h13.456v7.147H95.337V26.736z"/>
		<path fill="#004889" d="M118.83,45.5h15.873v7.148H118.83V45.5z"/>
		<path fill="#004889" d="M137.381,26.736h13.667c9.302,0,11.09,6.728,11.09,11.405c0,6.728-3.206,11.458-12.036,11.458h-3.89
			v14.665h-8.83V26.736z M146.211,43.083h2.418c3.522,0,4.363-2.208,4.363-4.731c0-2.891-0.946-5.098-4.52-5.098h-2.261V43.083z"/>
		<path fill="#004889" d="M162.294,44.554c0.053-3.89,1.209-6.254,3.206-7.621c1.998-1.367,4.416-1.84,7.937-1.84
			c6.991,0,10.092,2.418,10.092,8.41v14.612c0,2.155,0,4.888,0.999,6.149h-8.199c-0.315-0.998-0.42-2.154-0.473-3.259h-0.105
			c-1.156,2.523-3.837,3.995-6.675,3.995c-4.783,0-7.569-2.523-7.569-8.673c0-3.311,1.366-6.096,3.469-7.253
			c2.103-1.156,5.256-1.682,7.621-2.313c2.576-0.683,3.049-1.104,3.049-3.259c0-1.734-0.789-2.838-2.681-2.838
			c-2.366,0-3.049,1.419-3.101,3.89H162.294z M172.175,59.113c1.787,0,3.416-1.051,3.416-3.889c0-2.366,0.053-3.837,0.053-4.993
			c-2.681,1.419-3.837,1.471-4.625,2.103c-0.894,0.683-1.314,1.576-1.314,3.153C169.705,57.746,170.598,59.113,172.175,59.113z"/>
		<path fill="#004889" d="M186.732,44.554c0.053-3.89,1.209-6.254,3.206-7.621c1.997-1.367,4.415-1.84,7.937-1.84
			c6.991,0,10.091,2.418,10.091,8.41v14.612c0,2.155,0,4.888,0.999,6.149h-8.199c-0.315-0.998-0.42-2.154-0.473-3.259h-0.105
			c-1.156,2.523-3.837,3.995-6.675,3.995c-4.783,0-7.569-2.523-7.569-8.673c0-3.311,1.366-6.096,3.469-7.253
			c2.103-1.156,5.256-1.682,7.621-2.313c2.576-0.683,3.049-1.104,3.049-3.259c0-1.734-0.789-2.838-2.681-2.838
			c-2.366,0-3.049,1.419-3.101,3.89H186.732z M196.614,59.113c1.787,0,3.416-1.051,3.416-3.889c0-2.366,0.053-3.837,0.053-4.993
			c-2.681,1.419-3.837,1.471-4.625,2.103c-0.894,0.683-1.314,1.576-1.314,3.153C194.144,57.746,195.037,59.113,196.614,59.113z"/>
		<path fill="#004889" d="M219.002,52.806v1.313c0,2.839,0.789,4.994,3.837,4.994c3.102,0,3.995-2.313,3.995-4.467
			c0-8.094-16.136-3.574-16.136-17.608c0-5.992,3.206-11.038,12.299-11.038c8.83,0,11.984,4.467,11.984,10.25v0.894h-8.515
			c0-1.788-0.21-3.101-0.736-3.942c-0.525-0.894-1.366-1.314-2.68-1.314c-2.208,0-3.522,1.314-3.522,4.047
			c0,7.832,16.136,3.89,16.136,17.135c0,8.514-4.73,11.931-12.825,11.931c-6.412,0-12.351-1.945-12.351-9.776v-2.418H219.002z"/>
		<path fill="#004889" d="M246.909,26h7.148l-11.984,39h-7.148L246.909,26z"/>
		<path fill="#F6AA00" d="M259.101,26.736h9.461l4.467,29.012h0.105l4.521-29.012h9.461l-8.516,37.527h-11.248L259.101,26.736z"/>
		<path fill="#F6AA00" d="M288.479,26.315h8.515v6.518h-8.515V26.315z M288.479,35.829h8.515v28.435h-8.515V35.829z"/>
		<path fill="#F6AA00" d="M314.968,60.795h-0.105c-0.631,1.944-2.366,4.205-6.15,4.205c-5.729,0-8.777-4.1-8.777-14.717
			c0-8.83,1.261-15.191,8.251-15.191c2.366,0,4.941,0.789,6.36,3.837h0.105V26.736h8.514v37.527h-8.199V60.795z M311.709,41.295
			c-3.101,0-3.259,3.417-3.259,8.567c0,4.573,0.105,8.935,3.312,8.935c2.523,0,3.048-3.049,3.048-8.567
			C314.81,45.184,314.6,41.295,311.709,41.295z"/>
		<path fill="#F6AA00" d="M334.149,51.439v1.734c0,4.415,0.631,6.57,3.102,6.57c2.208,0,2.891-1.629,3.101-5.203h7.884
			C348.078,61.583,344.241,65,337.198,65c-10.722,0-11.563-7.517-11.563-15.979c0-7.989,2.313-13.929,11.563-13.929
			c10.565,0,11.301,6.676,11.301,16.347H334.149z M340.299,46.499c0-3.994-0.525-6.15-2.891-6.15c-2.786,0-3.259,2.313-3.259,6.15
			H340.299z"/>
		<path fill="#F6AA00" d="M349.599,50.125c0-8.515,1.892-15.033,11.721-15.033c10.407,0,11.721,6.361,11.721,14.875
			c0,8.515-1.893,15.033-11.721,15.033C350.913,65,349.599,58.64,349.599,50.125z M361.373,40.664c-2.523,0-3.259,2.47-3.259,9.356
			c0,6.938,0.736,9.409,3.259,9.409c2.628,0,3.154-2.366,3.154-9.356C364.526,43.029,364.001,40.664,361.373,40.664z"/>
		<path fill="#F6AA00" d="M383.183,52.806v1.313c0,2.839,0.789,4.994,3.837,4.994c3.102,0,3.995-2.313,3.995-4.467
			c0-8.094-16.136-3.574-16.136-17.608c0-5.992,3.206-11.038,12.299-11.038c8.83,0,11.984,4.467,11.984,10.25v0.894h-8.515
			c0-1.788-0.21-3.101-0.736-3.942c-0.525-0.894-1.367-1.314-2.68-1.314c-2.208,0-3.521,1.314-3.521,4.047
			c0,7.832,16.136,3.89,16.136,17.135c0,8.514-4.73,11.931-12.825,11.931c-6.412,0-12.351-1.945-12.351-9.776v-2.418H383.183z"/>
		<path fill="#F6AA00" d="M409.985,51.439v1.734c0,4.415,0.631,6.57,3.102,6.57c2.208,0,2.891-1.629,3.101-5.203h7.884
			C423.914,61.583,420.077,65,413.034,65c-10.722,0-11.563-7.517-11.563-15.979c0-7.989,2.313-13.929,11.563-13.929
			c10.565,0,11.301,6.676,11.301,16.347H409.985z M416.135,46.499c0-3.994-0.525-6.15-2.891-6.15c-2.786,0-3.259,2.313-3.259,6.15
			H416.135z"/>
		<path fill="#F6AA00" d="M426.383,35.829h8.199v3.364h0.105c1.209-2.522,3.679-4.1,6.833-4.1c4.835,0,7.411,2.418,7.411,7.885
			v21.286h-8.514V44.869c0-2.049-0.894-3.259-2.471-3.259c-1.629,0-3.049,1.262-3.049,4.047v18.606h-8.514V35.829z"/>
		<path fill="#F6AA00" d="M458.862,55.224c0.053,1.261,0.158,2.365,0.578,3.206c0.473,0.789,1.262,1.314,2.628,1.314
			c1.998,0,3.048-1.261,3.048-2.891c0-1.314-0.63-2.576-3.258-3.469c-6.991-2.365-10.355-3.732-10.355-9.723
			c0-5.677,3.994-8.568,10.828-8.568c7.989,0,10.301,3.89,10.301,7.99v0.945h-7.569v-0.525c0-2.471-0.998-3.154-2.786-3.154
			c-2.26,0-2.891,1.104-2.891,2.629c0,5.045,13.613,1.681,13.613,12.719c0,5.729-3.837,9.303-10.88,9.303
			c-7.621,0-10.827-2.839-10.827-8.515v-1.261H458.862z"/>
		<path fill="#F6AA00" d="M482.932,51.439v1.734c0,4.415,0.631,6.57,3.102,6.57c2.208,0,2.891-1.629,3.101-5.203h7.884
			C496.86,61.583,493.023,65,485.981,65c-10.722,0-11.563-7.517-11.563-15.979c0-7.989,2.313-13.929,11.563-13.929
			c10.564,0,11.301,6.676,11.301,16.347H482.932z M489.082,46.499c0-3.994-0.525-6.15-2.891-6.15c-2.786,0-3.259,2.313-3.259,6.15
			H489.082z"/>
	</g>
</g>
</svg>
