<?xml version="1.0" encoding="utf-8"?>
<!-- Generator: Adobe Illustrator 16.0.0, SVG Export Plug-In . SVG Version: 6.00 Build 0)  -->
<!DOCTYPE svg PUBLIC "-//W3C//DTD SVG 1.1//EN" "http://www.w3.org/Graphics/SVG/1.1/DTD/svg11.dtd">
<svg version="1.1" id="圖層_1" xmlns="http://www.w3.org/2000/svg" xmlns:xlink="http://www.w3.org/1999/xlink" x="0px" y="0px"
	 width="512px" height="128px" viewBox="0 0 512 128" enable-background="new 0 0 512 128" xml:space="preserve">
<g>
	<g>
		<path fill="#004889" d="M89.421,26.735h8.83l3.259,26.701h0.105l3.89-26.701h8.199l4.205,26.701h0.105l3.153-26.701h8.515
			l-6.517,37.529h-9.776l-3.837-26.649h-0.106l-3.626,26.649h-9.776L89.421,26.735z"/>
		<path fill="#004889" d="M137.354,51.439v1.734c0,4.415,0.63,6.569,3.101,6.569c2.208,0,2.891-1.628,3.102-5.203h7.884
			C151.283,61.584,147.446,65,140.403,65c-10.723,0-11.563-7.516-11.563-15.979c0-7.989,2.313-13.929,11.563-13.929
			c10.564,0,11.3,6.676,11.3,16.347H137.354z M143.504,46.498c0-3.994-0.526-6.149-2.891-6.149c-2.786,0-3.259,2.313-3.259,6.149
			H143.504z"/>
		<path fill="#004889" d="M153.436,26.735h8.515V38.93h0.105c1.419-3.049,3.995-3.837,6.359-3.837c6.991,0,8.253,6.359,8.253,15.19
			c0,10.617-3.049,14.717-8.777,14.717c-3.784,0-5.519-2.26-6.15-4.204h-0.104v3.469h-8.2V26.735z M164.843,58.797
			c3.205,0,3.311-4.361,3.311-8.935c0-5.151-0.158-8.568-3.259-8.568c-2.891,0-3.101,3.891-3.101,8.937
			C161.794,55.749,162.318,58.797,164.843,58.797z"/>
		<path fill="#004889" d="M186.39,26.735h11.038l9.356,37.529h-9.146l-1.366-7.148h-8.988l-1.313,7.148h-9.146L186.39,26.735z
			 M191.751,33.568h-0.104l-3.102,16.715h6.412L191.751,33.568z"/>
		<path fill="#004889" d="M221.603,46.551c0-4.152-0.946-5.887-3.206-5.887c-2.838,0-3.205,3.574-3.205,9.409
			c0,6.411,0.367,9.355,3.205,9.355c2.523,0,3.102-1.734,3.206-6.729h7.885c-0.053,8.778-3.521,12.3-11.248,12.3
			c-10.723,0-11.563-7.516-11.563-15.979c0-7.989,2.313-13.929,11.563-13.929c8.936,0,11.248,4.677,11.248,11.458H221.603z"/>
		<path fill="#004889" d="M245.253,46.551c0-4.152-0.946-5.887-3.206-5.887c-2.839,0-3.207,3.574-3.207,9.409
			c0,6.411,0.368,9.355,3.207,9.355c2.522,0,3.101-1.734,3.206-6.729h7.884c-0.053,8.778-3.521,12.3-11.248,12.3
			c-10.723,0-11.563-7.516-11.563-15.979c0-7.989,2.313-13.929,11.563-13.929c8.936,0,11.248,4.677,11.248,11.458H245.253z"/>
		<path fill="#004889" d="M262.491,51.439v1.734c0,4.415,0.63,6.569,3.101,6.569c2.208,0,2.891-1.628,3.101-5.203h7.885
			C276.42,61.584,272.583,65,265.54,65c-10.724,0-11.563-7.516-11.563-15.979c0-7.989,2.313-13.929,11.563-13.929
			c10.564,0,11.3,6.676,11.3,16.347H262.491z M268.641,46.498c0-3.994-0.526-6.149-2.891-6.149c-2.786,0-3.259,2.313-3.259,6.149
			H268.641z"/>
		<path fill="#004889" d="M285.09,55.225c0.052,1.26,0.157,2.364,0.578,3.205c0.473,0.789,1.261,1.313,2.628,1.313
			c1.997,0,3.049-1.26,3.049-2.891c0-1.314-0.632-2.574-3.26-3.469c-6.99-2.364-10.354-3.731-10.354-9.724
			c0-5.677,3.994-8.567,10.827-8.567c7.989,0,10.302,3.889,10.302,7.989v0.946h-7.569v-0.525c0-2.471-0.998-3.154-2.784-3.154
			c-2.261,0-2.892,1.104-2.892,2.628c0,5.046,13.613,1.683,13.613,12.72c0,5.729-3.837,9.304-10.88,9.304
			c-7.622,0-10.828-2.838-10.828-8.516v-1.26H285.09z"/>
		<path fill="#004889" d="M307.794,55.225c0.053,1.26,0.158,2.364,0.578,3.205c0.474,0.789,1.262,1.313,2.629,1.313
			c1.997,0,3.048-1.26,3.048-2.891c0-1.314-0.631-2.574-3.259-3.469c-6.991-2.364-10.354-3.731-10.354-9.724
			c0-5.677,3.994-8.567,10.826-8.567c7.989,0,10.303,3.889,10.303,7.989v0.946h-7.569v-0.525c0-2.471-0.998-3.154-2.785-3.154
			c-2.261,0-2.891,1.104-2.891,2.628c0,5.046,13.612,1.683,13.612,12.72c0,5.729-3.837,9.304-10.88,9.304
			c-7.622,0-10.828-2.838-10.828-8.516v-1.26H307.794z"/>
		<path fill="#004889" d="M333.284,26h7.149l-11.984,39h-7.148L333.284,26z"/>
		<path fill="#79BC28" d="M356.988,39.77c0-5.465-0.631-7.884-3.574-7.884c-3.521,0-3.837,3.365-3.837,13.193
			c0,11.144,0.368,14.034,4.047,14.034c3.259,0,3.627-3.732,3.68-9.566h8.515v1.314c0,8.094-2.26,14.139-13.192,14.139
			c-11.301,0-12.194-8.462-12.194-19.763c0-9.618,0.525-19.237,13.035-19.237c7.778,0,12.037,3.363,12.037,12.193v1.576H356.988z"/>
		<path fill="#79BC28" d="M368.18,26.735h10.146l7.253,24.389h0.105V26.735h8.199v37.529h-9.986l-7.727-25.861h-0.105v25.861h-7.885
			V26.735z"/>
		<path fill="#79BC28" d="M413.749,39.77c0-5.465-0.631-7.884-3.574-7.884c-3.521,0-3.837,3.365-3.837,13.193
			c0,11.144,0.368,14.034,4.047,14.034c3.259,0,3.627-3.732,3.679-9.566h8.516v1.314c0,8.094-2.261,14.139-13.192,14.139
			c-11.301,0-12.194-8.462-12.194-19.763c0-9.618,0.525-19.237,13.034-19.237c7.779,0,12.038,3.363,12.038,12.193v1.576H413.749z"/>
	</g>
</g>
</svg>
