<?xml version="1.0" encoding="utf-8"?>
<!-- Generator: Adobe Illustrator 16.0.0, SVG Export Plug-In . SVG Version: 6.00 Build 0)  -->
<!DOCTYPE svg PUBLIC "-//W3C//DTD SVG 1.1//EN" "http://www.w3.org/Graphics/SVG/1.1/DTD/svg11.dtd">
<svg version="1.1" id="圖層_1" xmlns="http://www.w3.org/2000/svg" xmlns:xlink="http://www.w3.org/1999/xlink" x="0px" y="0px"
	 width="512px" height="128px" viewBox="0 0 512 128" enable-background="new 0 0 512 128" xml:space="preserve">
<g>
	<g>
		<path fill="#004889" d="M79.627,26.735h8.828l3.262,26.7h0.103l3.892-26.7h8.201l4.202,26.7h0.105l3.155-26.7h8.513l-6.517,37.527
			h-9.778l-3.837-26.648h-0.103l-3.626,26.648h-9.778L79.627,26.735z"/>
		<path fill="#004889" d="M127.551,51.44v1.733c0,4.416,0.633,6.57,3.102,6.57c2.207,0,2.891-1.627,3.102-5.202h7.886
			c-0.16,7.041-3.997,10.457-11.038,10.457c-10.725,0-11.563-7.515-11.563-15.977c0-7.99,2.31-13.929,11.563-13.929
			c10.564,0,11.3,6.677,11.3,16.347H127.551z M133.703,46.497c0-3.991-0.527-6.146-2.891-6.146c-2.788,0-3.262,2.31-3.262,6.146
			H133.703z"/>
		<path fill="#004889" d="M143.629,26.735h8.513v12.195h0.108c1.42-3.05,3.991-3.837,6.357-3.837c6.99,0,8.253,6.357,8.253,15.189
			c0,10.616-3.048,14.716-8.777,14.716c-3.786,0-5.52-2.258-6.149-4.202h-0.105v3.466h-8.199V26.735z M155.032,58.798
			c3.21,0,3.313-4.364,3.313-8.937c0-5.148-0.156-8.564-3.259-8.564c-2.891,0-3.099,3.889-3.099,8.935
			C151.987,55.751,152.512,58.798,155.032,58.798z"/>
		<path fill="#004889" d="M176.575,26.735h11.038l9.354,37.527h-9.145l-1.363-7.146h-8.991l-1.312,7.146h-9.146L176.575,26.735z
			 M181.938,33.568h-0.108l-3.099,16.715h6.412L181.938,33.568z"/>
		<path fill="#004889" d="M211.782,46.551c0-4.153-0.946-5.887-3.207-5.887c-2.839,0-3.204,3.575-3.204,9.408
			c0,6.414,0.365,9.355,3.204,9.355c2.526,0,3.102-1.732,3.207-6.728h7.883c-0.052,8.78-3.518,12.299-11.246,12.299
			c-10.722,0-11.563-7.515-11.563-15.977c0-7.99,2.313-13.929,11.563-13.929c8.937,0,11.246,4.676,11.246,11.457H211.782z"/>
		<path fill="#004889" d="M235.427,46.551c0-4.153-0.946-5.887-3.207-5.887c-2.839,0-3.204,3.575-3.204,9.408
			c0,6.414,0.365,9.355,3.204,9.355c2.525,0,3.102-1.732,3.207-6.728h7.883c-0.052,8.78-3.519,12.299-11.247,12.299
			c-10.722,0-11.563-7.515-11.563-15.977c0-7.99,2.313-13.929,11.563-13.929c8.938,0,11.247,4.676,11.247,11.457H235.427z"/>
		<path fill="#004889" d="M252.66,51.44v1.733c0,4.416,0.633,6.57,3.102,6.57c2.206,0,2.891-1.627,3.102-5.202h7.885
			c-0.159,7.041-3.996,10.457-11.038,10.457c-10.725,0-11.563-7.515-11.563-15.977c0-7.99,2.31-13.929,11.563-13.929
			c10.565,0,11.301,6.677,11.301,16.347H252.66z M258.812,46.497c0-3.991-0.527-6.146-2.891-6.146c-2.788,0-3.261,2.31-3.261,6.146
			H258.812z"/>
		<path fill="#004889" d="M275.255,55.227c0.052,1.26,0.154,2.363,0.576,3.204c0.473,0.786,1.26,1.313,2.628,1.313
			c1.996,0,3.051-1.263,3.051-2.891c0-1.313-0.633-2.574-3.262-3.469c-6.99-2.366-10.354-3.731-10.354-9.725
			c0-5.676,3.996-8.566,10.827-8.566c7.99,0,10.303,3.889,10.303,7.988v0.946h-7.569v-0.524c0-2.472-1-3.153-2.785-3.153
			c-2.261,0-2.891,1.101-2.891,2.629c0,5.046,13.612,1.682,13.612,12.717c0,5.73-3.837,9.303-10.881,9.303
			c-7.62,0-10.827-2.837-10.827-8.513v-1.26H275.255z"/>
		<path fill="#004889" d="M297.953,55.227c0.051,1.26,0.159,2.363,0.575,3.204c0.474,0.786,1.267,1.313,2.629,1.313
			c2.001,0,3.05-1.263,3.05-2.891c0-1.313-0.633-2.574-3.258-3.469c-6.993-2.366-10.357-3.731-10.357-9.725
			c0-5.676,3.997-8.566,10.83-8.566c7.991,0,10.3,3.889,10.3,7.988v0.946h-7.565v-0.524c0-2.472-0.998-3.153-2.788-3.153
			c-2.258,0-2.891,1.101-2.891,2.629c0,5.046,13.615,1.682,13.615,12.717c0,5.73-3.837,9.303-10.882,9.303
			c-7.62,0-10.827-2.837-10.827-8.513v-1.26H297.953z"/>
		<path fill="#004889" d="M323.438,26h7.147l-11.982,38.999h-7.149L323.438,26z"/>
		<path fill="#79BC28" d="M331.632,26.735h12.932l4.624,24.653h0.105l4.467-24.653h12.771v37.527h-8.199v-29.22h-0.103l-5.729,29.22
			h-6.837l-6.043-29.22h-0.103v29.22h-7.886V26.735z"/>
		<path fill="#79BC28" d="M386.338,39.77c0-5.465-0.633-7.883-3.574-7.883c-3.523,0-3.838,3.364-3.838,13.193
			c0,11.144,0.368,14.034,4.049,14.034c3.255,0,3.626-3.734,3.678-9.566h8.515v1.313c0,8.094-2.261,14.138-13.19,14.138
			c-11.304,0-12.195-8.462-12.195-19.762c0-9.619,0.524-19.237,13.033-19.237c7.78,0,12.036,3.364,12.036,12.195v1.574H386.338z"/>
		<path fill="#79BC28" d="M397.471,26.735h12.928l4.627,24.653h0.105l4.468-24.653h12.774v37.527h-8.202v-29.22h-0.105l-5.73,29.22
			h-6.83l-6.044-29.22h-0.108v29.22h-7.882V26.735z"/>
	</g>
</g>
</svg>
