<?xml version="1.0" encoding="utf-8"?>
<!-- Generator: Adobe Illustrator 16.0.0, SVG Export Plug-In . SVG Version: 6.00 Build 0)  -->
<!DOCTYPE svg PUBLIC "-//W3C//DTD SVG 1.1//EN" "http://www.w3.org/Graphics/SVG/1.1/DTD/svg11.dtd">
<svg version="1.1" id="圖層_1" xmlns="http://www.w3.org/2000/svg" xmlns:xlink="http://www.w3.org/1999/xlink" x="0px" y="0px"
	 width="512px" height="128px" viewBox="0 0 512 128" enable-background="new 0 0 512 128" xml:space="preserve">
<g>
	<g>
		<path fill="#004889" d="M21.368,26.736h8.83l3.259,26.7h0.104l3.891-26.7h8.199l4.205,26.7h0.105l3.153-26.7h8.515l-6.518,37.527
			h-9.776l-3.837-26.647h-0.104l-3.627,26.647h-9.776L21.368,26.736z"/>
		<path fill="#004889" d="M62.992,26.736h8.83v37.527h-8.83V26.736z"/>
		<path fill="#004889" d="M82.91,52.806v1.313c0,2.838,0.789,4.993,3.837,4.993c3.102,0,3.995-2.313,3.995-4.467
			c0-8.094-16.136-3.574-16.136-17.608c0-5.992,3.206-11.038,12.3-11.038c8.83,0,11.983,4.467,11.983,10.25v0.894h-8.515
			c0-1.788-0.21-3.101-0.736-3.942c-0.525-0.895-1.366-1.314-2.68-1.314c-2.208,0-3.522,1.314-3.522,4.047
			c0,7.832,16.137,3.89,16.137,17.135c0,8.514-4.73,11.931-12.826,11.931c-6.411,0-12.351-1.946-12.351-9.776v-2.417H82.91z"/>
		<path fill="#004889" d="M101.986,26.736h21.707v7.148h-12.877v7.515h12.089v7.148h-12.089v8.567h13.455v7.148h-22.285V26.736z"/>
		<path fill="#004889" d="M125.479,45.5h15.873v7.147h-15.873V45.5z"/>
		<path fill="#004889" d="M144.03,26.736h13.666c9.303,0,11.09,6.727,11.09,11.405c0,6.728-3.206,11.458-12.036,11.458h-3.89v14.665
			h-8.83V26.736z M152.86,43.083h2.418c3.522,0,4.363-2.208,4.363-4.731c0-2.891-0.946-5.098-4.521-5.098h-2.26V43.083z"/>
		<path fill="#004889" d="M168.942,44.554c0.053-3.89,1.21-6.255,3.206-7.621c1.998-1.367,4.416-1.84,7.938-1.84
			c6.991,0,10.091,2.418,10.091,8.41v14.612c0,2.155,0,4.888,0.999,6.149h-8.199c-0.315-0.999-0.42-2.155-0.473-3.259h-0.105
			c-1.157,2.522-3.837,3.995-6.675,3.995c-4.783,0-7.569-2.524-7.569-8.673c0-3.311,1.366-6.097,3.469-7.253
			c2.103-1.157,5.256-1.683,7.622-2.313c2.576-0.683,3.049-1.104,3.049-3.259c0-1.735-0.789-2.838-2.681-2.838
			c-2.366,0-3.048,1.419-3.101,3.89H168.942z M178.824,59.112c1.786,0,3.416-1.051,3.416-3.889c0-2.366,0.053-3.837,0.053-4.994
			c-2.681,1.42-3.837,1.472-4.626,2.103c-0.894,0.683-1.314,1.576-1.314,3.154C176.354,57.746,177.247,59.112,178.824,59.112z"/>
		<path fill="#004889" d="M193.381,44.554c0.053-3.89,1.209-6.255,3.206-7.621c1.997-1.367,4.415-1.84,7.937-1.84
			c6.991,0,10.091,2.418,10.091,8.41v14.612c0,2.155,0,4.888,0.998,6.149h-8.199c-0.314-0.999-0.42-2.155-0.473-3.259h-0.104
			C205.68,63.527,203,65,200.162,65c-4.783,0-7.569-2.524-7.569-8.673c0-3.311,1.367-6.097,3.469-7.253
			c2.103-1.157,5.256-1.683,7.621-2.313c2.576-0.683,3.049-1.104,3.049-3.259c0-1.735-0.788-2.838-2.681-2.838
			c-2.366,0-3.049,1.419-3.101,3.89H193.381z M203.263,59.112c1.787,0,3.416-1.051,3.416-3.889c0-2.366,0.053-3.837,0.053-4.994
			c-2.681,1.42-3.837,1.472-4.625,2.103c-0.895,0.683-1.315,1.576-1.315,3.154C200.792,57.746,201.685,59.112,203.263,59.112z"/>
		<path fill="#004889" d="M225.65,52.806v1.313c0,2.838,0.789,4.993,3.837,4.993c3.102,0,3.995-2.313,3.995-4.467
			c0-8.094-16.136-3.574-16.136-17.608c0-5.992,3.206-11.038,12.299-11.038c8.831,0,11.984,4.467,11.984,10.25v0.894h-8.515
			c0-1.788-0.21-3.101-0.736-3.942c-0.525-0.895-1.366-1.314-2.68-1.314c-2.208,0-3.521,1.314-3.521,4.047
			c0,7.832,16.136,3.89,16.136,17.135c0,8.514-4.73,11.931-12.825,11.931c-6.412,0-12.351-1.946-12.351-9.776v-2.417H225.65z"/>
		<path fill="#004889" d="M253.557,26h7.149l-11.984,39h-7.147L253.557,26z"/>
		<path fill="#91308C" d="M268.377,26.736h21.707v7.148h-12.877v7.515h12.088v7.148h-12.088v8.567h13.455v7.148h-22.285V26.736z"/>
		<path fill="#91308C" d="M307.322,60.795h-0.104c-0.632,1.944-2.366,4.205-6.15,4.205c-5.729,0-8.777-4.1-8.777-14.717
			c0-8.831,1.262-15.191,8.251-15.191c2.366,0,4.942,0.789,6.361,3.837h0.105V26.736h8.515v37.527h-8.199V60.795z M304.063,41.295
			c-3.101,0-3.259,3.417-3.259,8.567c0,4.572,0.105,8.935,3.312,8.935c2.522,0,3.048-3.048,3.048-8.567
			C307.164,45.184,306.954,41.295,304.063,41.295z"/>
		<path fill="#91308C" d="M333.6,35.829h7.883v27.437c0,6.412-2.837,10.67-11.826,10.67c-8.251,0-10.669-3.626-10.669-7.884h7.883
			c0.158,0.789,0.421,1.367,0.894,1.735c0.526,0.367,1.209,0.578,2.103,0.578c2.838,0,3.417-1.839,3.417-7.253v-1.735h-0.105
			c-1.156,3.258-3.837,4.205-6.728,4.205c-6.149,0-7.989-6.098-7.989-13.929c0-6.728,0.894-14.56,8.304-14.56
			c3.837,0,5.729,1.998,6.728,4.573h0.105V35.829z M330.078,57.378c2.313,0,3.206-1.682,3.206-8.094
			c0-5.203-0.631-7.674-3.101-7.674c-2.786,0-3.207,3.259-3.207,7.937C326.977,55.487,327.765,57.378,330.078,57.378z"/>
		<path fill="#91308C" d="M352.465,51.439v1.735c0,4.416,0.631,6.569,3.102,6.569c2.208,0,2.89-1.629,3.101-5.203h7.884
			C366.394,61.583,362.557,65,355.515,65c-10.722,0-11.563-7.517-11.563-15.979c0-7.989,2.312-13.929,11.563-13.929
			c10.564,0,11.301,6.675,11.301,16.347H352.465z M358.616,46.498c0-3.994-0.526-6.149-2.891-6.149
			c-2.786,0-3.259,2.313-3.259,6.149H358.616z"/>
		<path fill="#91308C" d="M376.535,52.806v1.313c0,2.838,0.789,4.993,3.837,4.993c3.102,0,3.995-2.313,3.995-4.467
			c0-8.094-16.136-3.574-16.136-17.608c0-5.992,3.206-11.038,12.299-11.038c8.83,0,11.984,4.467,11.984,10.25v0.894h-8.515
			c0-1.788-0.21-3.101-0.737-3.942c-0.525-0.895-1.366-1.314-2.68-1.314c-2.208,0-3.521,1.314-3.521,4.047
			c0,7.832,16.136,3.89,16.136,17.135c0,8.514-4.73,11.931-12.825,11.931c-6.412,0-12.352-1.946-12.352-9.776v-2.417H376.535z"/>
		<path fill="#91308C" d="M403.337,51.439v1.735c0,4.416,0.632,6.569,3.103,6.569c2.208,0,2.89-1.629,3.101-5.203h7.884
			C417.267,61.583,413.43,65,406.387,65c-10.722,0-11.563-7.517-11.563-15.979c0-7.989,2.312-13.929,11.563-13.929
			c10.564,0,11.3,6.675,11.3,16.347H403.337z M409.488,46.498c0-3.994-0.526-6.149-2.891-6.149c-2.786,0-3.26,2.313-3.26,6.149
			H409.488z"/>
		<path fill="#91308C" d="M419.734,35.829h8.2v3.363h0.104c1.209-2.522,3.679-4.1,6.833-4.1c4.835,0,7.411,2.418,7.411,7.885v21.286
			h-8.515V44.869c0-2.049-0.894-3.259-2.47-3.259c-1.629,0-3.049,1.262-3.049,4.047v18.606h-8.515V35.829z"/>
		<path fill="#91308C" d="M452.214,55.224c0.053,1.261,0.158,2.366,0.578,3.206c0.473,0.788,1.262,1.314,2.629,1.314
			c1.997,0,3.048-1.261,3.048-2.891c0-1.314-0.63-2.575-3.258-3.469c-6.991-2.366-10.354-3.732-10.354-9.723
			c0-5.676,3.994-8.568,10.828-8.568c7.989,0,10.301,3.89,10.301,7.99v0.945h-7.568v-0.525c0-2.47-0.999-3.154-2.786-3.154
			c-2.26,0-2.891,1.104-2.891,2.629c0,5.045,13.613,1.681,13.613,12.719c0,5.729-3.836,9.304-10.88,9.304
			c-7.621,0-10.827-2.839-10.827-8.516v-1.261H452.214z"/>
		<path fill="#91308C" d="M476.283,51.439v1.735c0,4.416,0.631,6.569,3.102,6.569c2.207,0,2.892-1.629,3.101-5.203h7.884
			C490.213,61.583,486.376,65,479.332,65c-10.722,0-11.563-7.517-11.563-15.979c0-7.989,2.313-13.929,11.563-13.929
			c10.565,0,11.3,6.675,11.3,16.347H476.283z M482.432,46.498c0-3.994-0.524-6.149-2.89-6.149c-2.786,0-3.259,2.313-3.259,6.149
			H482.432z"/>
	</g>
</g>
</svg>
