<?xml version="1.0" encoding="utf-8"?>
<!-- Generator: Adobe Illustrator 16.0.0, SVG Export Plug-In . SVG Version: 6.00 Build 0)  -->
<!DOCTYPE svg PUBLIC "-//W3C//DTD SVG 1.1//EN" "http://www.w3.org/Graphics/SVG/1.1/DTD/svg11.dtd">
<svg version="1.1" id="圖層_1" xmlns="http://www.w3.org/2000/svg" xmlns:xlink="http://www.w3.org/1999/xlink" x="0px" y="0px"
	 width="512px" height="128px" viewBox="0 0 512 128" enable-background="new 0 0 512 128" xml:space="preserve">
<g>
	<g>
		<path fill="#004889" d="M56.63,26.736h8.83l3.259,26.7h0.105l3.89-26.7h8.199l4.205,26.7h0.105l3.154-26.7h8.514l-6.518,37.527
			h-9.776l-3.837-26.647h-0.105l-3.627,26.647h-9.776L56.63,26.736z"/>
		<path fill="#004889" d="M98.254,26.736h8.83v37.527h-8.83V26.736z"/>
		<path fill="#004889" d="M118.172,52.806v1.313c0,2.839,0.789,4.993,3.837,4.993c3.102,0,3.995-2.313,3.995-4.467
			c0-8.094-16.136-3.574-16.136-17.608c0-5.992,3.206-11.038,12.299-11.038c8.831,0,11.984,4.467,11.984,10.25v0.894h-8.515
			c0-1.788-0.21-3.101-0.736-3.942c-0.525-0.894-1.366-1.314-2.68-1.314c-2.208,0-3.522,1.314-3.522,4.047
			c0,7.832,16.136,3.89,16.136,17.136c0,8.514-4.73,11.931-12.825,11.931c-6.412,0-12.351-1.945-12.351-9.776v-2.418H118.172z"/>
		<path fill="#004889" d="M137.249,26.736h21.708v7.147h-12.877V41.4h12.089v7.148h-12.089v8.568h13.456v7.147h-22.286V26.736z"/>
		<path fill="#004889" d="M160.742,45.5h15.873v7.147h-15.873V45.5z"/>
		<path fill="#004889" d="M179.293,26.736h13.666c9.303,0,11.09,6.728,11.09,11.405c0,6.728-3.206,11.458-12.036,11.458h-3.89
			v14.665h-8.83V26.736z M188.123,43.083h2.417c3.522,0,4.363-2.208,4.363-4.731c0-2.891-0.946-5.098-4.52-5.098h-2.261V43.083z"/>
		<path fill="#004889" d="M204.205,44.554c0.053-3.89,1.209-6.254,3.206-7.621c1.998-1.367,4.415-1.84,7.937-1.84
			c6.991,0,10.091,2.418,10.091,8.41v14.612c0,2.154,0,4.889,0.999,6.149h-8.199c-0.315-0.998-0.42-2.154-0.473-3.259h-0.105
			c-1.156,2.522-3.837,3.995-6.675,3.995c-4.783,0-7.569-2.523-7.569-8.673c0-3.312,1.366-6.097,3.469-7.253
			s5.256-1.683,7.621-2.313c2.576-0.683,3.049-1.104,3.049-3.259c0-1.734-0.788-2.838-2.681-2.838c-2.366,0-3.049,1.419-3.101,3.89
			H204.205z M214.087,59.112c1.787,0,3.416-1.051,3.416-3.889c0-2.365,0.053-3.837,0.053-4.993
			c-2.681,1.419-3.837,1.471-4.625,2.103c-0.895,0.683-1.314,1.576-1.314,3.153C211.616,57.746,212.509,59.112,214.087,59.112z"/>
		<path fill="#004889" d="M228.644,44.554c0.053-3.89,1.209-6.254,3.206-7.621c1.998-1.367,4.415-1.84,7.937-1.84
			c6.991,0,10.091,2.418,10.091,8.41v14.612c0,2.154,0,4.889,0.999,6.149h-8.199c-0.315-0.998-0.42-2.154-0.474-3.259h-0.105
			c-1.156,2.522-3.837,3.995-6.674,3.995c-4.783,0-7.569-2.523-7.569-8.673c0-3.312,1.366-6.097,3.469-7.253
			s5.257-1.683,7.621-2.313c2.576-0.683,3.049-1.104,3.049-3.259c0-1.734-0.788-2.838-2.681-2.838c-2.365,0-3.049,1.419-3.101,3.89
			H228.644z M238.525,59.112c1.786,0,3.416-1.051,3.416-3.889c0-2.365,0.053-3.837,0.053-4.993
			c-2.681,1.419-3.837,1.471-4.625,2.103c-0.895,0.683-1.314,1.576-1.314,3.153C236.055,57.746,236.948,59.112,238.525,59.112z"/>
		<path fill="#004889" d="M260.913,52.806v1.313c0,2.839,0.789,4.993,3.837,4.993c3.102,0,3.995-2.313,3.995-4.467
			c0-8.094-16.136-3.574-16.136-17.608c0-5.992,3.206-11.038,12.299-11.038c8.83,0,11.984,4.467,11.984,10.25v0.894h-8.516
			c0-1.788-0.21-3.101-0.736-3.942c-0.524-0.894-1.366-1.314-2.68-1.314c-2.207,0-3.521,1.314-3.521,4.047
			c0,7.832,16.136,3.89,16.136,17.136c0,8.514-4.729,11.931-12.825,11.931c-6.411,0-12.351-1.945-12.351-9.776v-2.418H260.913z"/>
		<path fill="#004889" d="M288.82,26h7.148l-11.984,39h-7.147L288.82,26z"/>
		<path fill="#008BD5" d="M303.64,26.736h21.708v7.147h-12.877V41.4h12.089v7.148h-12.089v8.568h13.455v7.147H303.64V26.736z"/>
		<path fill="#008BD5" d="M328.236,35.829h8.199v3.364h0.105c1.209-2.522,3.679-4.1,6.832-4.1c4.836,0,7.411,2.418,7.411,7.885
			v21.286h-8.515V44.869c0-2.049-0.894-3.259-2.47-3.259c-1.63,0-3.049,1.262-3.049,4.047v18.606h-8.515V35.829z"/>
		<path fill="#008BD5" d="M361.872,52.806v1.313c0,2.839,0.789,4.993,3.837,4.993c3.102,0,3.995-2.313,3.995-4.467
			c0-8.094-16.136-3.574-16.136-17.608c0-5.992,3.206-11.038,12.299-11.038c8.83,0,11.984,4.467,11.984,10.25v0.894h-8.516
			c0-1.788-0.21-3.101-0.736-3.942c-0.524-0.894-1.366-1.314-2.68-1.314c-2.207,0-3.521,1.314-3.521,4.047
			c0,7.832,16.137,3.89,16.137,17.136c0,8.514-4.73,11.931-12.826,11.931c-6.411,0-12.351-1.945-12.351-9.776v-2.418H361.872z"/>
		<path fill="#008BD5" d="M380.948,44.554c0.054-3.89,1.21-6.254,3.206-7.621c1.998-1.367,4.415-1.84,7.938-1.84
			c6.99,0,10.092,2.418,10.092,8.41v14.612c0,2.154,0,4.889,0.998,6.149h-8.199c-0.315-0.998-0.42-2.154-0.474-3.259h-0.104
			c-1.156,2.522-3.837,3.995-6.675,3.995c-4.783,0-7.569-2.523-7.569-8.673c0-3.312,1.367-6.097,3.469-7.253
			c2.103-1.156,5.257-1.683,7.621-2.313c2.576-0.683,3.049-1.104,3.049-3.259c0-1.734-0.788-2.838-2.681-2.838
			c-2.365,0-3.049,1.419-3.101,3.89H380.948z M390.83,59.112c1.787,0,3.416-1.051,3.416-3.889c0-2.365,0.053-3.837,0.053-4.993
			c-2.681,1.419-3.837,1.471-4.625,2.103c-0.895,0.683-1.314,1.576-1.314,3.153C388.359,57.746,389.253,59.112,390.83,59.112z"/>
		<path fill="#008BD5" d="M405.912,44.554c0.053-3.89,1.209-6.254,3.206-7.621c1.997-1.367,4.415-1.84,7.937-1.84
			c6.991,0,10.092,2.418,10.092,8.41v14.612c0,2.154,0,4.889,0.999,6.149h-8.199c-0.315-0.998-0.421-2.154-0.474-3.259h-0.104
			c-1.156,2.522-3.837,3.995-6.675,3.995c-4.783,0-7.569-2.523-7.569-8.673c0-3.312,1.366-6.097,3.469-7.253
			s5.257-1.683,7.621-2.313c2.576-0.683,3.049-1.104,3.049-3.259c0-1.734-0.788-2.838-2.681-2.838c-2.365,0-3.049,1.419-3.101,3.89
			H405.912z M415.794,59.112c1.786,0,3.416-1.051,3.416-3.889c0-2.365,0.053-3.837,0.053-4.993
			c-2.681,1.419-3.837,1.471-4.625,2.103c-0.895,0.683-1.314,1.576-1.314,3.153C413.323,57.746,414.217,59.112,415.794,59.112z"/>
		<path fill="#008BD5" d="M438.708,52.806v1.313c0,2.839,0.789,4.993,3.837,4.993c3.102,0,3.995-2.313,3.995-4.467
			c0-8.094-16.136-3.574-16.136-17.608c0-5.992,3.205-11.038,12.299-11.038c8.83,0,11.984,4.467,11.984,10.25v0.894h-8.516
			c0-1.788-0.21-3.101-0.736-3.942c-0.525-0.894-1.366-1.314-2.68-1.314c-2.207,0-3.521,1.314-3.521,4.047
			c0,7.832,16.136,3.89,16.136,17.136c0,8.514-4.73,11.931-12.825,11.931c-6.412,0-12.352-1.945-12.352-9.776v-2.418H438.708z"/>
	</g>
</g>
<g>
	<path fill="#79849A" d="M418.204,104.028h-30.492v-3.142h12.548V74.339h3.261v10.5h13.18v3.073h-13.18v12.975h14.683V104.028z"/>
	<path fill="#79849A" d="M430.65,87.178l-2.1,2.373c-1.844-1.753-3.756-3.17-5.736-4.251l2.1-2.425
		C427.508,84.446,429.42,85.88,430.65,87.178z M430.223,93.409c-1.571,4.974-3.13,8.804-4.678,11.49l-2.697-1.913
		c1.855-3.392,3.409-7.192,4.661-11.404L430.223,93.409z M430.923,78.607l-2.236,2.39c-1.343-1.57-3.09-3.101-5.241-4.592
		l2.202-2.271C427.537,75.421,429.295,76.911,430.923,78.607z M453.168,79.904h-17.346c-1.07,1.674-2.174,3.097-3.312,4.269
		l-2.629-1.827c2.105-2.048,3.972-4.819,5.6-8.313l3.141,0.597c-0.319,0.752-0.717,1.565-1.195,2.441h15.741V79.904z
		 M453.134,92.385h-2.527c-0.068,1.377-0.194,2.987-0.375,4.831h2.236v2.767h-2.476c-0.364,3.21-1.696,4.814-3.995,4.814
		l-3.944-0.034l-1.263-2.937c1.662,0.045,3.152,0.068,4.473,0.068c1.093,0,1.639-0.638,1.639-1.912h-15.092
		c0.603-2.767,1.059-5.299,1.366-7.598h-2.39V89.67h2.834c0.467-3.539,0.769-5.98,0.905-7.324h16.44c0,1.389-0.068,3.83-0.205,7.324
		h2.373V92.385z M447.568,92.385h-11.353c-0.319,2.162-0.575,3.773-0.768,4.831h11.746
		C447.364,95.646,447.489,94.035,447.568,92.385z M447.927,85.112h-10.739c-0.068,0.989-0.256,2.509-0.563,4.558h11.08
		C447.819,87.689,447.893,86.17,447.927,85.112z M444.957,94.519l-1.195,2.236c-1.4-0.625-3.113-1.16-5.139-1.604l1.229-2.271
		C442.037,93.449,443.738,93.995,444.957,94.519z M445.469,86.973l-1.042,2.168c-1.958-0.603-3.67-0.99-5.139-1.16l1.007-2.203
		C442.447,86.063,444.171,86.461,445.469,86.973z"/>
</g>
</svg>
