<?xml version="1.0" encoding="utf-8"?>
<!-- Generator: Adobe Illustrator 16.0.0, SVG Export Plug-In . SVG Version: 6.00 Build 0)  -->
<!DOCTYPE svg PUBLIC "-//W3C//DTD SVG 1.1//EN" "http://www.w3.org/Graphics/SVG/1.1/DTD/svg11.dtd">
<svg version="1.1" id="圖層_1" xmlns="http://www.w3.org/2000/svg" xmlns:xlink="http://www.w3.org/1999/xlink" x="0px" y="0px"
	 width="512px" height="128px" viewBox="0 0 512 128" enable-background="new 0 0 512 128" xml:space="preserve">
<g>
	<g>
		<path fill="#004889" d="M56.63,26.736h8.83l3.259,26.7h0.105l3.89-26.7h8.199l4.205,26.7h0.105l3.154-26.7h8.514l-6.518,37.527
			h-9.776l-3.837-26.647h-0.105l-3.627,26.647h-9.776L56.63,26.736z"/>
		<path fill="#004889" d="M98.254,26.736h8.83v37.527h-8.83V26.736z"/>
		<path fill="#004889" d="M118.172,52.806v1.313c0,2.839,0.789,4.993,3.837,4.993c3.102,0,3.995-2.313,3.995-4.467
			c0-8.095-16.136-3.574-16.136-17.608c0-5.992,3.206-11.037,12.299-11.037c8.831,0,11.984,4.467,11.984,10.25v0.893h-8.515
			c0-1.787-0.21-3.101-0.736-3.941c-0.525-0.895-1.366-1.314-2.68-1.314c-2.208,0-3.522,1.314-3.522,4.047
			c0,7.832,16.136,3.891,16.136,17.136c0,8.514-4.73,11.931-12.825,11.931c-6.412,0-12.351-1.945-12.351-9.776v-2.418H118.172z"/>
		<path fill="#004889" d="M137.249,26.736h21.708v7.147h-12.877V41.4h12.089v7.147h-12.089v8.568h13.456v7.147h-22.286V26.736z"/>
		<path fill="#004889" d="M160.742,45.5h15.873v7.147h-15.873V45.5z"/>
		<path fill="#004889" d="M179.293,26.736h13.666c9.303,0,11.09,6.728,11.09,11.404c0,6.729-3.206,11.458-12.036,11.458h-3.89
			v14.665h-8.83V26.736z M188.123,43.082h2.417c3.522,0,4.363-2.207,4.363-4.73c0-2.891-0.946-5.099-4.52-5.099h-2.261V43.082z"/>
		<path fill="#004889" d="M204.205,44.554c0.053-3.89,1.209-6.255,3.206-7.621c1.998-1.367,4.415-1.841,7.937-1.841
			c6.991,0,10.091,2.419,10.091,8.41v14.612c0,2.154,0,4.889,0.999,6.149h-8.199c-0.315-0.998-0.42-2.154-0.473-3.259h-0.105
			c-1.156,2.522-3.837,3.995-6.675,3.995c-4.783,0-7.569-2.523-7.569-8.673c0-3.312,1.366-6.097,3.469-7.253
			s5.256-1.683,7.621-2.313c2.576-0.684,3.049-1.104,3.049-3.26c0-1.734-0.788-2.838-2.681-2.838c-2.366,0-3.049,1.419-3.101,3.89
			H204.205z M214.087,59.112c1.787,0,3.416-1.051,3.416-3.889c0-2.365,0.053-3.837,0.053-4.993
			c-2.681,1.419-3.837,1.471-4.625,2.103c-0.895,0.683-1.314,1.576-1.314,3.153C211.616,57.746,212.509,59.112,214.087,59.112z"/>
		<path fill="#004889" d="M228.644,44.554c0.053-3.89,1.209-6.255,3.206-7.621c1.998-1.367,4.415-1.841,7.937-1.841
			c6.991,0,10.091,2.419,10.091,8.41v14.612c0,2.154,0,4.889,0.999,6.149h-8.199c-0.315-0.998-0.42-2.154-0.474-3.259h-0.105
			c-1.156,2.522-3.837,3.995-6.674,3.995c-4.783,0-7.569-2.523-7.569-8.673c0-3.312,1.366-6.097,3.469-7.253
			s5.257-1.683,7.621-2.313c2.576-0.684,3.049-1.104,3.049-3.26c0-1.734-0.788-2.838-2.681-2.838c-2.365,0-3.049,1.419-3.101,3.89
			H228.644z M238.525,59.112c1.786,0,3.416-1.051,3.416-3.889c0-2.365,0.053-3.837,0.053-4.993
			c-2.681,1.419-3.837,1.471-4.625,2.103c-0.895,0.683-1.314,1.576-1.314,3.153C236.055,57.746,236.948,59.112,238.525,59.112z"/>
		<path fill="#004889" d="M260.913,52.806v1.313c0,2.839,0.789,4.993,3.837,4.993c3.102,0,3.995-2.313,3.995-4.467
			c0-8.095-16.136-3.574-16.136-17.608c0-5.992,3.206-11.037,12.299-11.037c8.83,0,11.984,4.467,11.984,10.25v0.893h-8.516
			c0-1.787-0.21-3.101-0.736-3.941c-0.524-0.895-1.366-1.314-2.68-1.314c-2.207,0-3.521,1.314-3.521,4.047
			c0,7.832,16.136,3.891,16.136,17.136c0,8.514-4.729,11.931-12.825,11.931c-6.411,0-12.351-1.945-12.351-9.776v-2.418H260.913z"/>
		<path fill="#004889" d="M288.82,26h7.148l-11.984,39h-7.147L288.82,26z"/>
		<path fill="#008BD5" d="M303.64,26.736h21.708v7.147h-12.877V41.4h12.089v7.147h-12.089v8.568h13.455v7.147H303.64V26.736z"/>
		<path fill="#008BD5" d="M328.236,35.828h8.199v3.364h0.105c1.209-2.522,3.679-4.101,6.832-4.101c4.836,0,7.411,2.419,7.411,7.886
			v21.286h-8.515V44.869c0-2.05-0.894-3.26-2.47-3.26c-1.63,0-3.049,1.262-3.049,4.048v18.606h-8.515V35.828z"/>
		<path fill="#008BD5" d="M361.872,52.806v1.313c0,2.839,0.789,4.993,3.837,4.993c3.102,0,3.995-2.313,3.995-4.467
			c0-8.095-16.136-3.574-16.136-17.608c0-5.992,3.206-11.037,12.299-11.037c8.83,0,11.984,4.467,11.984,10.25v0.893h-8.516
			c0-1.787-0.21-3.101-0.736-3.941c-0.524-0.895-1.366-1.314-2.68-1.314c-2.207,0-3.521,1.314-3.521,4.047
			c0,7.832,16.137,3.891,16.137,17.136c0,8.514-4.73,11.931-12.826,11.931c-6.411,0-12.351-1.945-12.351-9.776v-2.418H361.872z"/>
		<path fill="#008BD5" d="M380.948,44.554c0.054-3.89,1.21-6.255,3.206-7.621c1.998-1.367,4.415-1.841,7.938-1.841
			c6.99,0,10.092,2.419,10.092,8.41v14.612c0,2.154,0,4.889,0.998,6.149h-8.199c-0.315-0.998-0.42-2.154-0.474-3.259h-0.104
			c-1.156,2.522-3.837,3.995-6.675,3.995c-4.783,0-7.569-2.523-7.569-8.673c0-3.312,1.367-6.097,3.469-7.253
			c2.103-1.156,5.257-1.683,7.621-2.313c2.576-0.684,3.049-1.104,3.049-3.26c0-1.734-0.788-2.838-2.681-2.838
			c-2.365,0-3.049,1.419-3.101,3.89H380.948z M390.83,59.112c1.787,0,3.416-1.051,3.416-3.889c0-2.365,0.053-3.837,0.053-4.993
			c-2.681,1.419-3.837,1.471-4.625,2.103c-0.895,0.683-1.314,1.576-1.314,3.153C388.359,57.746,389.253,59.112,390.83,59.112z"/>
		<path fill="#008BD5" d="M405.912,44.554c0.053-3.89,1.209-6.255,3.206-7.621c1.997-1.367,4.415-1.841,7.937-1.841
			c6.991,0,10.092,2.419,10.092,8.41v14.612c0,2.154,0,4.889,0.999,6.149h-8.199c-0.315-0.998-0.421-2.154-0.474-3.259h-0.104
			c-1.156,2.522-3.837,3.995-6.675,3.995c-4.783,0-7.569-2.523-7.569-8.673c0-3.312,1.366-6.097,3.469-7.253
			s5.257-1.683,7.621-2.313c2.576-0.684,3.049-1.104,3.049-3.26c0-1.734-0.788-2.838-2.681-2.838c-2.365,0-3.049,1.419-3.101,3.89
			H405.912z M415.794,59.112c1.786,0,3.416-1.051,3.416-3.889c0-2.365,0.053-3.837,0.053-4.993
			c-2.681,1.419-3.837,1.471-4.625,2.103c-0.895,0.683-1.314,1.576-1.314,3.153C413.323,57.746,414.217,59.112,415.794,59.112z"/>
		<path fill="#008BD5" d="M438.708,52.806v1.313c0,2.839,0.789,4.993,3.837,4.993c3.102,0,3.995-2.313,3.995-4.467
			c0-8.095-16.136-3.574-16.136-17.608c0-5.992,3.205-11.037,12.299-11.037c8.83,0,11.984,4.467,11.984,10.25v0.893h-8.516
			c0-1.787-0.21-3.101-0.736-3.941c-0.525-0.895-1.366-1.314-2.68-1.314c-2.207,0-3.521,1.314-3.521,4.047
			c0,7.832,16.136,3.891,16.136,17.136c0,8.514-4.73,11.931-12.825,11.931c-6.412,0-12.352-1.945-12.352-9.776v-2.418H438.708z"/>
	</g>
</g>
<g>
	<path fill="#79849A" d="M403.692,100.152c-5.02,2.025-10.101,3.659-15.246,4.9l-0.905-3.006c3.517-0.842,6.556-1.707,9.117-2.594
		V87.314h-8.451v-3.176h8.451v-9.715h3.227v23.902c0.979-0.33,2.225-0.791,3.739-1.383L403.692,100.152z M418.391,95.85
		c-0.08,1.891-0.285,3.604-0.614,5.139c-0.331,1.537-0.854,2.539-1.571,3.006c-0.717,0.467-2.276,0.699-4.678,0.699
		c-1.491,0-2.652-0.054-3.483-0.162c-0.831-0.107-1.474-0.436-1.929-0.981c-0.456-0.546-0.683-1.331-0.683-2.356v-26.77h3.227v9.715
		h9.048v3.176h-9.048v13.504c0,0.262,0.128,0.452,0.384,0.572c0.256,0.119,1.164,0.179,2.723,0.179c1.001,0,1.742-0.054,2.22-0.162
		s0.793-0.958,0.947-2.552s0.23-2.908,0.23-3.944L418.391,95.85z"/>
	<path fill="#79849A" d="M433.518,96.482c-1.946,2.492-4.929,4.894-8.946,7.204l-1.963-2.595c3.881-2.151,6.692-4.41,8.434-6.778
		L433.518,96.482z M452.86,80.604h-29.655V77.6h12.941c-0.364-0.672-0.916-1.548-1.656-2.629l3.295-0.939
		c0.774,1.15,1.366,2.34,1.775,3.568h13.299V80.604z M449.565,93.408h-9.816v8.35c0,0.762-0.259,1.473-0.777,2.133
		c-0.518,0.66-2.006,0.99-4.464,0.99c-0.581,0-1.224-0.017-1.929-0.051l-1.229-3.381c0.888,0.092,1.781,0.137,2.681,0.137
		c1.092,0,1.781-0.039,2.065-0.119c0.285-0.079,0.427-0.273,0.427-0.58v-7.479h-10.039V83.404h23.082V93.408z M446.39,90.438v-4.028
		h-16.612v4.028H446.39z M453.561,101.416l-2.1,2.339c-2.265-2.538-5.333-4.894-9.202-7.068l2.271-2.373
		C448.581,96.692,451.591,99.06,453.561,101.416z"/>
</g>
</svg>
