<?xml version="1.0" encoding="utf-8"?>
<!-- Generator: Adobe Illustrator 16.0.0, SVG Export Plug-In . SVG Version: 6.00 Build 0)  -->
<!DOCTYPE svg PUBLIC "-//W3C//DTD SVG 1.1//EN" "http://www.w3.org/Graphics/SVG/1.1/DTD/svg11.dtd">
<svg version="1.1" id="圖層_1" xmlns="http://www.w3.org/2000/svg" xmlns:xlink="http://www.w3.org/1999/xlink" x="0px" y="0px"
	 width="512px" height="128px" viewBox="0 0 512 128" enable-background="new 0 0 512 128" xml:space="preserve">
<g>
	<g>
		<path fill="#004889" d="M56.63,26.736h8.83l3.259,26.7h0.105l3.89-26.7h8.199l4.205,26.7h0.105l3.154-26.7h8.514l-6.518,37.527
			h-9.776l-3.837-26.647h-0.105l-3.627,26.647h-9.776L56.63,26.736z"/>
		<path fill="#004889" d="M98.254,26.736h8.83v37.527h-8.83V26.736z"/>
		<path fill="#004889" d="M118.172,52.806v1.313c0,2.839,0.789,4.993,3.837,4.993c3.102,0,3.995-2.313,3.995-4.467
			c0-8.094-16.136-3.574-16.136-17.608c0-5.992,3.206-11.038,12.299-11.038c8.831,0,11.984,4.467,11.984,10.25v0.894h-8.515
			c0-1.788-0.21-3.101-0.736-3.942c-0.525-0.894-1.366-1.314-2.68-1.314c-2.208,0-3.522,1.314-3.522,4.047
			c0,7.832,16.136,3.89,16.136,17.136c0,8.514-4.73,11.931-12.825,11.931c-6.412,0-12.351-1.945-12.351-9.776v-2.418H118.172z"/>
		<path fill="#004889" d="M137.249,26.736h21.708v7.147h-12.877V41.4h12.089v7.148h-12.089v8.568h13.456v7.147h-22.286V26.736z"/>
		<path fill="#004889" d="M160.742,45.5h15.873v7.147h-15.873V45.5z"/>
		<path fill="#004889" d="M179.293,26.736h13.666c9.303,0,11.09,6.728,11.09,11.405c0,6.728-3.206,11.458-12.036,11.458h-3.89
			v14.665h-8.83V26.736z M188.123,43.083h2.417c3.522,0,4.363-2.208,4.363-4.731c0-2.891-0.946-5.098-4.52-5.098h-2.261V43.083z"/>
		<path fill="#004889" d="M204.205,44.554c0.053-3.89,1.209-6.254,3.206-7.621c1.998-1.367,4.415-1.84,7.937-1.84
			c6.991,0,10.091,2.418,10.091,8.41v14.612c0,2.154,0,4.889,0.999,6.149h-8.199c-0.315-0.998-0.42-2.154-0.473-3.259h-0.105
			c-1.156,2.522-3.837,3.995-6.675,3.995c-4.783,0-7.569-2.523-7.569-8.673c0-3.312,1.366-6.097,3.469-7.253
			s5.256-1.683,7.621-2.313c2.576-0.683,3.049-1.104,3.049-3.259c0-1.734-0.788-2.838-2.681-2.838c-2.366,0-3.049,1.419-3.101,3.89
			H204.205z M214.087,59.112c1.787,0,3.416-1.051,3.416-3.889c0-2.365,0.053-3.837,0.053-4.993
			c-2.681,1.419-3.837,1.471-4.625,2.103c-0.895,0.683-1.314,1.576-1.314,3.153C211.616,57.746,212.509,59.112,214.087,59.112z"/>
		<path fill="#004889" d="M228.644,44.554c0.053-3.89,1.209-6.254,3.206-7.621c1.998-1.367,4.415-1.84,7.937-1.84
			c6.991,0,10.091,2.418,10.091,8.41v14.612c0,2.154,0,4.889,0.999,6.149h-8.199c-0.315-0.998-0.42-2.154-0.474-3.259h-0.105
			c-1.156,2.522-3.837,3.995-6.674,3.995c-4.783,0-7.569-2.523-7.569-8.673c0-3.312,1.366-6.097,3.469-7.253
			s5.257-1.683,7.621-2.313c2.576-0.683,3.049-1.104,3.049-3.259c0-1.734-0.788-2.838-2.681-2.838c-2.365,0-3.049,1.419-3.101,3.89
			H228.644z M238.525,59.112c1.786,0,3.416-1.051,3.416-3.889c0-2.365,0.053-3.837,0.053-4.993
			c-2.681,1.419-3.837,1.471-4.625,2.103c-0.895,0.683-1.314,1.576-1.314,3.153C236.055,57.746,236.948,59.112,238.525,59.112z"/>
		<path fill="#004889" d="M260.913,52.806v1.313c0,2.839,0.789,4.993,3.837,4.993c3.102,0,3.995-2.313,3.995-4.467
			c0-8.094-16.136-3.574-16.136-17.608c0-5.992,3.206-11.038,12.299-11.038c8.83,0,11.984,4.467,11.984,10.25v0.894h-8.516
			c0-1.788-0.21-3.101-0.736-3.942c-0.524-0.894-1.366-1.314-2.68-1.314c-2.207,0-3.521,1.314-3.521,4.047
			c0,7.832,16.136,3.89,16.136,17.136c0,8.514-4.729,11.931-12.825,11.931c-6.411,0-12.351-1.945-12.351-9.776v-2.418H260.913z"/>
		<path fill="#004889" d="M288.82,26h7.148l-11.984,39h-7.147L288.82,26z"/>
		<path fill="#008BD5" d="M303.64,26.736h21.708v7.147h-12.877V41.4h12.089v7.148h-12.089v8.568h13.455v7.147H303.64V26.736z"/>
		<path fill="#008BD5" d="M328.236,35.829h8.199v3.364h0.105c1.209-2.522,3.679-4.1,6.832-4.1c4.836,0,7.411,2.418,7.411,7.885
			v21.286h-8.515V44.869c0-2.049-0.894-3.259-2.47-3.259c-1.63,0-3.049,1.262-3.049,4.047v18.606h-8.515V35.829z"/>
		<path fill="#008BD5" d="M361.872,52.806v1.313c0,2.839,0.789,4.993,3.837,4.993c3.102,0,3.995-2.313,3.995-4.467
			c0-8.094-16.136-3.574-16.136-17.608c0-5.992,3.206-11.038,12.299-11.038c8.83,0,11.984,4.467,11.984,10.25v0.894h-8.516
			c0-1.788-0.21-3.101-0.736-3.942c-0.524-0.894-1.366-1.314-2.68-1.314c-2.207,0-3.521,1.314-3.521,4.047
			c0,7.832,16.137,3.89,16.137,17.136c0,8.514-4.73,11.931-12.826,11.931c-6.411,0-12.351-1.945-12.351-9.776v-2.418H361.872z"/>
		<path fill="#008BD5" d="M380.948,44.554c0.054-3.89,1.21-6.254,3.206-7.621c1.998-1.367,4.415-1.84,7.938-1.84
			c6.99,0,10.092,2.418,10.092,8.41v14.612c0,2.154,0,4.889,0.998,6.149h-8.199c-0.315-0.998-0.42-2.154-0.474-3.259h-0.104
			c-1.156,2.522-3.837,3.995-6.675,3.995c-4.783,0-7.569-2.523-7.569-8.673c0-3.312,1.367-6.097,3.469-7.253
			c2.103-1.156,5.257-1.683,7.621-2.313c2.576-0.683,3.049-1.104,3.049-3.259c0-1.734-0.788-2.838-2.681-2.838
			c-2.365,0-3.049,1.419-3.101,3.89H380.948z M390.83,59.112c1.787,0,3.416-1.051,3.416-3.889c0-2.365,0.053-3.837,0.053-4.993
			c-2.681,1.419-3.837,1.471-4.625,2.103c-0.895,0.683-1.314,1.576-1.314,3.153C388.359,57.746,389.253,59.112,390.83,59.112z"/>
		<path fill="#008BD5" d="M405.912,44.554c0.053-3.89,1.209-6.254,3.206-7.621c1.997-1.367,4.415-1.84,7.937-1.84
			c6.991,0,10.092,2.418,10.092,8.41v14.612c0,2.154,0,4.889,0.999,6.149h-8.199c-0.315-0.998-0.421-2.154-0.474-3.259h-0.104
			c-1.156,2.522-3.837,3.995-6.675,3.995c-4.783,0-7.569-2.523-7.569-8.673c0-3.312,1.366-6.097,3.469-7.253
			s5.257-1.683,7.621-2.313c2.576-0.683,3.049-1.104,3.049-3.259c0-1.734-0.788-2.838-2.681-2.838c-2.365,0-3.049,1.419-3.101,3.89
			H405.912z M415.794,59.112c1.786,0,3.416-1.051,3.416-3.889c0-2.365,0.053-3.837,0.053-4.993
			c-2.681,1.419-3.837,1.471-4.625,2.103c-0.895,0.683-1.314,1.576-1.314,3.153C413.323,57.746,414.217,59.112,415.794,59.112z"/>
		<path fill="#008BD5" d="M438.708,52.806v1.313c0,2.839,0.789,4.993,3.837,4.993c3.102,0,3.995-2.313,3.995-4.467
			c0-8.094-16.136-3.574-16.136-17.608c0-5.992,3.205-11.038,12.299-11.038c8.83,0,11.984,4.467,11.984,10.25v0.894h-8.516
			c0-1.788-0.21-3.101-0.736-3.942c-0.525-0.894-1.366-1.314-2.68-1.314c-2.207,0-3.521,1.314-3.521,4.047
			c0,7.832,16.136,3.89,16.136,17.136c0,8.514-4.73,11.931-12.825,11.931c-6.412,0-12.352-1.945-12.352-9.776v-2.418H438.708z"/>
	</g>
</g>
<g>
	<path fill="#79849A" d="M283.211,102.005V76.977h3.312v10.278h13.009V76.977h3.312v25.028h-3.312V90.208h-13.009v11.797H283.211z"
		/>
	<path fill="#79849A" d="M306.823,92.939c0-3.357,0.933-5.844,2.8-7.461c1.559-1.343,3.46-2.014,5.702-2.014
		c2.493,0,4.53,0.816,6.112,2.45s2.373,3.89,2.373,6.769c0,2.333-0.35,4.169-1.05,5.506c-0.7,1.338-1.719,2.376-3.056,3.116
		c-1.337,0.74-2.797,1.11-4.379,1.11c-2.538,0-4.59-0.813-6.155-2.441C307.605,98.346,306.823,96.001,306.823,92.939z
		 M309.981,92.939c0,2.322,0.506,4.061,1.52,5.216c1.013,1.155,2.288,1.732,3.824,1.732c1.525,0,2.794-0.58,3.807-1.741
		c1.013-1.161,1.52-2.931,1.52-5.31c0-2.242-0.51-3.941-1.528-5.096c-1.019-1.155-2.285-1.733-3.798-1.733
		c-1.537,0-2.812,0.575-3.824,1.725C310.487,88.882,309.981,90.618,309.981,92.939z"/>
	<path fill="#79849A" d="M327.412,102.005V83.874h2.766v2.578c1.332-1.991,3.255-2.987,5.771-2.987c1.093,0,2.097,0.196,3.014,0.589
		c0.916,0.393,1.602,0.908,2.057,1.545c0.455,0.638,0.774,1.395,0.956,2.271c0.114,0.569,0.171,1.565,0.171,2.988v11.148h-3.073
		V90.976c0-1.252-0.12-2.188-0.358-2.809c-0.239-0.62-0.663-1.115-1.272-1.485c-0.609-0.37-1.323-0.555-2.143-0.555
		c-1.309,0-2.439,0.416-3.389,1.246c-0.95,0.831-1.425,2.407-1.425,4.729v9.902H327.412z"/>
	<path fill="#79849A" d="M346.294,103.507l2.988,0.444c0.125,0.922,0.472,1.593,1.042,2.015c0.762,0.569,1.804,0.854,3.124,0.854
		c1.423,0,2.521-0.285,3.295-0.854c0.773-0.569,1.297-1.366,1.57-2.39c0.159-0.626,0.233-1.94,0.222-3.944
		c-1.343,1.582-3.016,2.373-5.02,2.373c-2.492,0-4.421-0.899-5.788-2.697c-1.366-1.798-2.048-3.955-2.048-6.471
		c0-1.73,0.313-3.326,0.939-4.789c0.625-1.462,1.533-2.592,2.723-3.389c1.189-0.796,2.586-1.195,4.191-1.195
		c2.14,0,3.904,0.865,5.292,2.595v-2.185h2.834v15.672c0,2.823-0.288,4.823-0.862,6.001c-0.575,1.178-1.485,2.108-2.732,2.792
		c-1.246,0.683-2.78,1.024-4.601,1.024c-2.163,0-3.909-0.487-5.241-1.46C346.892,106.93,346.249,105.465,346.294,103.507z
		 M348.838,92.615c0,2.379,0.472,4.114,1.417,5.207c0.945,1.092,2.128,1.639,3.551,1.639c1.411,0,2.595-0.543,3.551-1.63
		s1.434-2.791,1.434-5.113c0-2.219-0.492-3.893-1.477-5.019c-0.985-1.127-2.171-1.69-3.56-1.69c-1.366,0-2.527,0.555-3.483,1.665
		C349.316,88.782,348.838,90.43,348.838,92.615z"/>
	<path fill="#79849A" d="M376.274,102.005V76.977h3.312v12.412l12.429-12.412h4.49l-10.5,10.141l10.961,14.887h-4.371l-8.912-12.668
		l-4.097,3.995v8.673H376.274z"/>
	<path fill="#79849A" d="M398.195,92.939c0-3.357,0.933-5.844,2.8-7.461c1.559-1.343,3.46-2.014,5.702-2.014
		c2.493,0,4.53,0.816,6.112,2.45s2.373,3.89,2.373,6.769c0,2.333-0.35,4.169-1.05,5.506c-0.7,1.338-1.719,2.376-3.056,3.116
		c-1.337,0.74-2.797,1.11-4.379,1.11c-2.538,0-4.59-0.813-6.155-2.441C398.977,98.346,398.195,96.001,398.195,92.939z
		 M401.353,92.939c0,2.322,0.506,4.061,1.52,5.216c1.013,1.155,2.288,1.732,3.824,1.732c1.525,0,2.794-0.58,3.807-1.741
		c1.013-1.161,1.52-2.931,1.52-5.31c0-2.242-0.51-3.941-1.528-5.096c-1.019-1.155-2.285-1.733-3.798-1.733
		c-1.537,0-2.812,0.575-3.824,1.725C401.859,88.882,401.353,90.618,401.353,92.939z"/>
	<path fill="#79849A" d="M418.784,102.005V83.874h2.766v2.578c1.332-1.991,3.255-2.987,5.771-2.987c1.093,0,2.097,0.196,3.014,0.589
		c0.916,0.393,1.602,0.908,2.057,1.545c0.455,0.638,0.774,1.395,0.956,2.271c0.114,0.569,0.171,1.565,0.171,2.988v11.148h-3.073
		V90.976c0-1.252-0.12-2.188-0.358-2.809c-0.239-0.62-0.663-1.115-1.272-1.485c-0.609-0.37-1.323-0.555-2.143-0.555
		c-1.309,0-2.439,0.416-3.389,1.246c-0.95,0.831-1.425,2.407-1.425,4.729v9.902H418.784z"/>
	<path fill="#79849A" d="M437.666,103.507l2.988,0.444c0.125,0.922,0.472,1.593,1.042,2.015c0.762,0.569,1.804,0.854,3.124,0.854
		c1.423,0,2.521-0.285,3.295-0.854c0.773-0.569,1.297-1.366,1.57-2.39c0.159-0.626,0.233-1.94,0.222-3.944
		c-1.343,1.582-3.016,2.373-5.02,2.373c-2.492,0-4.421-0.899-5.788-2.697c-1.366-1.798-2.048-3.955-2.048-6.471
		c0-1.73,0.313-3.326,0.939-4.789c0.625-1.462,1.533-2.592,2.723-3.389c1.189-0.796,2.586-1.195,4.191-1.195
		c2.14,0,3.904,0.865,5.292,2.595v-2.185h2.834v15.672c0,2.823-0.288,4.823-0.862,6.001c-0.575,1.178-1.485,2.108-2.732,2.792
		c-1.246,0.683-2.78,1.024-4.601,1.024c-2.163,0-3.909-0.487-5.241-1.46C438.264,106.93,437.621,105.465,437.666,103.507z
		 M440.21,92.615c0,2.379,0.472,4.114,1.417,5.207c0.945,1.092,2.128,1.639,3.551,1.639c1.411,0,2.595-0.543,3.551-1.63
		s1.434-2.791,1.434-5.113c0-2.219-0.492-3.893-1.477-5.019c-0.985-1.127-2.171-1.69-3.56-1.69c-1.366,0-2.527,0.555-3.483,1.665
		C440.688,88.782,440.21,90.43,440.21,92.615z"/>
</g>
</svg>
