<?xml version="1.0" encoding="utf-8"?>
<!-- Generator: Adobe Illustrator 16.0.0, SVG Export Plug-In . SVG Version: 6.00 Build 0)  -->
<!DOCTYPE svg PUBLIC "-//W3C//DTD SVG 1.1//EN" "http://www.w3.org/Graphics/SVG/1.1/DTD/svg11.dtd">
<svg version="1.1" id="圖層_1" xmlns="http://www.w3.org/2000/svg" xmlns:xlink="http://www.w3.org/1999/xlink" x="0px" y="0px"
	 width="512px" height="128px" viewBox="0 0 512 128" enable-background="new 0 0 512 128" xml:space="preserve">
<g>
	<g>
		<path fill="#004889" d="M98.386,26.736h8.831l3.259,26.7h0.105l3.89-26.7h8.199l4.205,26.7h0.105l3.154-26.7h8.514l-6.518,37.527
			h-9.775l-3.837-26.647h-0.105l-3.627,26.647h-9.776L98.386,26.736z"/>
		<path fill="#004889" d="M140.01,26.736h8.831v37.527h-8.831V26.736z"/>
		<path fill="#004889" d="M159.928,52.806v1.313c0,2.839,0.789,4.993,3.837,4.993c3.102,0,3.995-2.313,3.995-4.467
			c0-8.094-16.136-3.574-16.136-17.608c0-5.992,3.206-11.038,12.299-11.038c8.83,0,11.984,4.467,11.984,10.25v0.894h-8.515
			c0-1.788-0.21-3.101-0.736-3.942c-0.525-0.894-1.367-1.314-2.68-1.314c-2.208,0-3.521,1.314-3.521,4.047
			c0,7.832,16.136,3.89,16.136,17.136c0,8.514-4.73,11.931-12.825,11.931c-6.412,0-12.351-1.945-12.351-9.776v-2.418H159.928z"/>
		<path fill="#004889" d="M179.004,26.736h21.708v7.147h-12.877V41.4h12.089v7.148h-12.089v8.568h13.456v7.147h-22.286V26.736z"/>
		<path fill="#004889" d="M202.498,45.5h15.874v7.147h-15.874V45.5z"/>
		<path fill="#004889" d="M221.049,26.736h13.667c9.302,0,11.09,6.728,11.09,11.405c0,6.728-3.206,11.458-12.036,11.458h-3.89
			v14.665h-8.83V26.736z M229.879,43.083h2.418c3.521,0,4.363-2.208,4.363-4.731c0-2.891-0.946-5.098-4.52-5.098h-2.261V43.083z"/>
		<path fill="#004889" d="M245.961,44.554c0.053-3.89,1.209-6.254,3.206-7.621c1.998-1.367,4.416-1.84,7.937-1.84
			c6.991,0,10.092,2.418,10.092,8.41v14.612c0,2.154,0,4.889,0.999,6.149h-8.199c-0.315-0.998-0.42-2.154-0.473-3.259h-0.105
			C258.261,63.527,255.58,65,252.742,65c-4.783,0-7.569-2.523-7.569-8.673c0-3.312,1.366-6.097,3.469-7.253s5.256-1.683,7.621-2.313
			c2.576-0.683,3.049-1.104,3.049-3.259c0-1.734-0.789-2.838-2.681-2.838c-2.365,0-3.048,1.419-3.101,3.89H245.961z M255.843,59.112
			c1.787,0,3.416-1.051,3.416-3.889c0-2.365,0.053-3.837,0.053-4.993c-2.681,1.419-3.837,1.471-4.625,2.103
			c-0.894,0.683-1.314,1.576-1.314,3.153C253.372,57.746,254.266,59.112,255.843,59.112z"/>
		<path fill="#004889" d="M270.4,44.554c0.053-3.89,1.209-6.254,3.206-7.621c1.997-1.367,4.415-1.84,7.937-1.84
			c6.991,0,10.091,2.418,10.091,8.41v14.612c0,2.154,0,4.889,0.999,6.149h-8.199c-0.315-0.998-0.42-2.154-0.473-3.259h-0.105
			c-1.156,2.522-3.837,3.995-6.675,3.995c-4.783,0-7.569-2.523-7.569-8.673c0-3.312,1.366-6.097,3.469-7.253
			s5.256-1.683,7.621-2.313c2.576-0.683,3.049-1.104,3.049-3.259c0-1.734-0.789-2.838-2.681-2.838c-2.366,0-3.049,1.419-3.101,3.89
			H270.4z M280.281,59.112c1.787,0,3.416-1.051,3.416-3.889c0-2.365,0.053-3.837,0.053-4.993c-2.681,1.419-3.837,1.471-4.625,2.103
			c-0.894,0.683-1.314,1.576-1.314,3.153C277.811,57.746,278.704,59.112,280.281,59.112z"/>
		<path fill="#004889" d="M302.669,52.806v1.313c0,2.839,0.789,4.993,3.837,4.993c3.102,0,3.995-2.313,3.995-4.467
			c0-8.094-16.136-3.574-16.136-17.608c0-5.992,3.206-11.038,12.299-11.038c8.83,0,11.984,4.467,11.984,10.25v0.894h-8.515
			c0-1.788-0.21-3.101-0.736-3.942c-0.525-0.894-1.366-1.314-2.68-1.314c-2.208,0-3.522,1.314-3.522,4.047
			c0,7.832,16.136,3.89,16.136,17.136c0,8.514-4.73,11.931-12.825,11.931c-6.412,0-12.351-1.945-12.351-9.776v-2.418H302.669z"/>
		<path fill="#004889" d="M330.576,26h7.148l-11.984,39h-7.148L330.576,26z"/>
		<path fill="#91308C" d="M340.14,26.736h21.708v7.147H348.97V41.4h12.089v7.148H348.97v8.568h13.456v7.147H340.14V26.736z"/>
		<path fill="#91308C" d="M372.41,52.806v1.313c0,2.839,0.789,4.993,3.837,4.993c3.102,0,3.995-2.313,3.995-4.467
			c0-8.094-16.136-3.574-16.136-17.608c0-5.992,3.206-11.038,12.299-11.038c8.83,0,11.984,4.467,11.984,10.25v0.894h-8.515
			c0-1.788-0.21-3.101-0.736-3.942c-0.525-0.894-1.366-1.314-2.68-1.314c-2.208,0-3.522,1.314-3.522,4.047
			c0,7.832,16.136,3.89,16.136,17.136c0,8.514-4.73,11.931-12.825,11.931c-6.412,0-12.351-1.945-12.351-9.776v-2.418H372.41z"/>
		<path fill="#91308C" d="M392.012,26.736h8.83v30.38h12.772v7.147h-21.603V26.736z"/>
	</g>
</g>
</svg>
