<?xml version="1.0" encoding="utf-8"?>
<!-- Generator: Adobe Illustrator 16.0.0, SVG Export Plug-In . SVG Version: 6.00 Build 0)  -->
<!DOCTYPE svg PUBLIC "-//W3C//DTD SVG 1.1//EN" "http://www.w3.org/Graphics/SVG/1.1/DTD/svg11.dtd">
<svg version="1.1" id="圖層_1" xmlns="http://www.w3.org/2000/svg" xmlns:xlink="http://www.w3.org/1999/xlink" x="0px" y="0px"
	 width="512px" height="128px" viewBox="0 0 512 128" enable-background="new 0 0 512 128" xml:space="preserve">
<path fill="none" d="M256,64"/>
<g>
	<path fill="none" d="M193.361,51.757"/>
	<path fill="#004889" d="M25.939,26.736h8.83l3.258,26.7h0.105l3.891-26.7h8.199l4.205,26.7h0.104l3.154-26.7h8.516l-6.52,37.527
		h-9.775L46.07,37.616h-0.105l-3.627,26.647h-9.775L25.939,26.736z"/>
	<path fill="#004889" d="M67.563,26.736h8.83v37.527h-8.83V26.736z"/>
	<path fill="#004889" d="M87.482,52.806v1.313c0,2.839,0.789,4.994,3.836,4.994c3.104,0,3.996-2.313,3.996-4.467
		c0-8.094-16.137-3.574-16.137-17.608C79.178,31.045,82.385,26,91.477,26c8.83,0,11.984,4.467,11.984,10.25v0.894h-8.516
		c0-1.788-0.209-3.101-0.734-3.942c-0.525-0.894-1.367-1.314-2.682-1.314c-2.207,0-3.521,1.314-3.521,4.047
		c0,7.832,16.137,3.89,16.137,17.135c0,8.514-4.73,11.931-12.826,11.931c-6.41,0-12.35-1.945-12.35-9.776v-2.418H87.482z"/>
	<path fill="#004889" d="M106.559,26.736h21.707v7.147h-12.877V41.4h12.09v7.148h-12.09v8.568h13.455v7.147h-22.285V26.736z"/>
	<path fill="#004889" d="M130.051,45.5h15.873v7.148h-15.873V45.5z"/>
	<path fill="#004889" d="M148.602,26.736h13.666c9.303,0,11.09,6.728,11.09,11.405c0,6.728-3.205,11.458-12.035,11.458h-3.891
		v14.665h-8.83V26.736z M157.432,43.083h2.418c3.521,0,4.363-2.208,4.363-4.731c0-2.891-0.947-5.098-4.52-5.098h-2.262V43.083z"/>
	<path fill="#004889" d="M173.514,44.554c0.053-3.89,1.211-6.254,3.207-7.621c1.996-1.367,4.414-1.84,7.938-1.84
		c6.99,0,10.09,2.418,10.09,8.41v14.612c0,2.155,0,4.888,1,6.149h-8.199c-0.316-0.998-0.422-2.154-0.475-3.259h-0.104
		c-1.156,2.523-3.838,3.995-6.676,3.995c-4.783,0-7.568-2.523-7.568-8.673c0-3.311,1.365-6.096,3.469-7.253
		c2.102-1.156,5.256-1.682,7.621-2.313c2.576-0.683,3.049-1.104,3.049-3.259c0-1.734-0.789-2.838-2.682-2.838
		c-2.365,0-3.049,1.419-3.1,3.89H173.514z M183.396,59.113c1.785,0,3.416-1.051,3.416-3.889c0-2.366,0.053-3.837,0.053-4.993
		c-2.682,1.419-3.838,1.471-4.625,2.103c-0.895,0.683-1.314,1.576-1.314,3.153C180.926,57.746,181.818,59.113,183.396,59.113z"/>
	<path fill="#004889" d="M197.953,44.554c0.053-3.89,1.209-6.254,3.205-7.621c1.998-1.367,4.416-1.84,7.938-1.84
		c6.99,0,10.092,2.418,10.092,8.41v14.612c0,2.155,0,4.888,0.998,6.149h-8.199c-0.314-0.998-0.42-2.154-0.473-3.259h-0.105
		c-1.156,2.523-3.836,3.995-6.674,3.995c-4.783,0-7.57-2.523-7.57-8.673c0-3.311,1.367-6.096,3.469-7.253
		c2.104-1.156,5.258-1.682,7.621-2.313c2.576-0.683,3.049-1.104,3.049-3.259c0-1.734-0.787-2.838-2.68-2.838
		c-2.365,0-3.049,1.419-3.102,3.89H197.953z M207.834,59.113c1.787,0,3.416-1.051,3.416-3.889c0-2.366,0.053-3.837,0.053-4.993
		c-2.68,1.419-3.836,1.471-4.625,2.103c-0.895,0.683-1.314,1.576-1.314,3.153C205.363,57.746,206.258,59.113,207.834,59.113z"/>
	<path fill="#004889" d="M230.221,52.806v1.313c0,2.839,0.789,4.994,3.838,4.994c3.102,0,3.994-2.313,3.994-4.467
		c0-8.094-16.135-3.574-16.135-17.608c0-5.992,3.205-11.038,12.299-11.038c8.83,0,11.984,4.467,11.984,10.25v0.894h-8.516
		c0-1.788-0.211-3.101-0.736-3.942c-0.525-0.894-1.367-1.314-2.68-1.314c-2.207,0-3.521,1.314-3.521,4.047
		c0,7.832,16.137,3.89,16.137,17.135c0,8.514-4.73,11.931-12.826,11.931c-6.412,0-12.352-1.945-12.352-9.776v-2.418H230.221z"/>
	<path fill="#004889" d="M258.129,26h7.148l-11.984,39h-7.148L258.129,26z"/>
	<path fill="#008BD5" d="M267.691,26.736h13.088c8.725,0,12.457,4.52,12.457,17.554c0,13.614-1.734,19.973-13.35,19.973h-12.195
		V26.736z M276.521,57.746h2.365c4.102,0,5.52-1.629,5.52-12.877c0-9.145-0.736-11.616-5.414-11.616h-2.471V57.746z"/>
	<path fill="#008BD5" d="M296.02,44.554c0.053-3.89,1.209-6.254,3.205-7.621c1.998-1.367,4.416-1.84,7.938-1.84
		c6.99,0,10.092,2.418,10.092,8.41v14.612c0,2.155,0,4.888,0.998,6.149h-8.199c-0.314-0.998-0.42-2.154-0.473-3.259h-0.105
		c-1.156,2.523-3.836,3.995-6.674,3.995c-4.783,0-7.57-2.523-7.57-8.673c0-3.311,1.367-6.096,3.469-7.253
		c2.104-1.156,5.258-1.682,7.621-2.313c2.576-0.683,3.049-1.104,3.049-3.259c0-1.734-0.787-2.838-2.68-2.838
		c-2.365,0-3.049,1.419-3.102,3.89H296.02z M305.9,59.113c1.787,0,3.416-1.051,3.416-3.889c0-2.366,0.053-3.837,0.053-4.993
		c-2.68,1.419-3.836,1.471-4.625,2.103c-0.895,0.683-1.314,1.576-1.314,3.153C303.43,57.746,304.324,59.113,305.9,59.113z"/>
	<path fill="#008BD5" d="M327.658,55.224c0.053,1.261,0.158,2.365,0.578,3.206c0.473,0.789,1.262,1.314,2.629,1.314
		c1.996,0,3.047-1.261,3.047-2.891c0-1.314-0.629-2.576-3.258-3.469c-6.99-2.365-10.354-3.732-10.354-9.723
		c0-5.677,3.994-8.568,10.826-8.568c7.99,0,10.303,3.89,10.303,7.99v0.945h-7.568v-0.525c0-2.471-1-3.154-2.787-3.154
		c-2.26,0-2.891,1.104-2.891,2.629c0,5.045,13.613,1.681,13.613,12.719c0,5.729-3.836,9.303-10.881,9.303
		c-7.621,0-10.826-2.839-10.826-8.515v-1.261H327.658z"/>
	<path fill="#008BD5" d="M344.16,26.736h8.514v12.193h0.105c1.367-2.786,3.627-3.837,6.518-3.837c4.836,0,7.412,2.418,7.412,7.885
		v21.286h-8.516V44.869c0-2.049-0.895-3.259-2.471-3.259c-1.629,0-3.049,1.262-3.049,4.047v18.606h-8.514V26.736z"/>
	<path fill="#008BD5" d="M370.123,26.736h8.514v12.193h0.105c1.418-3.048,3.994-3.837,6.359-3.837c6.99,0,8.252,6.361,8.252,15.191
		c0,10.617-3.049,14.717-8.777,14.717c-3.783,0-5.52-2.261-6.15-4.205h-0.104v3.469h-8.199V26.736z M381.527,58.797
		c3.207,0,3.313-4.362,3.313-8.935c0-5.15-0.158-8.567-3.26-8.567c-2.891,0-3.102,3.889-3.102,8.936
		C378.479,55.749,379.004,58.797,381.527,58.797z"/>
	<path fill="#008BD5" d="M395.139,50.125c0-8.515,1.891-15.033,11.721-15.033c10.406,0,11.721,6.361,11.721,14.875
		c0,8.515-1.893,15.033-11.721,15.033C396.451,65,395.139,58.64,395.139,50.125z M406.91,40.664c-2.521,0-3.258,2.47-3.258,9.356
		c0,6.938,0.736,9.409,3.258,9.409c2.629,0,3.154-2.366,3.154-9.356C410.064,43.029,409.539,40.664,406.91,40.664z"/>
	<path fill="#008BD5" d="M420.891,44.554c0.053-3.89,1.209-6.254,3.205-7.621c1.998-1.367,4.416-1.84,7.938-1.84
		c6.99,0,10.092,2.418,10.092,8.41v14.612c0,2.155,0,4.888,0.998,6.149h-8.199c-0.314-0.998-0.42-2.154-0.473-3.259h-0.105
		C433.189,63.528,430.508,65,427.67,65c-4.783,0-7.568-2.523-7.568-8.673c0-3.311,1.367-6.096,3.469-7.253
		c2.104-1.156,5.256-1.682,7.621-2.313c2.576-0.683,3.049-1.104,3.049-3.259c0-1.734-0.787-2.838-2.68-2.838
		c-2.367,0-3.049,1.419-3.102,3.89H420.891z M430.771,59.113c1.787,0,3.416-1.051,3.416-3.889c0-2.366,0.053-3.837,0.053-4.993
		c-2.68,1.419-3.836,1.471-4.625,2.103c-0.895,0.683-1.314,1.576-1.314,3.153C428.301,57.746,429.193,59.113,430.771,59.113z"/>
	<path fill="#008BD5" d="M446.012,35.829h8.199v3.995h0.105c1.104-2.524,3.258-4.731,6.832-4.731c0.42,0,0.842,0,1.367,0.106v7.989
		c-0.842-0.158-1.525-0.21-2.365-0.21c-3.416,0-5.625,1.418-5.625,5.15v16.136h-8.514V35.829z"/>
	<path fill="#008BD5" d="M477.861,60.795h-0.104c-0.633,1.944-2.367,4.205-6.15,4.205c-5.729,0-8.777-4.1-8.777-14.717
		c0-8.83,1.262-15.191,8.252-15.191c2.365,0,4.941,0.789,6.359,3.837h0.105V26.736h8.514v37.527h-8.199V60.795z M474.604,41.295
		c-3.102,0-3.26,3.417-3.26,8.567c0,4.573,0.105,8.935,3.313,8.935c2.523,0,3.047-3.049,3.047-8.567
		C477.703,45.184,477.494,41.295,474.604,41.295z"/>
</g>
<g>
	<path fill="#79849A" d="M221.539,80.511v-3.534h3.074v3.534H221.539z M221.539,102.005V83.874h3.074v18.131H221.539z"/>
	<path fill="#79849A" d="M234.054,102.005l-6.642-25.028h3.398l3.807,16.407c0.41,1.719,0.762,3.426,1.059,5.122
		c0.637-2.674,1.013-4.217,1.127-4.626l4.764-16.902h3.994l3.586,12.668c0.898,3.141,1.547,6.095,1.945,8.86
		c0.318-1.582,0.734-3.397,1.246-5.446l3.928-16.083h3.328l-6.863,25.028h-3.191l-5.275-19.07c-0.444-1.593-0.707-2.572-0.785-2.937
		c-0.263,1.149-0.508,2.128-0.734,2.937l-5.311,19.07H234.054z"/>
	<path fill="#79849A" d="M272.826,99.769c-1.139,0.967-2.234,1.65-3.287,2.048c-1.053,0.398-2.183,0.598-3.389,0.598
		c-1.992,0-3.523-0.486-4.593-1.459s-1.604-2.217-1.604-3.73c0-0.888,0.201-1.699,0.605-2.433c0.404-0.734,0.934-1.323,1.588-1.767
		s1.392-0.78,2.211-1.007c0.604-0.159,1.514-0.313,2.731-0.461c2.481-0.296,4.308-0.649,5.48-1.059
		c0.011-0.421,0.017-0.688,0.017-0.802c0-1.252-0.289-2.134-0.87-2.646c-0.786-0.694-1.952-1.042-3.5-1.042
		c-1.445,0-2.513,0.253-3.201,0.76c-0.688,0.507-1.198,1.403-1.528,2.689l-3.004-0.41c0.273-1.286,0.723-2.325,1.348-3.116
		c0.627-0.791,1.531-1.4,2.715-1.827s2.555-0.64,4.115-0.64c1.547,0,2.805,0.182,3.772,0.546c0.968,0.365,1.679,0.823,2.134,1.375
		c0.455,0.552,0.774,1.25,0.957,2.091c0.102,0.524,0.153,1.468,0.153,2.834v4.098c0,2.857,0.065,4.664,0.196,5.42
		s0.39,1.482,0.777,2.177h-3.211C273.121,101.368,272.916,100.622,272.826,99.769z M272.569,92.905
		c-1.116,0.456-2.788,0.842-5.019,1.161c-1.264,0.182-2.158,0.387-2.682,0.614c-0.523,0.228-0.928,0.561-1.211,0.999
		c-0.285,0.438-0.428,0.925-0.428,1.459c0,0.819,0.311,1.502,0.931,2.049s1.528,0.819,2.724,0.819c1.184,0,2.236-0.259,3.158-0.777
		c0.922-0.518,1.599-1.226,2.031-2.125c0.33-0.694,0.495-1.718,0.495-3.073V92.905z"/>
	<path fill="#79849A" d="M287.148,99.256l0.444,2.714c-0.864,0.182-1.639,0.273-2.321,0.273c-1.116,0-1.98-0.177-2.596-0.529
		c-0.614-0.353-1.047-0.817-1.297-1.392c-0.251-0.575-0.376-1.784-0.376-3.628V86.264h-2.253v-2.39h2.253v-4.49l3.056-1.844v6.334
		h3.09v2.39h-3.09v10.602c0,0.876,0.055,1.44,0.162,1.69c0.108,0.25,0.285,0.45,0.529,0.598c0.245,0.148,0.595,0.222,1.051,0.222
		C286.142,99.375,286.592,99.336,287.148,99.256z"/>
	<path fill="#79849A" d="M302.565,96.166l3.176,0.393c-0.501,1.855-1.429,3.295-2.782,4.319c-1.355,1.024-3.086,1.537-5.191,1.537
		c-2.651,0-4.754-0.816-6.308-2.45s-2.331-3.924-2.331-6.872c0-3.05,0.786-5.418,2.356-7.103c1.571-1.684,3.608-2.526,6.112-2.526
		c2.424,0,4.404,0.825,5.941,2.475c1.536,1.651,2.305,3.973,2.305,6.966c0,0.182-0.006,0.456-0.018,0.819h-13.521
		c0.113,1.992,0.678,3.517,1.69,4.576s2.276,1.587,3.79,1.587c1.127,0,2.088-0.295,2.885-0.888
		C301.467,98.409,302.099,97.463,302.565,96.166z M292.476,91.198H302.6c-0.137-1.525-0.523-2.669-1.16-3.432
		c-0.979-1.184-2.248-1.776-3.808-1.776c-1.411,0-2.599,0.473-3.56,1.417C293.11,88.353,292.578,89.616,292.476,91.198z"/>
	<path fill="#79849A" d="M309.564,102.005V83.874h2.767v2.749c0.706-1.286,1.356-2.134,1.954-2.544s1.256-0.614,1.973-0.614
		c1.035,0,2.088,0.33,3.158,0.99l-1.059,2.851c-0.751-0.444-1.502-0.666-2.254-0.666c-0.672,0-1.274,0.202-1.81,0.606
		c-0.534,0.404-0.916,0.965-1.144,1.682c-0.342,1.093-0.512,2.288-0.512,3.585v9.492H309.564z"/>
	<path fill="#79849A" d="M337.086,102.005V79.93h-8.246v-2.954h19.838v2.954h-8.279v22.075H337.086z"/>
	<path fill="#79849A" d="M350.352,102.005V83.874h2.766v2.749c0.706-1.286,1.357-2.134,1.955-2.544s1.255-0.614,1.972-0.614
		c1.036,0,2.089,0.33,3.159,0.99l-1.059,2.851c-0.752-0.444-1.503-0.666-2.254-0.666c-0.672,0-1.275,0.202-1.811,0.606
		c-0.534,0.404-0.916,0.965-1.143,1.682c-0.342,1.093-0.513,2.288-0.513,3.585v9.492H350.352z"/>
	<path fill="#79849A" d="M374.44,96.166l3.176,0.393c-0.501,1.855-1.429,3.295-2.782,4.319c-1.355,1.024-3.086,1.537-5.191,1.537
		c-2.651,0-4.754-0.816-6.308-2.45s-2.331-3.924-2.331-6.872c0-3.05,0.786-5.418,2.356-7.103c1.571-1.684,3.608-2.526,6.112-2.526
		c2.424,0,4.404,0.825,5.941,2.475c1.536,1.651,2.305,3.973,2.305,6.966c0,0.182-0.006,0.456-0.018,0.819H364.18
		c0.113,1.992,0.678,3.517,1.69,4.576s2.276,1.587,3.79,1.587c1.127,0,2.088-0.295,2.885-0.888
		C373.342,98.409,373.974,97.463,374.44,96.166z M364.351,91.198h10.124c-0.137-1.525-0.523-2.669-1.16-3.432
		c-0.979-1.184-2.248-1.776-3.808-1.776c-1.411,0-2.599,0.473-3.56,1.417C364.985,88.353,364.453,89.616,364.351,91.198z"/>
	<path fill="#79849A" d="M393.307,99.769c-1.139,0.967-2.234,1.65-3.287,2.048c-1.053,0.398-2.183,0.598-3.389,0.598
		c-1.992,0-3.523-0.486-4.593-1.459s-1.604-2.217-1.604-3.73c0-0.888,0.201-1.699,0.605-2.433c0.404-0.734,0.934-1.323,1.588-1.767
		s1.392-0.78,2.211-1.007c0.604-0.159,1.514-0.313,2.731-0.461c2.481-0.296,4.308-0.649,5.48-1.059
		c0.011-0.421,0.017-0.688,0.017-0.802c0-1.252-0.289-2.134-0.87-2.646c-0.786-0.694-1.952-1.042-3.5-1.042
		c-1.445,0-2.513,0.253-3.201,0.76c-0.688,0.507-1.198,1.403-1.528,2.689l-3.004-0.41c0.273-1.286,0.723-2.325,1.348-3.116
		c0.627-0.791,1.531-1.4,2.715-1.827s2.555-0.64,4.115-0.64c1.547,0,2.805,0.182,3.772,0.546c0.968,0.365,1.679,0.823,2.134,1.375
		c0.455,0.552,0.774,1.25,0.957,2.091c0.102,0.524,0.153,1.468,0.153,2.834v4.098c0,2.857,0.065,4.664,0.196,5.42
		s0.39,1.482,0.777,2.177h-3.211C393.602,101.368,393.396,100.622,393.307,99.769z M393.05,92.905
		c-1.116,0.456-2.788,0.842-5.019,1.161c-1.264,0.182-2.158,0.387-2.682,0.614c-0.523,0.228-0.928,0.561-1.211,0.999
		c-0.285,0.438-0.428,0.925-0.428,1.459c0,0.819,0.311,1.502,0.931,2.049s1.528,0.819,2.724,0.819c1.184,0,2.236-0.259,3.158-0.777
		c0.922-0.518,1.599-1.226,2.031-2.125c0.33-0.694,0.495-1.718,0.495-3.073V92.905z"/>
	<path fill="#79849A" d="M407.629,99.256l0.444,2.714c-0.864,0.182-1.639,0.273-2.321,0.273c-1.116,0-1.98-0.177-2.596-0.529
		c-0.614-0.353-1.047-0.817-1.297-1.392c-0.251-0.575-0.376-1.784-0.376-3.628V86.264h-2.253v-2.39h2.253v-4.49l3.056-1.844v6.334
		h3.09v2.39h-3.09v10.602c0,0.876,0.055,1.44,0.162,1.69c0.108,0.25,0.285,0.45,0.529,0.598c0.245,0.148,0.595,0.222,1.051,0.222
		C406.622,99.375,407.072,99.336,407.629,99.256z"/>
	<path fill="#79849A" d="M410.635,102.005V83.874h2.748v2.543c0.569-0.888,1.326-1.602,2.271-2.143
		c0.943-0.54,2.02-0.811,3.227-0.811c1.342,0,2.443,0.279,3.303,0.836s1.466,1.337,1.818,2.339c1.434-2.117,3.301-3.175,5.6-3.175
		c1.799,0,3.182,0.498,4.148,1.494c0.968,0.996,1.451,2.53,1.451,4.601v12.446h-3.056V90.583c0-1.229-0.1-2.114-0.298-2.655
		c-0.2-0.541-0.562-0.976-1.085-1.306s-1.138-0.495-1.844-0.495c-1.274,0-2.333,0.424-3.175,1.272
		c-0.844,0.848-1.264,2.205-1.264,4.072v10.534h-3.073v-11.78c0-1.366-0.251-2.39-0.751-3.073c-0.502-0.683-1.32-1.024-2.459-1.024
		c-0.865,0-1.664,0.228-2.398,0.683s-1.266,1.121-1.596,1.997c-0.331,0.877-0.496,2.14-0.496,3.791v9.407H410.635z"/>
	<path fill="#79849A" d="M452.172,96.166l3.176,0.393c-0.502,1.855-1.43,3.295-2.783,4.319c-1.355,1.024-3.085,1.537-5.19,1.537
		c-2.651,0-4.755-0.816-6.308-2.45c-1.555-1.633-2.331-3.924-2.331-6.872c0-3.05,0.786-5.418,2.356-7.103
		c1.57-1.684,3.607-2.526,6.111-2.526c2.425,0,4.405,0.825,5.941,2.475c1.537,1.651,2.305,3.973,2.305,6.966
		c0,0.182-0.006,0.456-0.017,0.819h-13.521c0.113,1.992,0.677,3.517,1.69,4.576c1.013,1.059,2.275,1.587,3.789,1.587
		c1.127,0,2.089-0.295,2.886-0.888C451.073,98.409,451.705,97.463,452.172,96.166z M442.082,91.198h10.123
		c-0.136-1.525-0.523-2.669-1.16-3.432c-0.979-1.184-2.248-1.776-3.807-1.776c-1.412,0-2.599,0.473-3.561,1.417
		C442.717,88.353,442.184,89.616,442.082,91.198z"/>
	<path fill="#79849A" d="M459.205,102.005V83.874h2.766v2.578c1.332-1.991,3.256-2.987,5.771-2.987c1.092,0,2.097,0.196,3.014,0.589
		c0.916,0.393,1.602,0.908,2.057,1.545c0.455,0.638,0.773,1.395,0.956,2.271c0.114,0.569,0.171,1.565,0.171,2.988v11.148h-3.073
		V90.976c0-1.252-0.12-2.188-0.358-2.809c-0.239-0.62-0.663-1.115-1.271-1.485c-0.609-0.37-1.324-0.555-2.143-0.555
		c-1.31,0-2.439,0.416-3.39,1.246c-0.95,0.831-1.425,2.407-1.425,4.729v9.902H459.205z"/>
	<path fill="#79849A" d="M485.36,99.256l0.444,2.714c-0.865,0.182-1.639,0.273-2.322,0.273c-1.115,0-1.98-0.177-2.595-0.529
		c-0.614-0.353-1.048-0.817-1.298-1.392s-0.375-1.784-0.375-3.628V86.264h-2.254v-2.39h2.254v-4.49l3.056-1.844v6.334h3.09v2.39
		h-3.09v10.602c0,0.876,0.054,1.44,0.162,1.69c0.108,0.25,0.284,0.45,0.529,0.598s0.595,0.222,1.05,0.222
		C484.354,99.375,484.803,99.336,485.36,99.256z"/>
</g>
</svg>
