<?xml version="1.0" encoding="utf-8"?>
<!-- Generator: Adobe Illustrator 16.0.0, SVG Export Plug-In . SVG Version: 6.00 Build 0)  -->
<!DOCTYPE svg PUBLIC "-//W3C//DTD SVG 1.1//EN" "http://www.w3.org/Graphics/SVG/1.1/DTD/svg11.dtd">
<svg version="1.1" id="圖層_1" xmlns="http://www.w3.org/2000/svg" xmlns:xlink="http://www.w3.org/1999/xlink" x="0px" y="0px"
	 width="512px" height="128px" viewBox="0 0 512 128" enable-background="new 0 0 512 128" xml:space="preserve">
<g>
	<g>
		<path fill="#004889" d="M83.328,26.736h8.83l3.26,26.699h0.104l3.89-26.699h8.199l4.205,26.699h0.105l3.154-26.699h8.514
			l-6.518,37.527h-9.775l-3.838-26.648h-0.104l-3.627,26.648h-9.776L83.328,26.736z"/>
		<path fill="#004889" d="M124.953,26.736h8.83v37.527h-8.83V26.736z"/>
		<path fill="#004889" d="M144.871,52.805v1.314c0,2.839,0.789,4.993,3.837,4.993c3.102,0,3.995-2.313,3.995-4.467
			c0-8.095-16.137-3.575-16.137-17.608c0-5.992,3.206-11.037,12.299-11.037c8.83,0,11.984,4.467,11.984,10.249v0.894h-8.516
			c0-1.788-0.209-3.101-0.735-3.942c-0.525-0.895-1.366-1.314-2.68-1.314c-2.208,0-3.522,1.314-3.522,4.047
			c0,7.832,16.137,3.891,16.137,17.137c0,8.514-4.73,11.931-12.825,11.931c-6.412,0-12.352-1.946-12.352-9.776v-2.419H144.871z"/>
		<path fill="#004889" d="M163.947,26.736h21.707v7.147h-12.877V41.4h12.089v7.147h-12.089v8.568h13.455v7.147h-22.285V26.736z"/>
		<path fill="#004889" d="M187.44,45.499h15.873v7.148H187.44V45.499z"/>
		<path fill="#004889" d="M205.991,26.736h13.667c9.303,0,11.09,6.728,11.09,11.405c0,6.728-3.206,11.457-12.037,11.457h-3.889
			v14.665h-8.831V26.736z M214.822,43.082h2.417c3.522,0,4.362-2.208,4.362-4.73c0-2.891-0.945-5.1-4.52-5.1h-2.26V43.082z"/>
		<path fill="#004889" d="M230.904,44.553c0.053-3.889,1.209-6.254,3.205-7.62c1.998-1.368,4.416-1.84,7.938-1.84
			c6.99,0,10.092,2.418,10.092,8.41v14.611c0,2.154,0,4.888,0.998,6.149h-8.199c-0.314-0.998-0.42-2.154-0.473-3.259h-0.105
			c-1.156,2.522-3.837,3.995-6.675,3.995c-4.783,0-7.569-2.524-7.569-8.674c0-3.312,1.367-6.096,3.469-7.252
			c2.104-1.156,5.257-1.683,7.621-2.313c2.576-0.685,3.049-1.104,3.049-3.259c0-1.735-0.787-2.839-2.68-2.839
			c-2.366,0-3.049,1.418-3.102,3.889H230.904z M240.785,59.112c1.787,0,3.416-1.052,3.416-3.889c0-2.366,0.053-3.837,0.053-4.993
			c-2.68,1.418-3.836,1.471-4.625,2.103c-0.895,0.682-1.314,1.576-1.314,3.152C238.314,57.746,239.208,59.112,240.785,59.112z"/>
		<path fill="#004889" d="M255.342,44.553c0.054-3.889,1.21-6.254,3.207-7.62c1.997-1.368,4.414-1.84,7.937-1.84
			c6.991,0,10.091,2.418,10.091,8.41v14.611c0,2.154,0,4.888,0.999,6.149h-8.199c-0.315-0.998-0.42-2.154-0.474-3.259h-0.104
			c-1.156,2.522-3.837,3.995-6.675,3.995c-4.783,0-7.568-2.524-7.568-8.674c0-3.312,1.365-6.096,3.469-7.252
			c2.102-1.156,5.256-1.683,7.621-2.313c2.575-0.685,3.049-1.104,3.049-3.259c0-1.735-0.789-2.839-2.682-2.839
			c-2.365,0-3.049,1.418-3.101,3.889H255.342z M265.225,59.112c1.785,0,3.415-1.052,3.415-3.889c0-2.366,0.054-3.837,0.054-4.993
			c-2.682,1.418-3.838,1.471-4.626,2.103c-0.894,0.682-1.313,1.576-1.313,3.152C262.754,57.746,263.646,59.112,265.225,59.112z"/>
		<path fill="#004889" d="M287.611,52.805v1.314c0,2.839,0.789,4.993,3.838,4.993c3.102,0,3.994-2.313,3.994-4.467
			c0-8.095-16.136-3.575-16.136-17.608c0-5.992,3.206-11.037,12.3-11.037c8.83,0,11.983,4.467,11.983,10.249v0.894h-8.515
			c0-1.788-0.211-3.101-0.736-3.942c-0.525-0.895-1.367-1.314-2.68-1.314c-2.208,0-3.521,1.314-3.521,4.047
			c0,7.832,16.136,3.891,16.136,17.137c0,8.514-4.73,11.931-12.825,11.931c-6.412,0-12.352-1.946-12.352-9.776v-2.419H287.611z"/>
		<path fill="#004889" d="M315.519,26h7.149l-11.984,39h-7.148L315.519,26z"/>
		<path fill="#91308C" d="M325.082,26.736h14.822c7.517,0,10.092,4.625,10.092,9.774c0,5.468-2.207,8.148-6.307,9.146v0.104
			c5.624,0.79,5.939,4.312,6.044,9.356c0.158,7.412,0.421,8.148,1.682,8.673v0.474h-9.514c-0.683-1.262-0.945-3.364-0.945-7.622
			c0-6.518-0.894-7.884-3.68-7.884h-3.364v15.506h-8.83V26.736z M333.912,42.557h2.734c3.574,0,4.52-2.681,4.52-4.89
			c0-2.837-1.051-4.729-4.572-4.729h-2.682V42.557z"/>
		<path fill="#91308C" d="M354.197,26.736h12.932l4.625,24.65h0.104l4.468-24.65h12.771v37.527h-8.199V35.04h-0.104l-5.729,29.224
			h-6.833l-6.044-29.224h-0.105v29.224h-7.885V26.736z"/>
		<path fill="#91308C" d="M393.771,26.736h12.931l4.625,24.65h0.104l4.468-24.65h12.772v37.527h-8.199V35.04h-0.105l-5.729,29.224
			h-6.834l-6.044-29.224h-0.104v29.224h-7.885V26.736z"/>
	</g>
</g>
</svg>
