<?xml version="1.0" encoding="utf-8"?>
<!-- Generator: Adobe Illustrator 16.0.0, SVG Export Plug-In . SVG Version: 6.00 Build 0)  -->
<!DOCTYPE svg PUBLIC "-//W3C//DTD SVG 1.1//EN" "http://www.w3.org/Graphics/SVG/1.1/DTD/svg11.dtd">
<svg version="1.1" id="圖層_1" xmlns="http://www.w3.org/2000/svg" xmlns:xlink="http://www.w3.org/1999/xlink" x="0px" y="0px"
	 width="512px" height="128px" viewBox="0 0 512 128" enable-background="new 0 0 512 128" xml:space="preserve">
<g>
	<g>
		<path fill="#004889" d="M49.873,26.735h8.83l3.26,26.701h0.104l3.891-26.701h8.199l4.205,26.701h0.105l3.152-26.701h8.516
			l-6.518,37.529h-9.775l-3.838-26.649h-0.105l-3.627,26.649h-9.775L49.873,26.735z"/>
		<path fill="#004889" d="M97.807,51.438v1.735c0,4.415,0.629,6.569,3.1,6.569c2.209,0,2.891-1.629,3.102-5.203h7.885
			C111.734,61.584,107.898,65,100.855,65c-10.723,0-11.564-7.517-11.564-15.979c0-7.989,2.313-13.929,11.564-13.929
			c10.564,0,11.299,6.676,11.299,16.346H97.807z M103.955,46.498c0-3.995-0.525-6.15-2.891-6.15c-2.785,0-3.258,2.313-3.258,6.15
			H103.955z"/>
		<path fill="#004889" d="M113.887,26.735h8.516V38.93h0.105c1.418-3.049,3.994-3.837,6.359-3.837c6.99,0,8.252,6.36,8.252,15.19
			c0,10.617-3.049,14.718-8.777,14.718c-3.785,0-5.52-2.26-6.15-4.205h-0.104v3.47h-8.201V26.735z M125.293,58.797
			c3.205,0,3.313-4.362,3.313-8.935c0-5.151-0.158-8.568-3.26-8.568c-2.891,0-3.102,3.89-3.102,8.936
			C122.244,55.749,122.77,58.797,125.293,58.797z"/>
		<path fill="#004889" d="M146.842,26.735h11.037l9.355,37.529h-9.145l-1.367-7.149h-8.988l-1.314,7.149h-9.145L146.842,26.735z
			 M152.203,33.568h-0.105l-3.102,16.714h6.412L152.203,33.568z"/>
		<path fill="#004889" d="M182.055,46.551c0-4.152-0.947-5.887-3.207-5.887c-2.838,0-3.205,3.574-3.205,9.408
			c0,6.412,0.367,9.355,3.205,9.355c2.523,0,3.102-1.734,3.207-6.728h7.883c-0.051,8.777-3.521,12.3-11.248,12.3
			c-10.721,0-11.563-7.517-11.563-15.979c0-7.989,2.313-13.929,11.563-13.929c8.936,0,11.248,4.678,11.248,11.458H182.055z"/>
		<path fill="#004889" d="M205.703,46.551c0-4.152-0.945-5.887-3.205-5.887c-2.84,0-3.207,3.574-3.207,9.408
			c0,6.412,0.367,9.355,3.207,9.355c2.521,0,3.1-1.734,3.205-6.728h7.885c-0.053,8.777-3.521,12.3-11.248,12.3
			c-10.723,0-11.563-7.517-11.563-15.979c0-7.989,2.313-13.929,11.563-13.929c8.936,0,11.248,4.678,11.248,11.458H205.703z"/>
		<path fill="#004889" d="M222.941,51.438v1.735c0,4.415,0.631,6.569,3.102,6.569c2.207,0,2.891-1.629,3.1-5.203h7.885
			C236.869,61.584,233.033,65,225.99,65c-10.723,0-11.563-7.517-11.563-15.979c0-7.989,2.313-13.929,11.563-13.929
			c10.564,0,11.301,6.676,11.301,16.346H222.941z M229.092,46.498c0-3.995-0.527-6.15-2.893-6.15c-2.785,0-3.258,2.313-3.258,6.15
			H229.092z"/>
		<path fill="#004889" d="M245.539,55.224c0.053,1.261,0.158,2.365,0.578,3.206c0.475,0.788,1.262,1.313,2.629,1.313
			c1.998,0,3.049-1.261,3.049-2.891c0-1.314-0.631-2.575-3.26-3.469c-6.99-2.365-10.354-3.731-10.354-9.724
			c0-5.676,3.994-8.567,10.826-8.567c7.99,0,10.303,3.889,10.303,7.989v0.946h-7.568v-0.525c0-2.471-0.998-3.155-2.785-3.155
			c-2.262,0-2.891,1.104-2.891,2.628c0,5.046,13.611,1.683,13.611,12.72c0,5.729-3.836,9.304-10.879,9.304
			c-7.623,0-10.828-2.838-10.828-8.516v-1.261H245.539z"/>
		<path fill="#004889" d="M268.244,55.224c0.053,1.261,0.158,2.365,0.578,3.206c0.473,0.788,1.262,1.313,2.629,1.313
			c1.996,0,3.047-1.261,3.047-2.891c0-1.314-0.631-2.575-3.258-3.469c-6.99-2.365-10.354-3.731-10.354-9.724
			c0-5.676,3.994-8.567,10.826-8.567c7.99,0,10.303,3.889,10.303,7.989v0.946h-7.57v-0.525c0-2.471-0.998-3.155-2.785-3.155
			c-2.26,0-2.891,1.104-2.891,2.628c0,5.046,13.613,1.683,13.613,12.72c0,5.729-3.836,9.304-10.879,9.304
			c-7.623,0-10.828-2.838-10.828-8.516v-1.261H268.244z"/>
		<path fill="#004889" d="M293.734,26h7.148l-11.984,39h-7.148L293.734,26z"/>
		<path fill="#79BC28" d="M310.342,33.884h-7.885v-7.149h24.598v7.149h-7.883v30.38h-8.83V33.884z"/>
		<path fill="#79BC28" d="M324.373,44.553c0.055-3.889,1.211-6.254,3.207-7.621c1.998-1.367,4.414-1.84,7.938-1.84
			c6.99,0,10.092,2.418,10.092,8.411v14.611c0,2.155,0,4.888,0.998,6.15h-8.199c-0.316-1-0.42-2.156-0.475-3.259h-0.104
			c-1.156,2.522-3.838,3.994-6.676,3.994c-4.783,0-7.568-2.523-7.568-8.673c0-3.312,1.365-6.097,3.469-7.253
			c2.102-1.156,5.256-1.683,7.621-2.313c2.576-0.685,3.049-1.104,3.049-3.259c0-1.735-0.789-2.839-2.682-2.839
			c-2.365,0-3.049,1.418-3.1,3.889H324.373z M334.256,59.113c1.787,0,3.416-1.052,3.416-3.89c0-2.365,0.053-3.837,0.053-4.993
			c-2.682,1.419-3.838,1.472-4.625,2.103c-0.895,0.683-1.314,1.576-1.314,3.153C331.785,57.747,332.678,59.113,334.256,59.113z"/>
		<path fill="#79BC28" d="M364.16,35.829h7.885v27.436c0,6.413-2.838,10.67-11.826,10.67c-8.254,0-10.67-3.627-10.67-7.884h7.883
			c0.158,0.788,0.422,1.366,0.895,1.734c0.525,0.368,1.209,0.578,2.102,0.578c2.84,0,3.418-1.839,3.418-7.254v-1.734h-0.105
			c-1.156,3.259-3.838,4.205-6.729,4.205c-6.15,0-7.988-6.097-7.988-13.928c0-6.728,0.893-14.56,8.303-14.56
			c3.838,0,5.73,1.998,6.729,4.573h0.105V35.829z M360.639,57.379c2.313,0,3.207-1.683,3.207-8.095c0-5.203-0.633-7.674-3.102-7.674
			c-2.785,0-3.207,3.259-3.207,7.937C357.537,55.486,358.326,57.379,360.639,57.379z"/>
		<path fill="#79BC28" d="M375.826,26.735h8.83v30.38h12.773v7.149h-21.604V26.735z"/>
		<path fill="#79BC28" d="M398.689,26.314h8.514v6.518h-8.514V26.314z M398.689,35.829h8.514v28.436h-8.514V35.829z"/>
		<path fill="#79BC28" d="M410.828,35.829h8.199v3.363h0.105c1.209-2.523,3.68-4.1,6.834-4.1c4.834,0,7.41,2.418,7.41,7.884v21.288
			h-8.514V44.869c0-2.05-0.895-3.259-2.471-3.259c-1.629,0-3.049,1.261-3.049,4.047v18.607h-8.516V35.829z"/>
		<path fill="#79BC28" d="M436.793,26.735h8.514v19.29h0.105l6.359-10.197h9.355l-8.146,11.458l9.146,16.978h-9.305l-5.309-10.724
			l-2.207,2.996v7.728h-8.514V26.735z"/>
	</g>
</g>
</svg>
