<?xml version="1.0" encoding="utf-8"?>
<!-- Generator: Adobe Illustrator 16.0.0, SVG Export Plug-In . SVG Version: 6.00 Build 0)  -->
<!DOCTYPE svg PUBLIC "-//W3C//DTD SVG 1.1//EN" "http://www.w3.org/Graphics/SVG/1.1/DTD/svg11.dtd">
<svg version="1.1" id="圖層_1" xmlns="http://www.w3.org/2000/svg" xmlns:xlink="http://www.w3.org/1999/xlink" x="0px" y="0px"
	 width="512px" height="128px" viewBox="0 0 512 128" enable-background="new 0 0 512 128" xml:space="preserve">
<g>
	<g>
		<path fill="#004889" d="M60.961,26.735h8.831l3.259,26.701h0.105l3.89-26.701h8.199l4.204,26.701h0.106l3.152-26.701h8.516
			l-6.517,37.529H84.93l-3.837-26.649h-0.105l-3.626,26.649h-9.777L60.961,26.735z"/>
		<path fill="#004889" d="M108.896,51.439v1.735c0,4.415,0.63,6.57,3.101,6.57c2.207,0,2.891-1.628,3.101-5.204h7.885
			C122.824,61.584,118.987,65,111.944,65c-10.724,0-11.563-7.516-11.563-15.979c0-7.989,2.313-13.929,11.563-13.929
			c10.564,0,11.3,6.676,11.3,16.346H108.896z M115.045,46.498c0-3.994-0.526-6.15-2.891-6.15c-2.786,0-3.259,2.313-3.259,6.15
			H115.045z"/>
		<path fill="#004889" d="M124.976,26.735h8.516V38.93h0.105c1.419-3.049,3.995-3.837,6.359-3.837c6.991,0,8.252,6.36,8.252,15.19
			c0,10.617-3.049,14.717-8.777,14.717c-3.784,0-5.519-2.26-6.149-4.204h-0.105v3.469h-8.2V26.735z M136.383,58.797
			c3.205,0,3.312-4.362,3.312-8.935c0-5.151-0.158-8.568-3.259-8.568c-2.892,0-3.102,3.89-3.102,8.937
			C133.334,55.75,133.859,58.797,136.383,58.797z"/>
		<path fill="#004889" d="M157.931,26.735h11.038l9.356,37.529h-9.146l-1.366-7.149h-8.989l-1.313,7.149h-9.146L157.931,26.735z
			 M163.292,33.568h-0.105l-3.101,16.714h6.412L163.292,33.568z"/>
		<path fill="#004889" d="M193.144,46.551c0-4.152-0.946-5.887-3.207-5.887c-2.838,0-3.205,3.574-3.205,9.409
			c0,6.412,0.367,9.355,3.205,9.355c2.523,0,3.102-1.734,3.207-6.728h7.884C200.976,61.478,197.507,65,189.779,65
			c-10.722,0-11.563-7.516-11.563-15.979c0-7.989,2.313-13.929,11.563-13.929c8.936,0,11.248,4.677,11.248,11.458H193.144z"/>
		<path fill="#004889" d="M216.794,46.551c0-4.152-0.946-5.887-3.206-5.887c-2.839,0-3.207,3.574-3.207,9.409
			c0,6.412,0.368,9.355,3.207,9.355c2.522,0,3.101-1.734,3.206-6.728h7.884C224.625,61.478,221.156,65,213.43,65
			c-10.723,0-11.563-7.516-11.563-15.979c0-7.989,2.313-13.929,11.563-13.929c8.936,0,11.248,4.677,11.248,11.458H216.794z"/>
		<path fill="#004889" d="M234.031,51.439v1.735c0,4.415,0.631,6.57,3.102,6.57c2.207,0,2.891-1.628,3.101-5.204h7.884
			C247.961,61.584,244.123,65,237.08,65c-10.723,0-11.563-7.516-11.563-15.979c0-7.989,2.313-13.929,11.563-13.929
			c10.565,0,11.301,6.676,11.301,16.346H234.031z M240.182,46.498c0-3.994-0.526-6.15-2.892-6.15c-2.785,0-3.259,2.313-3.259,6.15
			H240.182z"/>
		<path fill="#004889" d="M256.63,55.224c0.053,1.261,0.158,2.365,0.578,3.206c0.474,0.788,1.262,1.313,2.629,1.313
			c1.997,0,3.048-1.261,3.048-2.891c0-1.314-0.631-2.575-3.259-3.469c-6.991-2.365-10.354-3.731-10.354-9.724
			c0-5.677,3.994-8.567,10.827-8.567c7.989,0,10.302,3.889,10.302,7.989v0.946h-7.569v-0.525c0-2.471-0.998-3.155-2.785-3.155
			c-2.261,0-2.891,1.104-2.891,2.629c0,5.045,13.613,1.682,13.613,12.719c0,5.729-3.837,9.304-10.881,9.304
			c-7.621,0-10.827-2.838-10.827-8.515v-1.261H256.63z"/>
		<path fill="#004889" d="M279.335,55.224c0.052,1.261,0.158,2.365,0.578,3.206c0.473,0.788,1.262,1.313,2.629,1.313
			c1.996,0,3.048-1.261,3.048-2.891c0-1.314-0.632-2.575-3.259-3.469c-6.991-2.365-10.354-3.731-10.354-9.724
			c0-5.677,3.994-8.567,10.827-8.567c7.989,0,10.302,3.889,10.302,7.989v0.946h-7.568v-0.525c0-2.471-0.999-3.155-2.785-3.155
			c-2.261,0-2.891,1.104-2.891,2.629c0,5.045,13.612,1.682,13.612,12.719c0,5.729-3.837,9.304-10.88,9.304
			c-7.622,0-10.828-2.838-10.828-8.515v-1.261H279.335z"/>
		<path fill="#004889" d="M304.825,26h7.149L299.99,65h-7.148L304.825,26z"/>
		<path fill="#79BC28" d="M321.695,52.806v1.314c0,2.838,0.789,4.993,3.837,4.993c3.102,0,3.995-2.313,3.995-4.467
			c0-8.095-16.137-3.575-16.137-17.609c0-5.992,3.206-11.037,12.3-11.037c8.83,0,11.984,4.467,11.984,10.249v0.894h-8.516
			c0-1.788-0.21-3.102-0.736-3.943c-0.525-0.894-1.366-1.314-2.68-1.314c-2.208,0-3.521,1.314-3.521,4.047
			c0,7.832,16.136,3.89,16.136,17.136c0,8.515-4.73,11.931-12.825,11.931c-6.412,0-12.352-1.944-12.352-9.776v-2.418H321.695z"/>
		<path fill="#79BC28" d="M356.698,39.77c0-5.466-0.631-7.884-3.574-7.884c-3.521,0-3.837,3.365-3.837,13.194
			c0,11.143,0.368,14.034,4.047,14.034c3.26,0,3.627-3.732,3.68-9.566h8.516v1.314c0,8.094-2.261,14.139-13.193,14.139
			c-11.301,0-12.194-8.462-12.194-19.763c0-9.619,0.525-19.237,13.035-19.237c7.778,0,12.037,3.363,12.037,12.193v1.577H356.698z"/>
		<path fill="#79BC28" d="M374.515,26.735h11.037l9.356,37.529h-9.146l-1.367-7.149h-8.987l-1.314,7.149h-9.146L374.515,26.735z
			 M379.875,33.568h-0.104l-3.102,16.714h6.413L379.875,33.568z"/>
		<path fill="#79BC28" d="M396.114,26.735h13.088c8.725,0,12.457,4.52,12.457,17.556c0,13.614-1.734,19.974-13.351,19.974h-12.194
			V26.735z M404.944,57.747h2.366c4.1,0,5.519-1.63,5.519-12.878c0-9.146-0.735-11.616-5.414-11.616h-2.471V57.747z"/>
		<path fill="#79BC28" d="M430.645,26.735h11.037l9.357,37.529h-9.146l-1.367-7.149h-8.987l-1.314,7.149h-9.146L430.645,26.735z
			 M436.006,33.568H435.9L432.8,50.283h6.412L436.006,33.568z"/>
	</g>
</g>
</svg>
