<?xml version="1.0" encoding="utf-8"?>
<!-- Generator: Adobe Illustrator 16.0.0, SVG Export Plug-In . SVG Version: 6.00 Build 0)  -->
<!DOCTYPE svg PUBLIC "-//W3C//DTD SVG 1.1//EN" "http://www.w3.org/Graphics/SVG/1.1/DTD/svg11.dtd">
<svg version="1.1" id="圖層_1" xmlns="http://www.w3.org/2000/svg" xmlns:xlink="http://www.w3.org/1999/xlink" x="0px" y="0px"
	 width="512px" height="128px" viewBox="0 0 512 128" enable-background="new 0 0 512 128" xml:space="preserve">
<path fill="none" d="M256,64"/>
<g>
	<path fill="#79BC28" d="M372.055,11.031C360.628-4.999,309.746-2.246,244.197,31.132c-0.526,0.273-1.031,0.541-1.555,0.807
		c54.475-27.451,99.79-27.526,103.947-14.273c4,12.722-7.19,40.197-63.304,66.851c-56.951,27.049-96.104,26.339-106.069,21.354
		c-11.525-5.764-7.982-26.742,27.616-49.55c-44.319,27.814-55.557,46.924-46.126,59.516c13.866,18.52,71.19,12.814,138.106-17.085
		C363.97,68.744,383.478,27.061,372.055,11.031z"/>
	<g>
		<path fill="#0B377D" d="M161.479,39.433l-10.5,39H139.87l-7.011-25.405l-6.807,25.405H114.92l-10.499-39h10.507l5.982,26.849
			l7.185-26.849h10.027l6.86,26.849l6.28-26.849H161.479z"/>
		<path fill="#0B377D" d="M224.378,63.324c0,4.621-1.278,8.387-3.836,11.298c-2.558,2.917-5.75,4.375-9.575,4.375
			c-1.642,0-3.08-0.175-4.322-0.519c-1.239-0.341-2.416-0.845-3.534-1.508l-0.395,1.464h-9.056V37.711h9.45v14.394
			c1.45-1.153,2.928-2.084,4.439-2.801c1.51-0.718,3.255-1.075,5.224-1.075c3.721,0,6.582,1.338,8.593,4.018
			C223.374,54.923,224.378,58.613,224.378,63.324z M214.605,63.532c0-2.608-0.443-4.616-1.331-6.021
			c-0.886-1.41-2.467-2.116-4.742-2.116c-0.885,0-1.801,0.138-2.738,0.406c-0.936,0.269-1.834,0.658-2.684,1.161v14.702
			c0.678,0.247,1.32,0.411,1.928,0.498c0.607,0.087,1.338,0.131,2.189,0.131c2.486,0,4.339-0.731,5.552-2.192
			C213.996,68.642,214.605,66.451,214.605,63.532z"/>
		<path fill="#0B377D" d="M262.565,78.433h-10.372l-2.701-7.868h-14.403l-2.705,7.868h-10.17l14.393-39h11.566L262.565,78.433z
			 M247.068,63.401l-4.775-13.931l-4.78,13.931H247.068z"/>
		<path fill="#0B377D" d="M279.756,79.224c-2.566,0-4.906-0.303-7.022-0.913c-2.124-0.609-3.967-1.556-5.538-2.83
			c-1.555-1.274-2.759-2.882-3.613-4.816c-0.854-1.94-1.285-4.205-1.285-6.807c0-2.739,0.461-5.105,1.375-7.097
			c0.916-1.988,2.196-3.637,3.837-4.947c1.589-1.237,3.416-2.145,5.495-2.723c2.077-0.576,4.233-0.864,6.469-0.864
			c2.004,0,3.857,0.22,5.548,0.653c1.694,0.437,3.272,1.002,4.736,1.701v8.025h-1.332c-0.364-0.31-0.802-0.674-1.32-1.085
			c-0.514-0.417-1.144-0.824-1.891-1.22c-0.714-0.383-1.496-0.7-2.353-0.947c-0.855-0.253-1.847-0.377-2.979-0.377
			c-2.508,0-4.431,0.796-5.783,2.391c-1.352,1.593-2.025,3.754-2.025,6.489c0,2.82,0.692,4.961,2.078,6.425
			c1.384,1.461,3.346,2.194,5.886,2.194c1.189,0,2.254-0.135,3.205-0.404c0.945-0.272,1.733-0.588,2.36-0.958
			c0.594-0.348,1.116-0.714,1.57-1.096c0.453-0.388,0.87-0.764,1.252-1.127h1.332v8.053c-1.48,0.698-3.028,1.254-4.647,1.662
			C283.496,79.021,281.712,79.224,279.756,79.224z"/>
		<path fill="#0B377D" d="M308.118,79.224c-2.565,0-4.906-0.303-7.022-0.913c-2.124-0.609-3.968-1.556-5.538-2.83
			c-1.554-1.274-2.759-2.882-3.613-4.816c-0.854-1.94-1.283-4.205-1.283-6.807c0-2.739,0.461-5.105,1.374-7.097
			c0.916-1.988,2.196-3.637,3.837-4.947c1.589-1.237,3.416-2.145,5.495-2.723c2.077-0.576,4.232-0.864,6.468-0.864
			c2.005,0,3.857,0.22,5.548,0.653c1.694,0.437,3.273,1.002,4.737,1.701v8.025h-1.333c-0.362-0.31-0.802-0.674-1.32-1.085
			c-0.513-0.417-1.143-0.824-1.891-1.22c-0.713-0.383-1.495-0.7-2.353-0.947c-0.855-0.253-1.847-0.377-2.979-0.377
			c-2.507,0-4.431,0.796-5.783,2.391c-1.351,1.593-2.023,3.754-2.023,6.489c0,2.82,0.691,4.961,2.077,6.425
			c1.384,1.461,3.346,2.194,5.886,2.194c1.19,0,2.253-0.135,3.204-0.404c0.946-0.272,1.734-0.588,2.36-0.958
			c0.595-0.348,1.116-0.714,1.57-1.096c0.454-0.388,0.87-0.764,1.252-1.127h1.333v8.053c-1.479,0.698-3.028,1.254-4.647,1.662
			C311.859,79.021,310.075,79.224,308.118,79.224z"/>
		<path fill="#0B377D" d="M407.579,69.102c0,3.036-1.362,5.483-4.08,7.342c-2.724,1.857-6.453,2.781-11.176,2.781
			c-2.62,0-4.991-0.247-7.122-0.731c-2.125-0.488-3.832-1.031-5.128-1.622v-7.745h0.864c0.475,0.332,1.016,0.695,1.639,1.083
			c0.613,0.394,1.493,0.817,2.625,1.271c0.981,0.399,2.088,0.745,3.323,1.032c1.237,0.288,2.564,0.432,3.978,0.432
			c1.853,0,3.218-0.207,4.106-0.613c0.895-0.411,1.336-1.013,1.336-1.815c0-0.712-0.261-1.233-0.786-1.558
			c-0.521-0.322-1.515-0.632-2.978-0.928c-0.695-0.156-1.646-0.325-2.837-0.511c-1.198-0.183-2.284-0.404-3.257-0.665
			c-2.67-0.7-4.647-1.783-5.942-3.258c-1.282-1.471-1.931-3.304-1.931-5.507c0-2.825,1.335-5.172,4.015-7.046
			c2.674-1.875,6.328-2.814,10.968-2.814c2.196,0,4.304,0.225,6.316,0.671c2.01,0.445,3.581,0.921,4.714,1.426v7.444h-0.806
			c-1.396-0.962-2.983-1.745-4.771-2.348c-1.783-0.606-3.593-0.91-5.419-0.91c-1.519,0-2.793,0.211-3.83,0.625
			c-1.037,0.418-1.553,1.01-1.553,1.776c0,0.697,0.232,1.228,0.708,1.595c0.466,0.366,1.573,0.733,3.321,1.1
			c0.953,0.19,1.988,0.377,3.096,0.561c1.108,0.184,2.219,0.416,3.332,0.694c2.479,0.645,4.31,1.661,5.496,3.047
			C406.987,65.299,407.579,67.031,407.579,69.102z"/>
		<path fill="#0B377D" d="M378.987,69.102c0,3.036-1.36,5.483-4.081,7.342c-2.718,1.857-6.449,2.781-11.175,2.781
			c-2.619,0-4.99-0.247-7.121-0.731c-2.126-0.488-3.837-1.031-5.126-1.622v-7.745h0.864c0.472,0.332,1.014,0.695,1.632,1.083
			c0.62,0.394,1.497,0.817,2.63,1.271c0.979,0.399,2.088,0.745,3.321,1.032c1.242,0.288,2.567,0.432,3.982,0.432
			c1.849,0,3.216-0.207,4.104-0.613c0.893-0.411,1.334-1.013,1.334-1.815c0-0.712-0.259-1.233-0.782-1.558
			c-0.526-0.322-1.518-0.632-2.981-0.928c-0.695-0.156-1.644-0.325-2.836-0.511c-1.199-0.183-2.281-0.404-3.258-0.665
			c-2.666-0.7-4.644-1.783-5.939-3.258c-1.285-1.471-1.933-3.304-1.933-5.507c0-2.825,1.339-5.172,4.017-7.046
			c2.673-1.875,6.328-2.814,10.966-2.814c2.195,0,4.303,0.225,6.314,0.671c2.011,0.445,3.585,0.921,4.719,1.426v7.444h-0.811
			c-1.394-0.962-2.983-1.745-4.769-2.348c-1.784-0.606-3.59-0.91-5.421-0.91c-1.518,0-2.791,0.211-3.827,0.625
			c-1.038,0.418-1.554,1.01-1.554,1.776c0,0.697,0.233,1.228,0.706,1.595c0.466,0.366,1.574,0.733,3.324,1.1
			c0.954,0.19,1.986,0.377,3.095,0.561c1.106,0.184,2.222,0.416,3.336,0.694c2.474,0.645,4.306,1.661,5.495,3.047
			C378.396,65.299,378.987,67.031,378.987,69.102z"/>
	</g>
	<g>
		<path fill="#0B377D" d="M189.399,64.613h-21.448c0.138,2.272,1.01,4.013,2.616,5.218c1.606,1.205,3.973,1.807,7.099,1.807
			c1.979,0,3.898-0.351,5.757-1.057s3.325-1.464,4.401-2.272h1.042v7.508c-2.116,0.849-4.113,1.464-5.986,1.846
			c-1.875,0.38-3.947,0.569-6.221,0.569c-5.864,0-10.358-1.314-13.481-3.949c-3.124-2.634-4.687-6.385-4.687-11.252
			c0-4.817,1.479-8.633,4.436-11.448c2.958-2.815,7.013-4.224,12.163-4.224c4.753,0,8.324,1.202,10.72,3.605
			c2.393,2.402,3.59,5.858,3.59,10.369V64.613z M180.073,59.117c-0.051-1.956-0.538-3.427-1.456-4.414
			c-0.919-0.987-2.351-1.48-4.293-1.48c-1.803,0-3.286,0.466-4.448,1.401c-1.162,0.935-1.813,2.433-1.95,4.492H180.073z"/>
	</g>
	<g>
		<path fill="#FFFFFF" d="M351.901,63.39h-22.614c0.146,2.425,1.065,4.279,2.759,5.564c1.694,1.286,4.187,1.93,7.481,1.93
			c2.088,0,4.11-0.375,6.069-1.122c1.958-0.748,3.504-1.551,4.641-2.409h1.098v7.913c-2.232,0.894-4.339,1.542-6.315,1.942
			c-1.978,0.403-4.165,0.603-6.561,0.603c-6.187,0-10.928-1.39-14.224-4.172c-3.294-2.782-4.94-6.743-4.94-11.884
			c0-5.086,1.56-9.116,4.68-12.09c3.12-2.973,7.396-4.461,12.832-4.461c5.013,0,8.782,1.268,11.308,3.801
			c2.523,2.531,3.787,6.176,3.787,10.928V63.39z M342.075,57.594c-0.054-2.067-0.566-3.622-1.536-4.664
			c-0.971-1.043-2.479-1.564-4.528-1.564c-1.902,0-3.467,0.495-4.693,1.481c-1.228,0.989-1.912,2.571-2.059,4.747H342.075z"/>
	</g>
	<path opacity="0.6" fill="#75B12E" d="M306.028,72.219c0.727,0.166,1.521,0.25,2.379,0.25c1.19,0,2.254-0.135,3.205-0.404
		c0.945-0.271,1.733-0.587,2.36-0.957c0.595-0.349,1.116-0.714,1.57-1.096c0.453-0.388,0.87-0.764,1.252-1.127h1.332v8.053
		c-1.48,0.698-3.028,1.254-4.646,1.662c-1.615,0.413-3.398,0.615-5.354,0.615c-2.566,0-4.906-0.303-7.022-0.912
		c-1.146-0.329-2.208-0.754-3.19-1.278"/>
</g>
</svg>
